<?xml version="1.0" encoding="UTF-8"?>
<!DOCTYPE svg PUBLIC "-//W3C//DTD SVG 1.0//EN" "http://www.w3.org/TR/2001/REC-SVG-20010904/DTD/svg10.dtd">
<!-- Creator: CorelDRAW 2021.5 -->
<svg xmlns="http://www.w3.org/2000/svg" xml:space="preserve" width="95.3346mm" height="48.8924mm" version="1.0" style="shape-rendering:geometricPrecision; text-rendering:geometricPrecision; image-rendering:optimizeQuality; fill-rule:evenodd; clip-rule:evenodd"
viewBox="0 0 9533.46 4889.24"
 xmlns:xlink="http://www.w3.org/1999/xlink"
 xmlns:xodm="http://www.corel.com/coreldraw/odm/2003">
 <defs>
  <style type="text/css">
   <![CDATA[
    .fil0 {fill:white}
    .fil1 {fill:white;fill-rule:nonzero}
   ]]>
  </style>
 </defs>
 <g id="Layer_x0020_1">
  <metadata id="CorelCorpID_0Corel-Layer"/>
  <g id="_1959095023808">
   <g>
    <path class="fil0" d="M7948.06 3916.35l0 -544.91 368.6 0c3.52,74.08 37.47,133.37 102.58,177.7 65.8,44 146.21,66.15 241.75,66.15 82.52,0 147.26,-14.24 193.36,-43.63 46.45,-28.5 70.02,-65.09 70.02,-109.78 0,-41.88 -21.46,-73.9 -64.39,-96.77 -42.4,-22.7 -125.09,-44.52 -249.5,-65.8 -255.63,-41.17 -439.85,-104.16 -553.16,-188.8 -112.95,-84.1 -170.14,-196.36 -170.14,-335.89 0,-130.71 53.66,-241.21 160.11,-331.29 106.98,-90.08 248.26,-135.13 424.2,-135.13 142.87,0 276.24,26.4 400.28,78.64l0 -54 360.51 0 0 459.39 -360.51 0c-33.08,-109.79 -148.32,-164.86 -345.73,-164.86 -146.22,0 -219.05,40.46 -219.05,120.88 0,30.78 14.95,53.66 45.03,70.02 29.56,15.48 106.45,34.67 229.08,56.12 194.95,33.61 340.81,67.57 437.76,101.18 96.42,34.12 174.01,89.9 232.07,167.84 58.24,77.59 87.79,171.55 87.79,280.29 0,154.83 -55.06,282.04 -166.08,380.39 -110.15,98.7 -267.08,147.97 -468.9,147.97 -188.44,0 -317.41,-37.82 -387.08,-114.36l0 78.65 -368.6 0zm-3813.98 -364.38l0 364.38 -764.13 0 0 -188.09c-140.75,140.58 -292.41,210.95 -456.92,210.95 -196.36,0 -359.99,-80.4 -489.84,-240.69 -128.97,-160.11 -193.71,-353.82 -193.71,-582.03 0,-231.36 66.16,-426.48 198.81,-584.84 132.67,-158.53 294.89,-237.87 486.5,-237.87 183.86,0 335.7,71.25 455.16,214.3l0 -502.51 -246.32 0 0 -83.85c252.01,-53.1 502.79,-114.66 750.94,-184.54l0 1814.79 259.51 0zm-759.37 -430.73c0,-151.3 -32.2,-259.69 -96.95,-323.91 -64.39,-64.04 -138.46,-96.6 -220.99,-96.6 -99.41,0 -175.59,38.89 -229.61,115.78 -53.49,76.54 -80.75,178.06 -80.75,303.15 0,118.77 26.57,218.88 80.41,300.34 53.3,80.94 130.2,121.93 231.71,121.93 83.4,0 157.64,-32.9 220.99,-99.06 63.7,-65.97 95.19,-172.95 95.19,-321.63zm2639.36 430.73l0 364.38 -759.03 0 0 -124.4c-135.66,98 -279.41,147.26 -430.89,147.26 -156.59,0 -292.07,-44.69 -405.55,-134.07 -113.67,-89.38 -170.5,-209.2 -170.5,-359.98 0,-151.31 60.35,-278.87 179.11,-380.57 119.81,-102.92 275,-154.3 463.79,-154.3 105.75,0 227.32,26.74 364.04,80.4l0 -96.59c0,-81.11 -26.93,-146.91 -81.64,-198.81 -54.02,-52.09 -127.21,-77.6 -218.35,-77.6 -113.13,0 -210.26,41.18 -290.84,124.04l-406.08 -73.19c117.36,-250.02 372.83,-374.76 765.53,-374.76 151.84,0 278.53,17.24 377.94,51.19 100.46,34.67 175.07,79 224.15,133.38 49.27,54.36 83.58,114.35 103.63,179.45 20.06,64.75 30.09,170.15 30.09,316.01l0 578.16 254.6 0zm-759.03 -221.35c-121.93,-76.71 -219.23,-114.37 -292.25,-114.37 -57.18,0 -109.79,16.54 -156.95,50.51 -47.5,33.6 -71.43,82.87 -71.43,147.61 0,57.54 18.82,107.33 57.54,148.67 37.82,41.17 86.56,62.29 146.21,62.29 93.6,0 199.52,-55.06 316.88,-165.21l0 -129.5zm1005.35 1300.41l0 -364.38 303.86 0 104.5 -283.44 -574.98 -1283.88 -228.21 0 0 -366.49 946.41 0 0 366.49 -186.15 0 263.05 711.52 280.8 -711.52 -205.68 0 0 -366.49 830.65 0 0 366.49 -225.05 0 -757.62 1931.7 -551.58 0z"/>
    <path class="fil0" d="M1964.26 3293.52l0 544.93 -1637.96 0 0 -544.93 430.48 0c14.38,-331.4 106.65,-725.64 276.77,-1184.48 237.24,-5.02 477.03,-18.1 718.15,-39.31 -144.16,456.05 -216.33,863.65 -216.33,1223.79l428.89 0zm-793.3 -1526.85c135.96,-313.69 282.21,-580.54 439.65,-799.97l-873.57 0 0 476.79 -542.3 0 0 -1007.77 2121.32 0 0 418.1c-143.2,171.22 -287.7,450.7 -433.64,838.87 -235.04,31.06 -472.2,55.51 -711.46,73.98z"/>
    <path class="fil0" d="M3754.92 340.35c833.83,-98.6 1739.28,-160.64 2737.95,-175.01l0 0 3.54 0c94.86,-1.34 190.56,-2.24 287.22,-2.74 -1785.22,1284.99 -4347.96,1918.53 -6533.22,1789.61 2323.9,-39.9 4152.06,-547.56 5738.79,-1566.73 -631.75,-73.06 -1697.5,-27.68 -2234.28,-45.13z"/>
   </g>
   <path class="fil1" d="M580.22 4611.36l-253.91 0 73.67 -402.11 71.98 0 -62.24 339.68 182.03 0 -11.53 62.43zm124.2 -127.67c-0.38,4.69 -0.57,8.81 -0.57,12.28 0,20.53 6.09,36.19 18.28,47.15 12.09,10.96 28.96,16.5 50.52,16.5 11.53,0 24.84,-3.19 39.84,-9.47 14.99,-6.28 26.71,-13.41 35.33,-21.28l-7.96 72.46c-23.25,10.4 -51.55,15.65 -85.02,15.65 -36.27,0 -65.61,-11.43 -88.11,-34.4 -22.49,-22.87 -33.74,-54.27 -33.74,-94.2 0,-50.62 16.22,-92.7 48.65,-126.35 32.52,-33.65 74.98,-50.43 127.48,-50.43 30.92,0 55.95,6.57 75.16,19.69 19.22,13.03 28.78,31.77 28.78,56.14 0,33.18 -14.34,59.24 -42.93,78.08 -28.59,18.84 -63.83,28.31 -105.63,28.31 -20.53,0 -40.5,-3.38 -60.08,-10.13zm13.21 -51.92c11.81,3.46 24.75,5.25 38.62,5.25 24.84,0 45.83,-3.84 62.98,-11.44 17.16,-7.59 25.78,-18.46 25.78,-32.71 0,-15.94 -17.34,-23.9 -52.02,-23.9 -13.78,0 -27.74,5.99 -41.99,17.99 -14.25,12 -25.4,26.9 -33.37,44.81zm473.72 74.04c-1.31,6.85 -1.97,14.34 -1.97,22.59 0,40.31 3.09,67.96 9.28,82.96l-42.84 0c-12.84,0 -22.4,-9.75 -28.58,-29.25 -23.34,23.24 -52.49,34.87 -87.36,34.87 -31.78,0 -56.34,-9 -73.77,-26.9 -17.43,-18 -26.15,-43.03 -26.15,-75.08 0,-55.86 16.87,-103.76 50.61,-143.6 33.75,-39.83 76.4,-59.8 127.76,-59.8 49.59,0 85.39,4.6 107.32,13.78l-34.3 180.43zm-78.92 -137.97c-30.75,0 -55.31,14.72 -73.58,44.05 -18.28,29.34 -27.47,63.18 -27.47,101.42 0,31.59 15.57,47.43 46.59,47.43 19.77,0 37.02,-12.18 51.74,-36.46 14.71,-24.37 27.84,-74.7 39.46,-150.91 -13.03,-3.65 -25.22,-5.53 -36.74,-5.53zm379.89 19.22c-16.22,-12.1 -30.65,-18.09 -43.03,-18.09 -17.71,0 -34.02,7.68 -48.74,23.15 -14.71,15.47 -23.99,33.18 -27.83,53.14l-30.93 166.1 -68.99 0 55.11 -294.13 68.99 0 -4.5 25.31c24.28,-20.63 50.99,-30.94 80.33,-30.94 7.5,0 20.9,1.79 40.21,5.25l-20.62 70.21zm272.47 224.3l-70.67 0 31.78 -171.44c2.53,-13.69 3.75,-25.21 3.75,-34.58 0,-24.28 -14.34,-36.37 -43.12,-36.37 -24.56,0 -46.68,10.21 -66.27,30.65l-39.37 211.74 -69.07 0 41.71 -220.55c0.75,-3.85 1.12,-9.19 1.12,-15.94 0,-16.22 -2.62,-33.55 -7.87,-52.02l67.3 -12.37 6.18 32.62c24.19,-21 54.55,-31.5 91.01,-31.5 60.46,0 90.64,28.31 90.64,85.02 0,10.03 -1.31,21.93 -3.84,35.71l-33.28 179.03zm145.1 -388.61c0,-12.28 4.32,-22.4 13.03,-30.56 8.72,-8.16 19.22,-12.18 31.68,-12.18 12.28,0 22.78,4.02 31.59,12.18 8.72,8.16 13.12,18.28 13.12,30.56 0,12.09 -4.4,22.21 -13.12,30.37 -8.81,8.24 -19.31,12.37 -31.59,12.37 -12.28,0 -22.77,-4.03 -31.59,-12.19 -8.71,-8.15 -13.12,-18.28 -13.12,-30.55zm20.25 388.61l-69.83 0 44.71 -239.02 -37.96 0 11.53 -55.11 106.66 0 -55.11 294.13zm334.43 0l-70.67 0 31.77 -171.44c2.53,-13.69 3.76,-25.21 3.76,-34.58 0,-24.28 -14.35,-36.37 -43.13,-36.37 -24.55,0 -46.67,10.21 -66.26,30.65l-39.37 211.74 -69.08 0 41.71 -220.55c0.75,-3.85 1.13,-9.19 1.13,-15.94 0,-16.22 -2.63,-33.55 -7.88,-52.02l67.3 -12.37 6.19 32.62c24.18,-21 54.55,-31.5 91.01,-31.5 60.46,0 90.64,28.31 90.64,85.02 0,10.03 -1.31,21.93 -3.84,35.71l-33.28 179.03zm329.18 -243.14c4.04,9.09 6.01,20.06 6.01,32.9 0,28.59 -6.1,53.33 -18.37,74.14 -12.29,20.9 -32.53,37.86 -60.74,50.89 -28.12,12.94 -43.59,21.75 -46.31,26.34 12.37,-2.43 21.94,-3.56 28.87,-3.56 20.34,0 37.68,6.28 52.02,18.84 14.35,12.47 21.47,28.5 21.47,47.9 0,35.52 -12.47,62.89 -37.4,82.11 -25.03,19.21 -61.11,28.87 -108.54,28.87 -17.72,0 -37.12,-3.47 -58.21,-10.41 -21.18,-6.84 -38.42,-15.37 -51.74,-25.59l29.9 -51.74c26.15,18.37 53.24,27.56 81.26,27.56 50.72,0 76.12,-13.78 76.12,-41.24 0,-5.82 -2.63,-10.69 -7.78,-14.53 -5.16,-3.84 -13.03,-6.75 -23.53,-8.81l-52.02 -9.28c-19.4,-6.09 -29.15,-17.34 -29.15,-34.03 0,-9.65 8.06,-19.49 24.18,-29.33 -19.78,-5.72 -35.99,-16.31 -48.55,-32.06 -12.66,-15.65 -18.93,-33.09 -18.93,-52.3 0,-39.55 13.02,-71.7 39.18,-96.36 26.15,-24.65 59.7,-36.93 100.66,-36.93 25.31,0 46.59,5.44 63.93,16.22l25.77 -28.03 40.4 40.12 -28.5 28.31zm-171.71 70.67c0,14.62 3.28,26.53 9.84,35.9 6.56,9.28 15.56,13.96 27.09,13.96 19.97,0 36.56,-7.96 49.68,-23.99 13.12,-16.03 19.68,-35.43 19.68,-58.3 0,-25.78 -13.4,-38.62 -40.21,-38.62 -20.15,0 -36.27,6.66 -48.18,19.87 -11.9,13.22 -17.9,30.28 -17.9,51.18zm743.76 -17.06l-68.43 0c-7.21,32.62 -11.99,55.96 -14.24,69.93 -2.25,14.05 -3.38,26.99 -3.38,38.89 0,17.81 7.88,26.72 23.53,26.72 12.56,0 28.77,-7.31 48.46,-21.94l0 68.05c-18.47,9 -41.53,13.5 -69.36,13.5 -22.69,0 -40.31,-5.81 -52.87,-17.44 -28.77,11.63 -59.61,17.44 -92.51,17.44 -34.12,0 -61.49,-8.81 -82.39,-26.52 -20.9,-17.63 -31.3,-42.09 -31.3,-73.21 0,-52.49 20.99,-97.11 62.98,-133.75 -15.75,-19.97 -23.62,-39.74 -23.62,-59.34 0,-38.24 13.12,-68.23 39.37,-89.79 26.34,-21.65 61.11,-32.43 104.51,-32.43 32.99,0 58.86,5.62 77.7,16.87l-17.81 60.74c-16.87,-15.38 -36.27,-23.06 -58.39,-23.06 -24.18,0 -43.21,5.91 -57.09,17.72 -13.87,11.8 -20.8,28.68 -20.8,50.71 0,14.8 5.81,27.64 17.52,38.43l92.42 0 8.72 -47.81 70.3 -10.12 -11.16 58.49 67.96 0 -10.12 57.92zm-234.05 0c-24.28,25.31 -36.46,53.43 -36.46,84.36 0,34.11 20.99,51.18 63.08,51.18 20.9,0 37.68,-3.29 50.52,-9.94 0,-8.25 0.94,-17.24 2.72,-27.18l18.09 -98.42 -97.95 0zm657.62 189.53l-12.66 -81.55 -144.15 0 -47.34 81.55 -74.24 0 244.65 -407.74 25.3 0 82.67 407.74 -74.23 0zm-43.4 -285.51l-82.86 150.53 105.64 0 -22.78 -150.53zm402.11 285.51l-68.15 0 5.16 -27.37c-15.18,22.02 -40.4,32.99 -75.64,32.99 -34.4,0 -61.39,-10.12 -80.8,-30.37 -19.4,-20.25 -29.15,-47.8 -29.15,-82.58 0,-56.24 15.66,-102.45 46.96,-138.44 31.31,-35.99 72.92,-53.99 124.95,-53.99 9.84,0 20.9,1.97 33.17,5.81 12.28,3.85 21.19,7.97 26.62,12.57l25.22 -133.11 66.45 0 -74.79 414.49zm-72.08 -241.83c-31.68,0 -56.99,11.62 -75.74,34.96 -18.83,23.34 -28.21,53.05 -28.21,89.04 0,44.81 18.56,67.21 55.58,67.21 39.93,0 65.9,-31.96 77.89,-95.88l13.12 -70.59c-8.8,-16.49 -22.96,-24.74 -42.64,-24.74zm280.35 247.45l-24.75 0 -89.98 -299.75 71.42 0 49.4 178.37 103.57 -178.37 79.86 0 -189.52 299.75zm264.41 -133.29c-0.38,4.69 -0.56,8.81 -0.56,12.28 0,20.53 6.09,36.19 18.28,47.15 12.09,10.96 28.96,16.5 50.52,16.5 11.52,0 24.84,-3.19 39.84,-9.47 14.99,-6.28 26.7,-13.41 35.33,-21.28l-7.97 72.46c-23.24,10.4 -51.55,15.65 -85.01,15.65 -36.27,0 -65.61,-11.43 -88.11,-34.4 -22.49,-22.87 -33.74,-54.27 -33.74,-94.2 0,-50.62 16.21,-92.7 48.64,-126.35 32.53,-33.65 74.99,-50.43 127.48,-50.43 30.93,0 55.96,6.57 75.17,19.69 19.22,13.03 28.78,31.77 28.78,56.14 0,33.18 -14.34,59.24 -42.93,78.08 -28.59,18.84 -63.83,28.31 -105.64,28.31 -20.52,0 -40.49,-3.38 -60.08,-10.13zm13.22 -51.92c11.81,3.46 24.74,5.25 38.61,5.25 24.85,0 45.84,-3.84 62.99,-11.44 17.15,-7.59 25.77,-18.46 25.77,-32.71 0,-15.94 -17.34,-23.9 -52.01,-23.9 -13.78,0 -27.75,5.99 -41.99,17.99 -14.25,12 -25.41,26.9 -33.37,44.81zm462.46 179.59l-70.67 0 31.78 -171.44c2.53,-13.69 3.75,-25.21 3.75,-34.58 0,-24.28 -14.34,-36.37 -43.12,-36.37 -24.56,0 -46.68,10.21 -66.27,30.65l-39.37 211.74 -69.07 0 41.71 -220.55c0.74,-3.85 1.12,-9.19 1.12,-15.94 0,-16.22 -2.63,-33.55 -7.87,-52.02l67.3 -12.37 6.18 32.62c24.19,-21 54.55,-31.5 91.01,-31.5 60.46,0 90.64,28.31 90.64,85.02 0,10.03 -1.31,21.93 -3.84,35.71l-33.28 179.03zm287.29 -239.02l-81.64 0 -29.05 130.57c-2.25,10.4 -3.47,19.12 -3.47,26.15 0,19.96 11.34,30 33.93,30 10.03,0 26.52,-4.78 49.3,-14.26l0 62.06c-19.69,6.74 -46.59,10.12 -80.61,10.12 -22.21,0 -40.11,-6.94 -53.71,-20.91 -13.5,-13.96 -20.24,-32.14 -20.24,-54.45 0,-7.31 0.84,-14.62 2.44,-21.75l33.08 -147.53 -33.84 0 11.81 -55.11 33.75 0 11.43 -60.18 77.89 -28.58 -20.62 88.76 81.36 0 -11.81 55.11zm270.13 239.02l-68.7 0 4.12 -21.38c-24.56,18 -55.3,27 -92.32,27 -25.31,0 -45.09,-7.22 -59.52,-21.74 -14.34,-14.44 -21.56,-34.59 -21.56,-60.28 0,-7.96 1.03,-17.43 3,-28.21l35.24 -189.52 69.18 0 -34.13 186.71c-1.49,7.87 -2.15,14.53 -2.15,20.06 0,23.71 13.31,35.62 40.12,35.62 21.74,0 40.02,-7.13 54.83,-21.28 14.72,-14.15 23.9,-31.21 27.56,-51.18l30.18 -169.93 68.61 0 -54.46 294.13zm297.13 -224.3c-16.22,-12.1 -30.65,-18.09 -43.03,-18.09 -17.71,0 -34.02,7.68 -48.74,23.15 -14.71,15.47 -23.99,33.18 -27.84,53.14l-30.92 166.1 -68.99 0 55.11 -294.13 68.99 0 -4.5 25.31c24.28,-20.63 50.99,-30.94 80.33,-30.94 7.5,0 20.9,1.79 40.21,5.25l-20.62 70.21zm107.13 96.63c-0.37,4.69 -0.56,8.81 -0.56,12.28 0,20.53 6.09,36.19 18.28,47.15 12.09,10.96 28.96,16.5 50.52,16.5 11.53,0 24.84,-3.19 39.84,-9.47 14.99,-6.28 26.71,-13.41 35.33,-21.28l-7.96 72.46c-23.25,10.4 -51.56,15.65 -85.02,15.65 -36.27,0 -65.61,-11.43 -88.11,-34.4 -22.49,-22.87 -33.74,-54.27 -33.74,-94.2 0,-50.62 16.22,-92.7 48.65,-126.35 32.52,-33.65 74.98,-50.43 127.47,-50.43 30.93,0 55.96,6.57 75.17,19.69 19.22,13.03 28.78,31.77 28.78,56.14 0,33.18 -14.34,59.24 -42.93,78.08 -28.59,18.84 -63.83,28.31 -105.63,28.31 -20.53,0 -40.5,-3.38 -60.09,-10.13zm13.22 -51.92c11.81,3.46 24.75,5.25 38.62,5.25 24.84,0 45.83,-3.84 62.98,-11.44 17.16,-7.59 25.78,-18.46 25.78,-32.71 0,-15.94 -17.34,-23.9 -52.02,-23.9 -13.78,0 -27.75,5.99 -41.99,17.99 -14.25,12 -25.41,26.9 -33.37,44.81z"/>
  </g>
 </g>
</svg>
