<?xml version="1.0" encoding="UTF-8"?>
<!DOCTYPE svg PUBLIC "-//W3C//DTD SVG 1.0//EN" "http://www.w3.org/TR/2001/REC-SVG-20010904/DTD/svg10.dtd">
<!-- Creator: CorelDRAW 2021.5 -->
<svg xmlns="http://www.w3.org/2000/svg" xml:space="preserve" width="381mm" height="381mm" version="1.0" style="shape-rendering:geometricPrecision; text-rendering:geometricPrecision; image-rendering:optimizeQuality; fill-rule:evenodd; clip-rule:evenodd"
viewBox="0 0 38099.98 38099.98"
 xmlns:xlink="http://www.w3.org/1999/xlink"
 xmlns:xodm="http://www.corel.com/coreldraw/odm/2003">
 <defs>
  <style type="text/css">
   <![CDATA[
    .str0 {stroke:#FEFEFE;stroke-width:35.28;stroke-miterlimit:22.9256}
    .fil3 {fill:none;fill-rule:nonzero}
    .fil0 {fill:white}
    .fil2 {fill:#FEFEFE;fill-rule:nonzero}
    .fil1 {fill:white;fill-rule:nonzero}
   ]]>
  </style>
 </defs>
 <g id="Layer_x0020_1">
  <metadata id="CorelCorpID_0Corel-Layer"/>
  <g id="_2556040798288">
   <path class="fil0" d="M25430.24 14773.72c3095.89,-191.76 5441.87,81.15 6047.93,242.78 -3660.15,2711.96 -10253.77,4762.81 -16162.22,4454.98 6226.35,636.06 13628.93,-1377 18598.02,-5208.19 -1080.17,-22.58 -6742.53,97.96 -8483.73,510.43z"/>
   <rect class="fil0" x="13243.15" y="13675.89" width="370.15" height="10748.18"/>
   <path class="fil1" d="M4902.16 14149.14l296.32 -425.89 243.36 0 20.28 1777.9 -216.32 0c-136.33,-545.31 -339.13,-941.9 -606.15,-1193.15 -268.15,-250.12 -575.74,-375.19 -923.88,-375.19 -290.68,0 -528.41,86.76 -714.32,260.27 -184.77,172.38 -277.16,384.2 -277.16,634.32 0,155.48 34.93,291.81 105.91,408.98 69.85,117.18 175.76,212.95 315.47,286.18 139.71,73.23 403.35,152.1 790.93,236.6 543.06,119.43 925,238.86 1143.58,360.54 219.7,120.55 383.07,272.66 490.1,456.31 108.17,183.64 162.25,397.71 162.25,644.46 0,439.4 -147.6,803.32 -443.92,1091.75 -296.31,289.56 -678.26,433.77 -1148.08,433.77 -503.63,0 -941.91,-162.24 -1313.71,-486.72l-372.93 452.92 -236.6 0 0 -1892.82 236.6 0c92.39,522.78 299.69,935.14 620.8,1237.09 321.1,301.95 682.77,452.93 1086.12,452.93 325.61,0 590.38,-95.77 796.56,-288.43 206.18,-191.54 308.71,-425.89 308.71,-699.67 0,-156.61 -38.31,-292.94 -116.05,-411.24 -76.61,-117.17 -198.29,-216.32 -366.17,-296.32 -166.75,-79.99 -495.74,-176.88 -986.97,-290.68 -538.55,-128.44 -905.85,-270.4 -1100.77,-429.26 -273.78,-224.21 -411.23,-541.94 -411.23,-953.17 0,-429.27 136.32,-779.67 410.11,-1053.45 273.78,-273.78 624.18,-411.24 1050.06,-411.24 203.93,0 398.85,36.05 583.62,109.29 184.78,73.23 375.19,193.79 573.48,363.92z"/>
   <path id="_1" class="fil1" d="M6765.65 13777.33l2520.39 0c372.93,0 690.65,66.48 953.17,198.3 325.61,166.75 601.64,445.04 829.23,834.87 227.59,388.7 341.39,849.51 341.39,1382.43 0,440.54 -67.6,836 -203.93,1187.52 -103.66,271.53 -262.52,508.14 -477.71,709.81 -214.07,202.81 -475.46,354.91 -783.05,455.18 -230.97,75.49 -538.55,112.67 -923.87,112.67l-2255.62 0 0 -250.12 460.81 0c117.18,0 197.17,-19.16 242.24,-56.34 45.07,-37.18 67.6,-95.76 67.6,-174.63l0 -3925.36c0,-68.72 -23.66,-122.8 -72.11,-163.36 -48.44,-40.56 -116.04,-60.84 -201.67,-60.84l-496.87 0 0 -250.13zm1764.38 250.13c-99.14,0 -172.38,21.4 -219.7,63.09 -47.32,41.69 -70.98,103.65 -70.98,187.03l0 3889.3c0,79.99 27.04,139.71 82.25,180.27 55.21,40.56 148.72,60.84 280.54,60.84l415.75 0c371.8,0 697.41,-95.77 976.83,-287.31 182.52,-127.31 321.1,-306.45 415.74,-536.3 129.57,-312.09 194.92,-743.6 194.92,-1292.3 0,-813.46 -141.96,-1408.35 -425.89,-1786.91 -242.23,-318.85 -607.28,-477.71 -1095.13,-477.71l-554.33 0z"/>
   <path id="_2" class="fil1" d="M1987.44 19543.27l2264.63 0 0 250.13 -540.81 0c-85.62,0 -148.72,22.53 -189.28,67.6 -40.56,45.06 -60.84,116.04 -60.84,212.94l0 3846.48c0,92.39 25.91,157.74 77.74,196.05 51.83,38.3 155.48,57.46 310.96,57.46l685.03 0c365.04,0 663.61,-121.68 894.58,-363.92 232.1,-243.36 399.97,-664.74 505.88,-1265.26l229.84 0 -114.92 1879.3 -4062.81 0 0 -250.12 399.97 0c137.46,0 233.23,-25.92 288.43,-77.74 55.21,-51.83 82.25,-134.08 82.25,-249l0 -3807.05c0,-81.12 -23.66,-141.96 -69.85,-183.65 -46.2,-41.69 -113.8,-63.09 -205.06,-63.09l-495.74 0 0 -250.13z"/>
   <path id="_3" class="fil1" d="M9146.33 19441.87l229.84 0 1748.61 4462.78c69.85,179.14 214.07,269.28 431.52,269.28l152.1 0 0 250.12 -1946.9 0 0 -250.12 155.48 0c201.67,0 344.76,-21.41 428.14,-65.35 57.46,-31.55 86.75,-78.87 86.75,-141.96 0,-37.18 -7.89,-76.62 -23.66,-118.3l-403.35 -1033.17 -1928.88 0 -228.71 592.63c-59.72,157.74 -90.14,282.8 -90.14,375.19 0,107.03 50.7,199.42 150.98,276.04 100.27,76.61 245.61,114.92 437.15,114.92l165.62 0 0 250.12 -1771.14 0 0 -250.12c189.28,0 339.13,-41.69 449.54,-123.94 110.42,-82.25 211.82,-237.73 304.21,-468.7l1652.84 -4139.42zm-91.26 938.53l-869.8 2177.87 1719.31 0 -849.51 -2177.87z"/>
   <path class="fil2" d="M16272.79 23470.57l77.34 -114.49c86.84,3.45 154.24,5.18 202.63,5.18l159.42 -3.46c156.83,-3.88 286.87,-6.04 391,-6.91 -13.83,72.15 -23.34,132.64 -29.38,181.89 -90.3,-14.26 -212.14,-23.76 -365.08,-28.95 9.94,44.07 15.12,81.23 15.12,111.47 0,68.26 -15.98,138.69 -48.38,210.4 -32.41,71.72 -87.71,149.06 -165.48,231.58 85.98,63.51 167.64,108.87 245.4,136.52 77.34,27.22 147.76,41.05 210.84,41.05 32.4,0 80.79,-20.31 145.6,-60.92l19.01 60.92c-106.29,75.6 -181.03,133.06 -224.23,172.81 -33.7,10.8 -68.27,16.42 -103.69,16.42 -129.18,0 -279.96,-69.99 -453.21,-209.54 -96.78,79.06 -184.92,133.93 -264.41,164.17 -79.5,30.25 -166.34,45.37 -260.52,45.37 -155.54,0 -282.56,-48.82 -381.06,-146.89 -98.94,-97.65 -148.19,-219.05 -148.19,-364.21 0,-123.14 36.29,-232.44 108.87,-327.49 49.69,-65.24 146.03,-141.28 288.61,-228.98 -48.82,-128.32 -73.45,-236.76 -73.45,-325.33 0,-68.26 9.94,-127.88 30.24,-178.43 13.83,-34.56 39.75,-68.69 78.63,-102.39 99.81,-85.12 162.45,-134.37 188.81,-148.19 38.01,-19.45 82.08,-28.95 133.06,-28.95 71.72,0 127.89,22.03 168.93,65.67 41.05,44.07 61.35,102.83 61.35,177.14 0,172.81 -123.56,345.2 -371.12,517.15 138.68,255.77 313.23,476.97 524.06,664.04 48.39,-57.89 81.66,-111.89 99.8,-160.72 18.15,-48.82 27.22,-100.23 27.22,-154.67 0,-58.75 -9.93,-108.01 -30.24,-146.89 -9.5,-17.71 -22.9,-28.95 -40.61,-34.13 -30.68,-8.21 -100.67,-12.1 -210.41,-11.23l-6.48 -19.01zm-406.11 -225.96c155.1,-124.43 232.43,-247.13 232.43,-367.67 0,-52.7 -12.96,-95.04 -39.31,-126.58 -25.92,-31.54 -58.76,-47.53 -98.51,-47.53 -47.09,0 -85.54,18.58 -115.35,56.17 -29.81,37.58 -44.93,95.05 -44.93,172.38 0,85.98 22.03,190.53 65.67,313.23zm406.11 903.83c-200.03,-184.05 -378.89,-417.35 -536.59,-699.04 -81.22,56.59 -138.25,114.06 -171.09,172.81 -32.83,58.76 -49.25,124 -49.25,195.72 0,117.94 41.04,223.79 122.7,316.68 82.09,92.89 184.05,139.12 306.32,139.12 105.85,0 215.15,-41.91 327.91,-125.29z"/>
   <path id="_1_0" class="fil2" d="M18071.89 24403.34l3.89 -85.54 49.25 0c33.7,0 62.22,-4.32 84.68,-12.53 22.9,-8.64 41.48,-22.47 55.74,-41.91l101.53 -172.38 669.66 -1145.77c94.61,-161.15 157.69,-272.19 188.8,-333.11l248.85 0c10.81,83.82 23.33,170.66 36.73,260.96l174.97 1115.09c18.58,120.97 32.41,198.74 41.48,234.17 8.64,34.99 19.01,57.46 31.11,67.39 11.66,10.37 35.42,17.29 70.85,20.31l57.03 6.48c19.44,0.87 39.75,1.3 60.92,1.3l1.29 85.54c-103.25,-8.64 -222.06,-12.96 -357.29,-12.96 -173.25,0 -315.39,4.32 -426.86,12.96l1.3 -85.54 49.25 0c58.33,0 100.23,-5.19 125.29,-15.12 25.49,-10.37 38.02,-31.11 38.02,-62.65 0,-52.28 -6.48,-124.43 -20.3,-216.02l-43.21 -320.57 -200.9 0 -375.87 0 -105.85 190.96c-110.6,200.9 -165.91,321 -165.91,361.18 0,19.45 9.94,33.27 30.25,41.91 32.4,13.39 98.93,20.31 200.46,20.31l-15.12 85.54c-104.12,-8.64 -206.51,-12.96 -306.75,-12.96 -101.52,0 -202.62,4.32 -303.29,12.96zm1120.28 -1495.29l-390.99 668.37 248.85 5.18 245.83 -5.18 -103.69 -668.37z"/>
   <path id="_2_1" class="fil2" d="M21772.83 24090.11l22.9 75.61 -231.57 169.79c-55.74,36.29 -103.26,60.92 -142.14,74.74 -25.06,9.08 -48.39,13.83 -69.56,13.83 -29.38,0 -54.01,-11.23 -73.45,-34.13 -19.44,-22.47 -28.95,-53.57 -28.95,-92.03 0,-22.89 2.16,-45.36 6.05,-68.26 19.44,-96.78 38.45,-179.73 57.03,-248.85l55.73 -203.06c-106.71,202.62 -236.75,368.53 -390.99,497.28 -117.52,99.36 -213,149.05 -286.01,149.05 -46.23,0 -84.25,-21.17 -114.06,-63.08 -29.81,-42.34 -44.93,-110.17 -44.93,-204.79 0,-96.77 15.98,-206.08 47.95,-327.91 31.97,-122.27 73.02,-227.69 123.57,-317.12 28.51,-51.41 64.37,-92.46 107.14,-123.56 128.75,-94.19 232.44,-158.13 310.64,-191.83 55.3,-24.63 115.79,-36.72 181.46,-36.72 43.2,0 97.64,9.07 164.17,27.65l43.21 -277.81c14.25,-91.59 21.6,-143.86 21.6,-156.39 0,-20.74 -8.21,-35.86 -24.2,-46.23 -15.98,-9.94 -48.38,-15.12 -96.34,-15.12 -27.65,0 -61.35,0.43 -100.23,1.29l15.55 -75.17c155.1,-3.46 332.67,-42.34 532.27,-116.65l34.13 24.19c-28.51,106.28 -59.62,236.33 -92.45,391l-218.18 1037.33c-20.31,96.34 -30.25,167.2 -30.25,212.56 0,28.95 9.08,43.2 27.65,43.2 22.9,0 86.84,-39.74 192.26,-118.81zm-336.56 -753.48c-63.51,-37.15 -136.09,-55.73 -217.75,-55.73 -73.44,0 -124.85,14.26 -154.67,42.77 -41.9,40.62 -91.16,151.22 -146.89,332.24 -55.73,180.59 -83.38,339.59 -83.38,476.11 0,27.65 4.75,47.96 14.69,60.49 9.5,12.52 22.03,19.01 37.15,19.01 17.72,0 41.48,-9.08 70.86,-27.66 50.98,-30.67 105.85,-82.95 164.6,-156.83 78.64,-98.07 141.71,-196.14 190.1,-294.65 47.96,-98.5 81.66,-193.55 101.1,-284.71l24.19 -111.04z"/>
   <path id="_3_2" class="fil2" d="M22293.96 23518.96l111.47 -342.18c66.53,-11.67 126.15,-17.71 178.43,-17.71 35.43,0 67.83,1.72 97.21,5.18l95.05 10.37c28.51,3.02 52.7,4.75 72.15,4.75 96.77,0 166.33,-11.66 208.67,-35.86l35.43 49.26c-59.19,63.94 -117.08,146.89 -174.11,247.99 -57.03,101.53 -99.37,201.33 -127.02,299.4 -27.22,98.07 -41.05,188.8 -41.05,271.75 0,83.39 15.99,145.6 47.53,187.08 31.54,41.04 72.58,61.78 123.13,61.78 61.78,0 119.67,-23.76 174.54,-70.86 77.77,-66.53 145.17,-169.79 201.77,-309.34 57.03,-139.55 85.54,-267 85.54,-381.49 0,-50.12 -9.5,-86.84 -28.95,-111.46 -19.44,-24.63 -45.36,-36.73 -78.2,-36.73 -28.51,0 -57.89,12.1 -88.13,36.29l-26.79 -54.43c33.7,-24.2 67.83,-54.44 102.39,-90.3 34.57,-35.43 57.9,-63.08 70.43,-82.52 18.58,-5.62 37.58,-8.64 57.03,-8.64 59.62,0 105.85,19.87 138.25,60.05 32.4,40.18 48.39,104.12 48.39,191.83 0,145.6 -46.66,306.75 -140.41,482.59 -93.76,175.84 -201.77,309.34 -324.03,400.93 -122.27,91.59 -234.6,137.39 -337.86,137.39 -93.32,0 -168.5,-31.11 -225.09,-93.32 -56.6,-62.22 -84.68,-150.78 -84.68,-264.84 0,-75.18 11.23,-146.9 34.13,-216.02 22.9,-68.7 59.19,-138.25 109.74,-208.25 50.11,-69.55 147.75,-177.13 292.92,-322.73 -61.78,15.12 -117.95,22.9 -168.5,22.9l-143 -1.3c-51.41,0 -95.91,2.16 -132.64,6.48 -38.88,63.95 -68.26,122.27 -88.13,174.55l-75.61 -2.59z"/>
   <path id="_4" class="fil2" d="M25049.6 24083.63l27.65 69.56 -215.16 136.52c-89.43,50.12 -165.04,84.68 -227.25,104.56 -61.78,19.87 -118.38,29.81 -168.93,29.81 -102.82,0 -182.32,-27.22 -238.48,-81.22 -56.17,-54.01 -84.25,-131.34 -84.25,-232.87 0,-117.95 25.06,-255.77 74.74,-412.6 35.43,-111.47 83.38,-199.6 143.44,-264.84 60.48,-64.81 163.31,-135.23 308.47,-209.97 81.66,-42.34 164.18,-63.51 248,-63.51 76.47,0 136.95,19.01 181.02,57.46 43.64,38.45 65.67,89 65.67,151.64 0,76.04 -21.6,146.03 -65.24,210.84 -43.2,64.37 -120.54,123.56 -232,177.14 -111.47,53.57 -248.86,93.32 -412.17,119.67 -17.71,60.92 -26.79,118.38 -26.79,172.82 0,67.39 17.29,117.94 51.42,151.64 34.13,33.27 82.52,50.12 146.03,50.12 47.95,0 109.73,-13.83 185.34,-41.91 75.18,-28.08 154.67,-69.56 238.49,-124.86zm-584.55 -277.37c130.91,-35.43 222.07,-69.99 273.48,-102.82 51.41,-32.84 94.18,-79.93 128.31,-140.42 34.14,-60.48 51.42,-114.06 51.42,-161.58 0,-36.29 -11.24,-65.67 -33.7,-87.7 -22.04,-22.04 -52.28,-32.84 -90.3,-32.84 -41.47,0 -81.22,13.39 -119.24,40.61 -38.02,27.22 -73.02,74.75 -104.99,142.58 -31.97,68.26 -66.96,182.32 -104.98,342.17z"/>
   <path id="_5" class="fil2" d="M25670.95 24424.08l-31.54 -32.84c17.72,-45.79 32.41,-87.27 44.5,-125.29 40.18,-137.82 68.7,-234.6 84.68,-290.33 28.52,-101.96 52.28,-207.81 71.29,-317.12 19.01,-109.3 28.51,-180.16 28.51,-213.42 0,-24.63 -9.93,-37.16 -28.94,-37.16 -11.23,0 -29.38,6.48 -54.44,19.87 -51.84,26.79 -97.21,55.74 -136.96,87.28l-32.83 -68.27 190.96 -143.86c84.68,-59.63 153.81,-101.53 208.24,-124.86 30.25,-12.53 59.19,-19.01 86.41,-19.01 23.33,0 41.48,6.04 53.58,18.57 12.52,12.1 18.57,31.54 18.57,58.76 0,23.33 -3.45,53.57 -9.93,89.87 -19.01,96.34 -39.32,184.91 -61.35,265.7l-52.28 190.1c66.97,-108.88 111.47,-177.57 134.36,-205.22 69.56,-85.11 144.31,-162.45 225.1,-231.14 80.36,-68.7 156.83,-119.68 228.55,-152.51 49.68,-22.9 93.75,-34.13 131.77,-34.13 35.43,0 62.64,9.93 81.22,30.24 18.58,20.3 27.65,49.68 27.65,87.7 0,55.74 -25.92,174.55 -77.33,356.87l-63.94 232c-35,124.86 -52.28,222.07 -52.28,292.49 0,31.98 9.94,47.96 29.38,47.96 14.25,0 35.42,-8.21 63.08,-24.19 54,-31.11 95.91,-60.92 125.29,-89.44l31.97 74.75c-149.49,107.14 -250.15,174.11 -302.86,200.9 -69.99,37.15 -127.02,55.73 -171.95,55.73 -31.11,0 -54.44,-9.94 -69.56,-30.24 -15.12,-20.31 -22.9,-55.74 -22.9,-106.29 0,-54.86 16.85,-140.41 50.55,-257.06l40.61 -140.41c34.56,-124.86 55.73,-207.38 63.51,-247.99 22.9,-98.08 34.13,-160.72 34.13,-188.8 0,-15.13 -4.32,-26.79 -12.96,-35.43 -9.07,-8.21 -21.17,-12.53 -36.29,-12.53 -41.91,0 -98.94,36.29 -171.52,108.87 -99.8,100.24 -182.32,221.64 -247.56,364.64 -65.24,142.58 -111.47,307.62 -139.55,495.99 -107.15,8.21 -199.17,24.62 -276.94,49.25z"/>
   <path id="_6" class="fil2" d="M28233.04 24047.34l30.24 70.85 -190.1 139.55c-97.64,66.97 -172.38,111.47 -223.79,133.5 -51.42,22.04 -94.19,32.84 -127.89,32.84 -43.2,0 -77.77,-14.26 -104.12,-43.2 -25.92,-28.52 -38.88,-69.13 -38.88,-121.41 0,-27.65 3.45,-60.48 10.8,-97.64 6.91,-37.15 42.34,-193.99 105.41,-470.92 41.48,-181.03 66.11,-296.38 74.75,-345.2l-280.83 0 17.72 -69.56c80.79,-17.71 180.59,-46.23 298.54,-85.98 30.67,-168.06 46.66,-287.3 47.52,-357.73 90.3,-23.33 196.58,-57.03 318.84,-101.09l26.79 30.24c-43.2,149.05 -82.95,298.54 -119.24,449.32l130.04 0c94.19,0 167.63,-3.46 220.77,-10.37l9.94 9.94 -17.71 64.37c-8.21,28.95 -13.83,55.74 -16.42,80.79 -73.88,-6.48 -147.76,-9.93 -220.77,-9.93l-135.23 0c-28.51,97.64 -66.1,257.93 -112.76,479.56 -36.29,172.39 -54.44,278.67 -54.44,319.28 0,22.03 6.05,38.88 17.71,50.98 11.67,12.53 26.79,18.58 44.5,18.58 25.06,0 56.17,-10.37 93.32,-30.68 71.72,-38.88 136.96,-84.24 195.29,-136.09z"/>
   <path id="_7" class="fil2" d="M28841 23493.03l-30.24 -72.15c113.62,-82.52 213.42,-146.89 298.53,-192.69 85.12,-46.23 149.92,-69.12 194.85,-69.12 28.52,0 50.12,7.77 64.38,22.89 14.26,15.13 21.6,41.05 21.6,77.34 0,43.64 -15.12,120.97 -45.8,231.57l-74.74 276.08c-28.08,103.69 -51.41,203.06 -69.99,297.67 -8.21,41.48 -12.53,71.72 -12.53,91.16 0,18.58 3.89,32.41 12.1,41.91 8.21,9.07 19.01,13.83 32.4,13.83 17.72,0 40.61,-9.08 68.7,-26.79 44.06,-28.52 100.23,-84.68 168.06,-168.5 67.83,-84.24 126.59,-177.57 176.27,-280.82 49.25,-103.26 85.98,-203.06 109.74,-298.54 23.76,-95.92 37.59,-171.09 41.91,-225.96 85.54,-3.46 177.57,-20.74 276.07,-51.84l21.6 25.49c-43.2,130.9 -92.45,298.97 -148.62,504.62 -66.53,248.42 -99.8,405.25 -99.8,470.06 0,29.81 12.53,44.5 38.02,44.5 9.94,0 25.92,-6.05 47.96,-18.15 51.41,-29.81 98.5,-62.21 140.41,-98.07l25.49 72.15 -230.28 166.34c-63.51,41.9 -111.03,68.26 -143.43,80.36 -32.84,11.66 -60.06,17.71 -82.96,17.71 -25.49,0 -45.36,-9.07 -60.05,-27.22 -14.69,-18.15 -22.03,-44.5 -22.03,-79.06 0,-42.34 14.69,-118.38 44.06,-228.98l74.75 -276.94c-103.26,185.34 -234.6,343.04 -393.59,473.08 -114.06,92.89 -207.81,139.12 -280.83,139.12 -37.15,0 -66.1,-12.53 -87.27,-37.16 -21.17,-25.05 -31.54,-64.8 -31.54,-119.67 0,-29.38 3.03,-58.33 8.64,-87.27 6.92,-38.02 25.06,-109.31 54.44,-214.73l36.72 -135.23c57.46,-206.51 85.98,-335.26 85.98,-385.81 0,-16.85 -3.46,-29.81 -9.94,-38.45 -6.91,-9.07 -15.55,-13.39 -26.78,-13.39 -25.06,0 -89.44,33.7 -192.26,100.66z"/>
   <path id="_8" class="fil2" d="M30685.9 24424.08l-28.09 -28.95c46.66,-150.78 89.44,-306.75 128.32,-469.19 20.3,-84.25 38.88,-182.32 55.73,-293.79 10.8,-75.18 16.42,-131.77 16.42,-169.79 0,-22.9 -2.59,-38.45 -7.78,-47.09 -5.18,-8.21 -11.66,-12.53 -20.3,-12.53 -12.53,0 -31.97,7.34 -58.33,21.6 -42.77,24.19 -88.57,56.16 -136.52,97.21l-30.25 -69.56c245.4,-195.28 404.39,-292.92 476.98,-292.92 21.17,0 38.45,8.2 52.71,24.62 13.82,16.42 20.73,39.32 20.73,69.13 0,46.23 -30.67,190.1 -92.45,431.61l-16.42 67.39 16.42 0c62.64,-144.3 127.02,-266.13 193.55,-365.5 66.1,-99.37 123.56,-163.74 171.52,-194.42 35.43,-22.03 77.77,-32.83 127.02,-32.83 23.33,0 46.66,3.88 69.56,11.23 -33.7,110.17 -52.71,226.82 -57.03,349.52l-28.95 17.71c-41.47,-36.29 -86.41,-54.43 -134.79,-54.43 -77.34,0 -146.9,50.98 -209.54,153.37 -108.45,174.98 -185.35,420.81 -229.85,737.06 -108.01,12.53 -200.9,29.38 -278.66,50.55z"/>
   <path id="_9" class="fil2" d="M32918.33 24083.63l27.65 69.56 -215.16 136.52c-89.43,50.12 -165.04,84.68 -227.25,104.56 -61.78,19.87 -118.38,29.81 -168.93,29.81 -102.82,0 -182.32,-27.22 -238.48,-81.22 -56.17,-54.01 -84.25,-131.34 -84.25,-232.87 0,-117.95 25.06,-255.77 74.74,-412.6 35.43,-111.47 83.38,-199.6 143.44,-264.84 60.48,-64.81 163.31,-135.23 308.47,-209.97 81.66,-42.34 164.18,-63.51 248,-63.51 76.47,0 136.95,19.01 181.02,57.46 43.64,38.45 65.67,89 65.67,151.64 0,76.04 -21.6,146.03 -65.24,210.84 -43.2,64.37 -120.54,123.56 -232,177.14 -111.47,53.57 -248.86,93.32 -412.17,119.67 -17.71,60.92 -26.79,118.38 -26.79,172.82 0,67.39 17.29,117.94 51.42,151.64 34.13,33.27 82.52,50.12 146.03,50.12 47.95,0 109.73,-13.83 185.34,-41.91 75.18,-28.08 154.67,-69.56 238.49,-124.86zm-584.55 -277.37c130.91,-35.43 222.07,-69.99 273.48,-102.82 51.41,-32.84 94.18,-79.93 128.31,-140.42 34.14,-60.48 51.42,-114.06 51.42,-161.58 0,-36.29 -11.24,-65.67 -33.7,-87.7 -22.04,-22.04 -52.28,-32.84 -90.3,-32.84 -41.47,0 -81.22,13.39 -119.24,40.61 -38.02,27.22 -73.02,74.75 -104.99,142.58 -31.97,68.26 -66.96,182.32 -104.98,342.17z"/>
   <g>
    <path class="fil2" d="M23499.6 21576.16c82.95,4.32 163.74,6.49 242.38,6.49 159.42,0 283.85,-4.33 373.71,-12.53 62.65,-6.92 127.46,-19.01 194.42,-36.73l76.04 -298.11 80.36 0c-21.17,159.86 -37.58,309.35 -49.25,448.46 -76.04,12.1 -179.73,17.72 -311.5,17.72l-603.14 -9.94c-81.22,0 -207.38,4.32 -378.9,12.96l0 -67.4c67.4,-29.38 107.15,-60.92 119.25,-94.61 12.09,-33.7 18.14,-167.21 18.14,-400.51l0 -695.16c0,-252.74 -6.05,-393.59 -18.14,-422.54 -12.53,-28.94 -46.66,-43.63 -103.26,-43.63l-137.82 0 0 -80.36c200.9,5.18 333.97,7.78 400.07,7.78 87.7,0 206.52,-2.6 356.87,-7.78l0 80.36 -156.84 0c-44.5,0 -73.01,12.96 -84.68,38.45 -11.66,25.92 -17.71,132.64 -17.71,320.58l0 805.33 3.89 356.86 -3.89 74.31z"/>
    <path id="_1_3" class="fil2" d="M25237.74 21087.52c4.32,166.34 46.66,292.5 127.89,378.91 80.79,85.97 187.07,129.18 318.41,129.18 58.76,0 117.52,-9.94 175.41,-29.38 58.33,-19.44 116.22,-48.82 173.25,-88.14l21.61 19.01 -40.62 106.28c-69.99,40.62 -142.14,70.86 -216.02,91.16 -74.31,20.31 -150.78,30.68 -228.98,30.68 -171.52,0 -309.34,-54.44 -414.33,-162.88 -104.99,-108.44 -157.7,-255.34 -157.7,-441.12 0,-141.71 29.38,-264.41 88.57,-368.1 38.89,-68.69 110.61,-131.77 215.16,-190.1 104.12,-58.32 206.08,-87.27 304.59,-87.27 149.06,0 267.44,44.07 354.71,131.77 87.27,88.14 130.91,210.84 130.91,368.97l-2.6 74.74c-55.73,13.4 -108.44,22.04 -158.99,26.36 -90.29,6.48 -215.59,9.93 -375.44,9.93l-315.83 0zm2.6 -93.32c130.9,5.19 275.21,7.78 433.34,7.78 63.07,0 124.42,-3.03 183.61,-9.07l0 -70.86c0,-74.31 -14.69,-144.73 -44.5,-211.27 -18.57,-41.47 -50.98,-75.61 -97.21,-103.26 -46.66,-27.22 -100.23,-41.04 -161.15,-41.04 -94.62,0 -170.22,34.56 -226.82,104.12 -56.6,69.13 -85.55,177.14 -87.27,323.6z"/>
    <path id="_2_4" class="fil2" d="M26750.79 20819.66l1.29 -85.12 -1.29 -87.7 138.25 -78.2c62.22,-35 117.09,-59.19 163.75,-72.58 47.09,-13.4 96.77,-20.31 149.92,-20.31 116.65,0 210.4,25.92 282.12,78.2 71.29,52.28 114.06,119.24 128.32,200.04 9.93,60.48 16.41,211.27 19.01,451.48 1.72,226.82 6.91,351.68 15.12,375.45 8.21,23.76 29.38,35.42 63.08,35.42l98.07 0 0 82.96c-96.35,-5.19 -163.31,-7.78 -201.33,-7.78 -47.53,0 -110.61,2.59 -190.1,7.78l1.3 -112.33c0,-35.86 -0.44,-72.59 -1.3,-109.74l-262.25 200.03c-23.33,17.72 -46.66,30.25 -69.56,37.16 -22.47,7.34 -54.44,10.8 -94.62,10.8 -108.87,0 -192.26,-26.79 -249.72,-80.36 -57.46,-53.57 -85.98,-125.73 -85.98,-216.02 0,-85.11 20.31,-159.86 61.35,-223.8 41.05,-63.51 99.37,-110.6 174.98,-140.85 75.18,-30.67 250.59,-70.42 525.8,-119.24 -1.73,-106.72 -25.49,-186.64 -70.86,-239.78 -57.46,-66.54 -139.11,-99.81 -245.4,-99.81 -40.61,0 -78.63,4.76 -114.06,14.69 -35.42,9.94 -68.26,25.06 -98.93,44.94 -24.2,60.48 -46.66,118.37 -66.97,173.68l-69.99 -19.01zm666.21 200.46c-234.6,50.55 -383.66,98.08 -446.73,142.58 -63.51,44.07 -95.05,112.76 -95.05,205.65 0,62.65 18.14,112.76 54.43,150.35 36.3,37.59 82.96,56.17 140.42,56.17 63.51,0 123.99,-17.72 181.89,-53.14 57.46,-35.43 112.76,-88.14 165.04,-158.56l-2.59 -280.83 2.59 -62.22z"/>
    <path id="_3_5" class="fil2" d="M28748.59 20763.06c33.7,-31.97 70.42,-74.31 110.17,-126.59 47.09,-61.35 91.16,-103.69 131.77,-126.59 40.61,-22.9 82.95,-34.13 127.89,-34.13 46.23,0 81.65,5.62 106.28,16.42 11.67,5.18 17.71,12.96 17.71,23.76l-1.29 12.96c-13.83,68.26 -21.6,163.75 -23.33,286.45l-57.03 0c-19.44,-42.78 -41.91,-72.59 -68.27,-90.3 -26.35,-17.71 -58.32,-26.36 -95.04,-26.36 -49.26,0 -95.05,16.85 -137.39,50.55 -42.34,33.7 -70.86,80.8 -85.12,141.71 -14.25,60.49 -21.17,179.73 -21.17,357.74 0,117.08 4.76,215.59 13.83,295.95 3.45,29.37 12.1,47.95 25.49,55.3 31.97,17.71 79.06,26.78 141.28,26.78l76.04 0 0 72.59c-129.18,-5.19 -251.45,-7.78 -367.24,-7.78 -111.9,0 -222.93,2.59 -332.67,7.78l0 -72.59 120.97 -9.93c42.77,-3.46 69.99,-11.67 81.65,-24.2 11.24,-12.53 18.58,-53.57 22.04,-122.7 5.62,-121.83 8.64,-266.14 8.64,-433.34 0,-203.06 -7.78,-322.73 -23.76,-358.16 -11.24,-22.9 -45.8,-34.13 -103.69,-34.13l-105.85 0 0 -72.59c82.08,-9.07 155.1,-21.17 219.04,-35.86 64.38,-14.69 121.41,-33.7 171.09,-56.59 11.67,-5.62 21.6,-8.64 28.95,-8.64 9.5,0 15.55,2.59 19.01,7.77 3.45,4.75 5.18,16.42 5.18,34.13l-5.18 250.59z"/>
    <path id="_4_6" class="fil2" d="M30155.35 20718.56l190.96 -170.23c22.47,-20.3 46.66,-35.42 71.72,-44.5 55.74,-18.57 111.47,-28.08 166.77,-28.08 90.3,0 168.07,18.15 233.74,54.87 65.67,36.72 112.76,84.68 141.71,143.44 28.51,58.32 42.77,150.35 42.77,275.21l-5.19 398.78c0,137.82 6.05,216.88 17.72,238.05 15.98,27.22 47.09,40.61 93.32,40.61l91.16 0 0 72.59c-90.3,-5.19 -168.5,-7.78 -234.17,-7.78 -64.37,0 -133.07,2.59 -206.51,7.78 15.55,-164.18 23.33,-386.25 23.33,-666.21 0,-112.77 -9.94,-192.7 -29.38,-239.79 -19.88,-47.09 -53.14,-85.11 -99.8,-114.06 -46.66,-28.51 -102.4,-42.77 -168.07,-42.77 -81.22,0 -150.35,20.74 -206.95,61.78 -57.03,41.48 -92.02,86.84 -105.42,136.96 -8.21,32.84 -12.53,118.81 -12.53,257.93 0,154.24 1.3,297.68 3.89,429.88 0.87,39.75 6.92,64.38 17.72,74.75 21.6,19.44 56.59,28.94 105.42,28.94l90.72 0 0 72.59c-143.87,-5.19 -257.93,-7.78 -343.04,-7.78 -90.3,0 -192.69,2.59 -307.61,7.78l0 -72.59 91.59 0c63.08,0 99.8,-14.69 110.17,-43.63 10.8,-28.95 15.99,-203.93 15.99,-524.5 0,-143.87 -1.73,-256.64 -5.19,-338.29 -1.73,-27.22 -8.21,-45.8 -20.3,-55.74 -11.67,-9.93 -45.37,-15.12 -100.67,-15.12l-91.59 0 0 -72.58c72.58,-8.64 137.82,-19.88 195.28,-34.57 57.89,-14.68 122.27,-36.72 194.42,-66.53 7.78,-3.46 14.69,-5.18 21.6,-5.18 13.4,0 20.31,9.5 20.31,28.94l-1.3 48.39 -2.59 170.66z"/>
    <path id="_5_7" class="fil2" d="M31988.11 19913.23c38.46,0 72.16,13.83 99.81,41.91 28.08,28.08 41.9,61.78 41.9,101.1 0,39.74 -13.82,73.01 -41.9,100.66 -27.65,27.65 -61.35,41.48 -99.81,41.48 -39.74,0 -73.88,-13.83 -101.53,-41.48 -28.08,-27.65 -41.9,-60.92 -41.9,-100.66 0,-39.32 13.82,-73.02 41.9,-101.1 27.65,-28.08 61.79,-41.91 101.53,-41.91zm98.51 557.34l30.24 19.01c-5.18,63.51 -8.64,133.06 -10.37,209.1 -5.18,246.27 -7.77,428.16 -7.77,545.68 0,109.73 3.89,203.49 11.23,281.26 3.46,30.24 11.67,51.41 24.19,63.07 12.53,11.67 43.21,20.74 91.17,26.79l85.97 11.23 0 72.59c-123.56,-5.19 -236.33,-7.78 -337.86,-7.78 -99.8,0 -200.9,2.59 -302.43,7.78l0 -72.59 109.31 -11.23c42.77,-3.46 68.7,-11.23 78.63,-23.76 9.51,-12.1 15.56,-53.14 18.15,-122.27 4.32,-107.58 6.48,-255.77 6.48,-444.14 0,-131.34 -2.16,-232.44 -6.48,-303.73 -1.73,-25.92 -9.07,-44.5 -22.04,-55.73 -13.39,-10.8 -42.77,-16.42 -88.56,-16.42l-95.49 0 0 -72.58c102.83,-15.12 178.87,-28.95 227.26,-41.91 48.82,-12.53 111.47,-34.13 188.37,-64.37z"/>
    <path id="_6_8" class="fil2" d="M33225.52 20718.56l190.96 -170.23c22.47,-20.3 46.66,-35.42 71.72,-44.5 55.74,-18.57 111.47,-28.08 166.77,-28.08 90.3,0 168.07,18.15 233.74,54.87 65.67,36.72 112.76,84.68 141.71,143.44 28.51,58.32 42.77,150.35 42.77,275.21l-5.19 398.78c0,137.82 6.05,216.88 17.72,238.05 15.98,27.22 47.09,40.61 93.32,40.61l91.16 0 0 72.59c-90.3,-5.19 -168.5,-7.78 -234.17,-7.78 -64.37,0 -133.07,2.59 -206.51,7.78 15.55,-164.18 23.33,-386.25 23.33,-666.21 0,-112.77 -9.94,-192.7 -29.38,-239.79 -19.88,-47.09 -53.14,-85.11 -99.8,-114.06 -46.66,-28.51 -102.4,-42.77 -168.07,-42.77 -81.22,0 -150.35,20.74 -206.95,61.78 -57.03,41.48 -92.02,86.84 -105.42,136.96 -8.21,32.84 -12.53,118.81 -12.53,257.93 0,154.24 1.3,297.68 3.89,429.88 0.87,39.75 6.92,64.38 17.72,74.75 21.6,19.44 56.59,28.94 105.42,28.94l90.72 0 0 72.59c-143.87,-5.19 -257.93,-7.78 -343.04,-7.78 -90.3,0 -192.69,2.59 -307.61,7.78l0 -72.59 91.59 0c63.08,0 99.8,-14.69 110.17,-43.63 10.8,-28.95 15.99,-203.93 15.99,-524.5 0,-143.87 -1.73,-256.64 -5.19,-338.29 -1.73,-27.22 -8.21,-45.8 -20.3,-55.74 -11.67,-9.93 -45.37,-15.12 -100.67,-15.12l-91.59 0 0 -72.58c72.58,-8.64 137.82,-19.88 195.28,-34.57 57.89,-14.68 122.27,-36.72 194.42,-66.53 7.78,-3.46 14.69,-5.18 21.6,-5.18 13.4,0 20.31,9.5 20.31,28.94l-1.3 48.39 -2.59 170.66z"/>
    <path id="_7_9" class="fil2" d="M35811.34 20709.05c19.44,54.44 28.94,98.94 28.94,133.94 0,75.17 -22.9,148.19 -68.26,218.18 -45.8,69.99 -110.6,126.59 -194.85,169.36 -84.68,42.77 -175.41,64.37 -273.49,64.37l-59.62 0c-55.3,41.05 -90.29,71.72 -104.98,91.6 -14.69,20.3 -22.04,40.18 -22.04,59.19 0,31.97 16.42,57.03 49.25,75.6 32.84,18.58 100.24,27.66 201.34,27.66 38.88,0 94.61,-1.3 167.2,-3.89 103.69,-4.32 178.86,-6.48 225.52,-6.48 66.54,0 117.52,10.8 152.95,32.4 35.43,21.17 66.1,58.76 91.16,112.33 25.49,53.57 38.02,114.06 38.02,181.46 0,94.62 -28.52,184.91 -85.98,271.32 -57.46,86.41 -141.28,155.97 -250.58,208.25 -109.74,52.27 -236.33,78.2 -378.91,78.2 -173.68,0 -307.61,-37.59 -401.36,-113.2 -93.76,-75.61 -140.42,-168.93 -140.42,-279.53 0,-68.26 24.63,-137.82 73.45,-207.81 87.7,-41.48 161.15,-82.96 221.21,-125.3 -69.13,-22.46 -113.2,-43.2 -133.07,-62.21 -19.45,-18.58 -29.38,-42.77 -29.38,-72.15 0,-35 9.5,-69.99 28.94,-104.12 10.81,-21.17 38.89,-46.66 83.39,-76.48l122.27 -86.84c-101.1,-25.49 -174.12,-61.35 -218.62,-107.57 -59.19,-62.65 -88.57,-142.58 -88.57,-239.79 0,-85.54 22.04,-163.31 65.68,-233.3 44.06,-70.43 108.44,-125.73 193.55,-166.34 108.88,-51.41 213.86,-77.33 314.96,-77.33 64.37,0 120.54,8.2 168.93,24.62 48.82,16.42 98.07,44.5 148.62,84.25l106.28 0c109.74,0 194.86,-3.46 255.77,-10.37l13.83 26.36c-25.49,36.29 -47.96,74.31 -67.4,113.62l-233.73 0zm-191.4 204.36c0,-105.85 -27.22,-190.96 -81.22,-255.34 -54.01,-64.37 -121.84,-96.78 -203.93,-96.78 -80.79,0 -146.03,26.36 -195.28,78.64 -49.69,52.71 -74.31,125.72 -74.31,218.61 0,112.76 26.78,201.33 80.36,265.28 53.57,63.94 120.97,95.91 202.19,95.91 80.8,0 146.47,-26.79 197.01,-80.79 50.12,-53.58 75.18,-128.75 75.18,-225.53zm-345.2 804.03c-60.06,0 -101.1,6.92 -122.7,20.31 -70.86,45.36 -114.06,82.09 -129.18,110.17 -25.49,44.07 -38.02,99.37 -38.02,165.9 0,92.03 34.13,168.07 102.39,228.12 68.26,60.06 163.31,89.87 284.72,89.87 93.75,0 175.84,-17.28 247.13,-51.85 70.85,-34.56 125.72,-82.09 165.04,-142.57 39.31,-60.49 58.75,-122.7 58.75,-187.08 0,-54.87 -13.82,-102.82 -41.04,-144.3 -27.65,-41.47 -60.05,-67.83 -98.07,-79.49 -19.45,-6.05 -63.95,-9.08 -133.07,-9.08l-295.95 0z"/>
    <path id="_8_10" class="fil3 str0" d="M23499.6 21576.16c82.95,4.32 163.74,6.49 242.38,6.49 159.42,0 283.85,-4.33 373.71,-12.53 62.65,-6.92 127.46,-19.01 194.42,-36.73l76.04 -298.11 80.36 0c-21.17,159.86 -37.58,309.35 -49.25,448.46 -76.04,12.1 -179.73,17.72 -311.5,17.72l-603.14 -9.94c-81.22,0 -207.38,4.32 -378.9,12.96l0 -67.4c67.4,-29.38 107.15,-60.92 119.25,-94.61 12.09,-33.7 18.14,-167.21 18.14,-400.51l0 -695.16c0,-252.74 -6.05,-393.59 -18.14,-422.54 -12.53,-28.94 -46.66,-43.63 -103.26,-43.63l-137.82 0 0 -80.36c200.9,5.18 333.97,7.78 400.07,7.78 87.7,0 206.52,-2.6 356.87,-7.78l0 80.36 -156.84 0c-44.5,0 -73.01,12.96 -84.68,38.45 -11.66,25.92 -17.71,132.64 -17.71,320.58l0 805.33 3.89 356.86 -3.89 74.31z"/>
    <path id="_9_11" class="fil3 str0" d="M25237.74 21087.52c4.32,166.34 46.66,292.5 127.89,378.91 80.79,85.97 187.07,129.18 318.41,129.18 58.76,0 117.52,-9.94 175.41,-29.38 58.33,-19.44 116.22,-48.82 173.25,-88.14l21.61 19.01 -40.62 106.28c-69.99,40.62 -142.14,70.86 -216.02,91.16 -74.31,20.31 -150.78,30.68 -228.98,30.68 -171.52,0 -309.34,-54.44 -414.33,-162.88 -104.99,-108.44 -157.7,-255.34 -157.7,-441.12 0,-141.71 29.38,-264.41 88.57,-368.1 38.89,-68.69 110.61,-131.77 215.16,-190.1 104.12,-58.32 206.08,-87.27 304.59,-87.27 149.06,0 267.44,44.07 354.71,131.77 87.27,88.14 130.91,210.84 130.91,368.97l-2.6 74.74c-55.73,13.4 -108.44,22.04 -158.99,26.36 -90.29,6.48 -215.59,9.93 -375.44,9.93l-315.83 0zm2.6 -93.32c130.9,5.19 275.21,7.78 433.34,7.78 63.07,0 124.42,-3.03 183.61,-9.07l0 -70.86c0,-74.31 -14.69,-144.73 -44.5,-211.27 -18.57,-41.47 -50.98,-75.61 -97.21,-103.26 -46.66,-27.22 -100.23,-41.04 -161.15,-41.04 -94.62,0 -170.22,34.56 -226.82,104.12 -56.6,69.13 -85.55,177.14 -87.27,323.6z"/>
    <path id="_10" class="fil3 str0" d="M26750.79 20819.66l1.29 -85.12 -1.29 -87.7 138.25 -78.2c62.22,-35 117.09,-59.19 163.75,-72.58 47.09,-13.4 96.77,-20.31 149.92,-20.31 116.65,0 210.4,25.92 282.12,78.2 71.29,52.28 114.06,119.24 128.32,200.04 9.93,60.48 16.41,211.27 19.01,451.48 1.72,226.82 6.91,351.68 15.12,375.45 8.21,23.76 29.38,35.42 63.08,35.42l98.07 0 0 82.96c-96.35,-5.19 -163.31,-7.78 -201.33,-7.78 -47.53,0 -110.61,2.59 -190.1,7.78l1.3 -112.33c0,-35.86 -0.44,-72.59 -1.3,-109.74l-262.25 200.03c-23.33,17.72 -46.66,30.25 -69.56,37.16 -22.47,7.34 -54.44,10.8 -94.62,10.8 -108.87,0 -192.26,-26.79 -249.72,-80.36 -57.46,-53.57 -85.98,-125.73 -85.98,-216.02 0,-85.11 20.31,-159.86 61.35,-223.8 41.05,-63.51 99.37,-110.6 174.98,-140.85 75.18,-30.67 250.59,-70.42 525.8,-119.24 -1.73,-106.72 -25.49,-186.64 -70.86,-239.78 -57.46,-66.54 -139.11,-99.81 -245.4,-99.81 -40.61,0 -78.63,4.76 -114.06,14.69 -35.42,9.94 -68.26,25.06 -98.93,44.94 -24.2,60.48 -46.66,118.37 -66.97,173.68l-69.99 -19.01zm666.21 200.46c-234.6,50.55 -383.66,98.08 -446.73,142.58 -63.51,44.07 -95.05,112.76 -95.05,205.65 0,62.65 18.14,112.76 54.43,150.35 36.3,37.59 82.96,56.17 140.42,56.17 63.51,0 123.99,-17.72 181.89,-53.14 57.46,-35.43 112.76,-88.14 165.04,-158.56l-2.59 -280.83 2.59 -62.22z"/>
    <path id="_11" class="fil3 str0" d="M28748.59 20763.06c33.7,-31.97 70.42,-74.31 110.17,-126.59 47.09,-61.35 91.16,-103.69 131.77,-126.59 40.61,-22.9 82.95,-34.13 127.89,-34.13 46.23,0 81.65,5.62 106.28,16.42 11.67,5.18 17.71,12.96 17.71,23.76l-1.29 12.96c-13.83,68.26 -21.6,163.75 -23.33,286.45l-57.03 0c-19.44,-42.78 -41.91,-72.59 -68.27,-90.3 -26.35,-17.71 -58.32,-26.36 -95.04,-26.36 -49.26,0 -95.05,16.85 -137.39,50.55 -42.34,33.7 -70.86,80.8 -85.12,141.71 -14.25,60.49 -21.17,179.73 -21.17,357.74 0,117.08 4.76,215.59 13.83,295.95 3.45,29.37 12.1,47.95 25.49,55.3 31.97,17.71 79.06,26.78 141.28,26.78l76.04 0 0 72.59c-129.18,-5.19 -251.45,-7.78 -367.24,-7.78 -111.9,0 -222.93,2.59 -332.67,7.78l0 -72.59 120.97 -9.93c42.77,-3.46 69.99,-11.67 81.65,-24.2 11.24,-12.53 18.58,-53.57 22.04,-122.7 5.62,-121.83 8.64,-266.14 8.64,-433.34 0,-203.06 -7.78,-322.73 -23.76,-358.16 -11.24,-22.9 -45.8,-34.13 -103.69,-34.13l-105.85 0 0 -72.59c82.08,-9.07 155.1,-21.17 219.04,-35.86 64.38,-14.69 121.41,-33.7 171.09,-56.59 11.67,-5.62 21.6,-8.64 28.95,-8.64 9.5,0 15.55,2.59 19.01,7.77 3.45,4.75 5.18,16.42 5.18,34.13l-5.18 250.59z"/>
    <path id="_12" class="fil3 str0" d="M30155.35 20718.56l190.96 -170.23c22.47,-20.3 46.66,-35.42 71.72,-44.5 55.74,-18.57 111.47,-28.08 166.77,-28.08 90.3,0 168.07,18.15 233.74,54.87 65.67,36.72 112.76,84.68 141.71,143.44 28.51,58.32 42.77,150.35 42.77,275.21l-5.19 398.78c0,137.82 6.05,216.88 17.72,238.05 15.98,27.22 47.09,40.61 93.32,40.61l91.16 0 0 72.59c-90.3,-5.19 -168.5,-7.78 -234.17,-7.78 -64.37,0 -133.07,2.59 -206.51,7.78 15.55,-164.18 23.33,-386.25 23.33,-666.21 0,-112.77 -9.94,-192.7 -29.38,-239.79 -19.88,-47.09 -53.14,-85.11 -99.8,-114.06 -46.66,-28.51 -102.4,-42.77 -168.07,-42.77 -81.22,0 -150.35,20.74 -206.95,61.78 -57.03,41.48 -92.02,86.84 -105.42,136.96 -8.21,32.84 -12.53,118.81 -12.53,257.93 0,154.24 1.3,297.68 3.89,429.88 0.87,39.75 6.92,64.38 17.72,74.75 21.6,19.44 56.59,28.94 105.42,28.94l90.72 0 0 72.59c-143.87,-5.19 -257.93,-7.78 -343.04,-7.78 -90.3,0 -192.69,2.59 -307.61,7.78l0 -72.59 91.59 0c63.08,0 99.8,-14.69 110.17,-43.63 10.8,-28.95 15.99,-203.93 15.99,-524.5 0,-143.87 -1.73,-256.64 -5.19,-338.29 -1.73,-27.22 -8.21,-45.8 -20.3,-55.74 -11.67,-9.93 -45.37,-15.12 -100.67,-15.12l-91.59 0 0 -72.58c72.58,-8.64 137.82,-19.88 195.28,-34.57 57.89,-14.68 122.27,-36.72 194.42,-66.53 7.78,-3.46 14.69,-5.18 21.6,-5.18 13.4,0 20.31,9.5 20.31,28.94l-1.3 48.39 -2.59 170.66z"/>
    <path id="_13" class="fil3 str0" d="M31988.11 19913.23c38.46,0 72.16,13.83 99.81,41.91 28.08,28.08 41.9,61.78 41.9,101.1 0,39.74 -13.82,73.01 -41.9,100.66 -27.65,27.65 -61.35,41.48 -99.81,41.48 -39.74,0 -73.88,-13.83 -101.53,-41.48 -28.08,-27.65 -41.9,-60.92 -41.9,-100.66 0,-39.32 13.82,-73.02 41.9,-101.1 27.65,-28.08 61.79,-41.91 101.53,-41.91zm98.51 557.34l30.24 19.01c-5.18,63.51 -8.64,133.06 -10.37,209.1 -5.18,246.27 -7.77,428.16 -7.77,545.68 0,109.73 3.89,203.49 11.23,281.26 3.46,30.24 11.67,51.41 24.19,63.07 12.53,11.67 43.21,20.74 91.17,26.79l85.97 11.23 0 72.59c-123.56,-5.19 -236.33,-7.78 -337.86,-7.78 -99.8,0 -200.9,2.59 -302.43,7.78l0 -72.59 109.31 -11.23c42.77,-3.46 68.7,-11.23 78.63,-23.76 9.51,-12.1 15.56,-53.14 18.15,-122.27 4.32,-107.58 6.48,-255.77 6.48,-444.14 0,-131.34 -2.16,-232.44 -6.48,-303.73 -1.73,-25.92 -9.07,-44.5 -22.04,-55.73 -13.39,-10.8 -42.77,-16.42 -88.56,-16.42l-95.49 0 0 -72.58c102.83,-15.12 178.87,-28.95 227.26,-41.91 48.82,-12.53 111.47,-34.13 188.37,-64.37z"/>
    <path id="_14" class="fil3 str0" d="M33225.52 20718.56l190.96 -170.23c22.47,-20.3 46.66,-35.42 71.72,-44.5 55.74,-18.57 111.47,-28.08 166.77,-28.08 90.3,0 168.07,18.15 233.74,54.87 65.67,36.72 112.76,84.68 141.71,143.44 28.51,58.32 42.77,150.35 42.77,275.21l-5.19 398.78c0,137.82 6.05,216.88 17.72,238.05 15.98,27.22 47.09,40.61 93.32,40.61l91.16 0 0 72.59c-90.3,-5.19 -168.5,-7.78 -234.17,-7.78 -64.37,0 -133.07,2.59 -206.51,7.78 15.55,-164.18 23.33,-386.25 23.33,-666.21 0,-112.77 -9.94,-192.7 -29.38,-239.79 -19.88,-47.09 -53.14,-85.11 -99.8,-114.06 -46.66,-28.51 -102.4,-42.77 -168.07,-42.77 -81.22,0 -150.35,20.74 -206.95,61.78 -57.03,41.48 -92.02,86.84 -105.42,136.96 -8.21,32.84 -12.53,118.81 -12.53,257.93 0,154.24 1.3,297.68 3.89,429.88 0.87,39.75 6.92,64.38 17.72,74.75 21.6,19.44 56.59,28.94 105.42,28.94l90.72 0 0 72.59c-143.87,-5.19 -257.93,-7.78 -343.04,-7.78 -90.3,0 -192.69,2.59 -307.61,7.78l0 -72.59 91.59 0c63.08,0 99.8,-14.69 110.17,-43.63 10.8,-28.95 15.99,-203.93 15.99,-524.5 0,-143.87 -1.73,-256.64 -5.19,-338.29 -1.73,-27.22 -8.21,-45.8 -20.3,-55.74 -11.67,-9.93 -45.37,-15.12 -100.67,-15.12l-91.59 0 0 -72.58c72.58,-8.64 137.82,-19.88 195.28,-34.57 57.89,-14.68 122.27,-36.72 194.42,-66.53 7.78,-3.46 14.69,-5.18 21.6,-5.18 13.4,0 20.31,9.5 20.31,28.94l-1.3 48.39 -2.59 170.66z"/>
    <path id="_15" class="fil3 str0" d="M35811.34 20709.05c19.44,54.44 28.94,98.94 28.94,133.94 0,75.17 -22.9,148.19 -68.26,218.18 -45.8,69.99 -110.6,126.59 -194.85,169.36 -84.68,42.77 -175.41,64.37 -273.49,64.37l-59.62 0c-55.3,41.05 -90.29,71.72 -104.98,91.6 -14.69,20.3 -22.04,40.18 -22.04,59.19 0,31.97 16.42,57.03 49.25,75.6 32.84,18.58 100.24,27.66 201.34,27.66 38.88,0 94.61,-1.3 167.2,-3.89 103.69,-4.32 178.86,-6.48 225.52,-6.48 66.54,0 117.52,10.8 152.95,32.4 35.43,21.17 66.1,58.76 91.16,112.33 25.49,53.57 38.02,114.06 38.02,181.46 0,94.62 -28.52,184.91 -85.98,271.32 -57.46,86.41 -141.28,155.97 -250.58,208.25 -109.74,52.27 -236.33,78.2 -378.91,78.2 -173.68,0 -307.61,-37.59 -401.36,-113.2 -93.76,-75.61 -140.42,-168.93 -140.42,-279.53 0,-68.26 24.63,-137.82 73.45,-207.81 87.7,-41.48 161.15,-82.96 221.21,-125.3 -69.13,-22.46 -113.2,-43.2 -133.07,-62.21 -19.45,-18.58 -29.38,-42.77 -29.38,-72.15 0,-35 9.5,-69.99 28.94,-104.12 10.81,-21.17 38.89,-46.66 83.39,-76.48l122.27 -86.84c-101.1,-25.49 -174.12,-61.35 -218.62,-107.57 -59.19,-62.65 -88.57,-142.58 -88.57,-239.79 0,-85.54 22.04,-163.31 65.68,-233.3 44.06,-70.43 108.44,-125.73 193.55,-166.34 108.88,-51.41 213.86,-77.33 314.96,-77.33 64.37,0 120.54,8.2 168.93,24.62 48.82,16.42 98.07,44.5 148.62,84.25l106.28 0c109.74,0 194.86,-3.46 255.77,-10.37l13.83 26.36c-25.49,36.29 -47.96,74.31 -67.4,113.62l-233.73 0zm-191.4 204.36c0,-105.85 -27.22,-190.96 -81.22,-255.34 -54.01,-64.37 -121.84,-96.78 -203.93,-96.78 -80.79,0 -146.03,26.36 -195.28,78.64 -49.69,52.71 -74.31,125.72 -74.31,218.61 0,112.76 26.78,201.33 80.36,265.28 53.57,63.94 120.97,95.91 202.19,95.91 80.8,0 146.47,-26.79 197.01,-80.79 50.12,-53.58 75.18,-128.75 75.18,-225.53zm-345.2 804.03c-60.06,0 -101.1,6.92 -122.7,20.31 -70.86,45.36 -114.06,82.09 -129.18,110.17 -25.49,44.07 -38.02,99.37 -38.02,165.9 0,92.03 34.13,168.07 102.39,228.12 68.26,60.06 163.31,89.87 284.72,89.87 93.75,0 175.84,-17.28 247.13,-51.85 70.85,-34.56 125.72,-82.09 165.04,-142.57 39.31,-60.49 58.75,-122.7 58.75,-187.08 0,-54.87 -13.82,-102.82 -41.04,-144.3 -27.65,-41.47 -60.05,-67.83 -98.07,-79.49 -19.45,-6.05 -63.95,-9.08 -133.07,-9.08l-295.95 0z"/>
    <path class="fil2" d="M15466.62 21872.96l0 -215.16 233.3 0c12.53,-227.25 65.24,-465.31 158.13,-713.73 92.45,-248.43 193.55,-450.19 302,-605.73l-602.7 0 0 235.9 -220.35 0 0 -461.42 1099.12 0 0 178.86c-114.49,137.82 -222.93,346.5 -325.76,626.9 -102.39,279.96 -153.81,526.23 -153.81,739.22l204.79 0 0 215.16 -694.72 0z"/>
    <path id="_1_12" class="fil2" d="M18193.52 21657.8l0 215.16 -461.42 0 0 -179.3c-119.68,133.5 -265.71,200.04 -438.1,200.04 -159.42,0 -299.83,-54.44 -420.37,-163.31 -120.54,-108.88 -181.03,-263.98 -181.03,-464.88 0,-201.77 62.21,-361.19 186.21,-477.41 124,-116.65 263.98,-174.98 420.38,-174.98 165.47,0 309.77,65.67 432.91,197.45l0 -482.6 -235.9 0 0 -215.15 476.98 0 0 1544.98 220.34 0zm-1244.29 -399.21c0,134.8 38.02,238.49 114.49,311.08 76.48,72.58 168.07,108.87 274.35,108.87 103.26,0 194.42,-38.02 274.35,-114.49 79.93,-76.47 119.68,-181.89 119.68,-316.69 0,-136.09 -40.62,-238.49 -122.27,-307.61 -81.66,-69.13 -172.82,-103.69 -274.35,-103.69 -108.88,0 -200.47,40.61 -274.78,122.26 -74.31,81.23 -111.47,181.46 -111.47,300.27z"/>
    <path id="_2_13" class="fil2" d="M19533.56 21657.8l0 215.16 -422.54 0 0 -149.49c-116.22,113.63 -246.26,170.23 -389.7,170.23 -111.47,0 -208.24,-36.29 -290.33,-108.88 -82.52,-72.58 -123.57,-165.04 -123.57,-278.23 0,-113.63 43.64,-208.25 130.91,-282.99 87.71,-75.18 193.13,-112.76 316.26,-112.76 114.92,0 225.96,34.56 333.1,103.69l0 -121.84c0,-63.08 -6.04,-111.04 -17.71,-145.17 -12.1,-33.7 -39.75,-64.37 -83.38,-91.59 -43.21,-27.22 -100.24,-40.61 -170.66,-40.61 -120.97,0 -208.25,48.39 -262.68,145.16l-230.28 -60.91c102.39,-190.97 279.1,-286.45 530.11,-286.45 92.03,0 171.96,12.53 238.92,37.16 67.4,25.06 117.52,57.03 150.36,96.34 33.26,39.32 55.3,81.66 66.53,127.02 11.67,45.37 17.28,117.95 17.28,217.75l0 566.41 207.38 0zm-445.87 -238.92c-103.69,-80.79 -209.1,-121.4 -315.39,-121.4 -66.53,0 -122.27,19.44 -167.2,57.89 -44.5,38.89 -66.96,88.57 -66.96,149.92 0,57.46 19.44,104.99 58.75,143.87 39.32,38.45 92.89,57.9 160.29,57.9 116.65,0 226.82,-48.83 330.51,-146.04l0 -142.14z"/>
    <path id="_3_14" class="fil2" d="M20129.2 21851.79l-402.67 -989.81 -203.92 0 0 -215.16 606.59 0 0 215.16 -146.9 0 264.41 678.31 259.66 -678.31 -162.02 0 0 -215.16 593.63 0 0 215.16 -182.32 0 -606.16 1560.54 -406.55 0 0 -209.97 239.35 0 146.9 -360.76z"/>
    <path id="_4_15" class="fil2" d="M21057.07 21872.96l0 -419.95 215.16 0 0 40.62c7.78,57.46 38.45,104.98 92.89,142.14 54.44,37.15 118.81,55.73 193.12,55.73 77.77,0 139.55,-13.39 186.21,-40.61 46.23,-27.22 69.56,-64.81 69.56,-112.76 0,-46.66 -19.44,-80.8 -57.89,-102.83 -38.45,-22.03 -114.49,-42.34 -228.55,-60.92 -169.36,-28.51 -289.9,-74.74 -362.05,-138.25 -72.16,-63.94 -108.45,-146.46 -108.45,-247.99 0,-101.97 39.32,-187.51 117.52,-256.21 78.63,-68.69 181.89,-103.25 309.77,-103.25 115.79,0 215.16,23.76 298.55,71.28l0 -53.14 215.15 0 0 406.99 -215.15 0 0 -74.75c-64.81,-100.66 -159,-150.78 -282.99,-150.78 -63.08,0 -115.36,13.82 -155.97,41.04 -41.04,27.65 -61.35,63.95 -61.35,109.74 0,46.66 18.58,78.2 56.16,95.48 37.59,17.72 118.82,35.86 242.81,55.74 118.82,19.01 208.68,41.04 269.6,65.67 60.92,25.06 111.47,66.53 151.65,123.99 40.18,57.9 60.05,125.3 60.05,201.77 0,114.06 -43.64,204.36 -130.91,271.32 -87.27,66.97 -200.47,100.67 -339.59,100.67 -130.9,0 -237.62,-30.24 -320.14,-90.3l0 69.56 -215.16 0z"/>
    <path id="_5_16" class="fil3 str0" d="M15466.62 21872.96l0 -215.16 233.3 0c12.53,-227.25 65.24,-465.31 158.13,-713.73 92.45,-248.43 193.55,-450.19 302,-605.73l-602.7 0 0 235.9 -220.35 0 0 -461.42 1099.12 0 0 178.86c-114.49,137.82 -222.93,346.5 -325.76,626.9 -102.39,279.96 -153.81,526.23 -153.81,739.22l204.79 0 0 215.16 -694.72 0z"/>
    <path id="_6_17" class="fil3 str0" d="M18193.52 21657.8l0 215.16 -461.42 0 0 -179.3c-119.68,133.5 -265.71,200.04 -438.1,200.04 -159.42,0 -299.83,-54.44 -420.37,-163.31 -120.54,-108.88 -181.03,-263.98 -181.03,-464.88 0,-201.77 62.21,-361.19 186.21,-477.41 124,-116.65 263.98,-174.98 420.38,-174.98 165.47,0 309.77,65.67 432.91,197.45l0 -482.6 -235.9 0 0 -215.15 476.98 0 0 1544.98 220.34 0zm-1244.29 -399.21c0,134.8 38.02,238.49 114.49,311.08 76.48,72.58 168.07,108.87 274.35,108.87 103.26,0 194.42,-38.02 274.35,-114.49 79.93,-76.47 119.68,-181.89 119.68,-316.69 0,-136.09 -40.62,-238.49 -122.27,-307.61 -81.66,-69.13 -172.82,-103.69 -274.35,-103.69 -108.88,0 -200.47,40.61 -274.78,122.26 -74.31,81.23 -111.47,181.46 -111.47,300.27z"/>
    <path id="_7_18" class="fil3 str0" d="M19533.56 21657.8l0 215.16 -422.54 0 0 -149.49c-116.22,113.63 -246.26,170.23 -389.7,170.23 -111.47,0 -208.24,-36.29 -290.33,-108.88 -82.52,-72.58 -123.57,-165.04 -123.57,-278.23 0,-113.63 43.64,-208.25 130.91,-282.99 87.71,-75.18 193.13,-112.76 316.26,-112.76 114.92,0 225.96,34.56 333.1,103.69l0 -121.84c0,-63.08 -6.04,-111.04 -17.71,-145.17 -12.1,-33.7 -39.75,-64.37 -83.38,-91.59 -43.21,-27.22 -100.24,-40.61 -170.66,-40.61 -120.97,0 -208.25,48.39 -262.68,145.16l-230.28 -60.91c102.39,-190.97 279.1,-286.45 530.11,-286.45 92.03,0 171.96,12.53 238.92,37.16 67.4,25.06 117.52,57.03 150.36,96.34 33.26,39.32 55.3,81.66 66.53,127.02 11.67,45.37 17.28,117.95 17.28,217.75l0 566.41 207.38 0zm-445.87 -238.92c-103.69,-80.79 -209.1,-121.4 -315.39,-121.4 -66.53,0 -122.27,19.44 -167.2,57.89 -44.5,38.89 -66.96,88.57 -66.96,149.92 0,57.46 19.44,104.99 58.75,143.87 39.32,38.45 92.89,57.9 160.29,57.9 116.65,0 226.82,-48.83 330.51,-146.04l0 -142.14z"/>
    <path id="_8_19" class="fil3 str0" d="M20129.2 21851.79l-402.67 -989.81 -203.92 0 0 -215.16 606.59 0 0 215.16 -146.9 0 264.41 678.31 259.66 -678.31 -162.02 0 0 -215.16 593.63 0 0 215.16 -182.32 0 -606.16 1560.54 -406.55 0 0 -209.97 239.35 0 146.9 -360.76z"/>
    <path id="_9_20" class="fil3 str0" d="M21057.07 21872.96l0 -419.95 215.16 0 0 40.62c7.78,57.46 38.45,104.98 92.89,142.14 54.44,37.15 118.81,55.73 193.12,55.73 77.77,0 139.55,-13.39 186.21,-40.61 46.23,-27.22 69.56,-64.81 69.56,-112.76 0,-46.66 -19.44,-80.8 -57.89,-102.83 -38.45,-22.03 -114.49,-42.34 -228.55,-60.92 -169.36,-28.51 -289.9,-74.74 -362.05,-138.25 -72.16,-63.94 -108.45,-146.46 -108.45,-247.99 0,-101.97 39.32,-187.51 117.52,-256.21 78.63,-68.69 181.89,-103.25 309.77,-103.25 115.79,0 215.16,23.76 298.55,71.28l0 -53.14 215.15 0 0 406.99 -215.15 0 0 -74.75c-64.81,-100.66 -159,-150.78 -282.99,-150.78 -63.08,0 -115.36,13.82 -155.97,41.04 -41.04,27.65 -61.35,63.95 -61.35,109.74 0,46.66 18.58,78.2 56.16,95.48 37.59,17.72 118.82,35.86 242.81,55.74 118.82,19.01 208.68,41.04 269.6,65.67 60.92,25.06 111.47,66.53 151.65,123.99 40.18,57.9 60.05,125.3 60.05,201.77 0,114.06 -43.64,204.36 -130.91,271.32 -87.27,66.97 -200.47,100.67 -339.59,100.67 -130.9,0 -237.62,-30.24 -320.14,-90.3l0 69.56 -215.16 0z"/>
   </g>
  </g>
 </g>
</svg>
