<?xml version="1.0" encoding="UTF-8"?>
<!DOCTYPE svg PUBLIC "-//W3C//DTD SVG 1.0//EN" "http://www.w3.org/TR/2001/REC-SVG-20010904/DTD/svg10.dtd">
<!-- Creator: CorelDRAW 2021.5 -->
<svg xmlns="http://www.w3.org/2000/svg" xml:space="preserve" width="381mm" height="381mm" version="1.0" style="shape-rendering:geometricPrecision; text-rendering:geometricPrecision; image-rendering:optimizeQuality; fill-rule:evenodd; clip-rule:evenodd"
viewBox="0 0 38100 38100"
 xmlns:xlink="http://www.w3.org/1999/xlink"
 xmlns:xodm="http://www.corel.com/coreldraw/odm/2003">
 <defs>
  <style type="text/css">
   <![CDATA[
    .fil4 {fill:#FEFEFE;fill-rule:nonzero}
    .fil3 {fill:#332C2B;fill-rule:nonzero}
    .fil5 {fill:#A30309;fill-rule:nonzero}
    .fil8 {fill:url(#id6)}
    .fil0 {fill:url(#id7)}
    .fil1 {fill:url(#id8)}
    .fil6 {fill:url(#id9)}
    .fil2 {fill:url(#id10)}
    .fil7 {fill:url(#id11)}
   ]]>
  </style>
     <clipPath id="id0">
      <path d="M9152.72 20348.1l20037.65 0 0 17525.81 -20037.65 0 0 -17525.81z"/>
     </clipPath>
     <clipPath id="id1">
      <path d="M23173.69 13609.97l13174.2 0 0 19883.95 -13174.2 0 0 -19883.95z"/>
     </clipPath>
     <clipPath id="id2">
      <path d="M16820.16 4588.04l19872.96 0 0 17249.81 -19872.96 0 0 -17249.81z"/>
     </clipPath>
     <clipPath id="id3">
      <path d="M8910.6 220.24l19890.52 0 -58.56 17589.75 -19890.53 0 58.57 -17589.75z"/>
     </clipPath>
     <clipPath id="id4">
      <path d="M1748.2 4558.63l13174.17 0 0 19930.88 -13174.17 0 0 -19930.88z"/>
     </clipPath>
     <clipPath id="id5">
      <path d="M1362.62 15755.03l19953.53 0 0 17802.47 -19953.53 0 0 -17802.47z"/>
     </clipPath>
  <linearGradient id="id6" gradientUnits="userSpaceOnUse" x1="2846.14" y1="24656.27" x2="19832.61" y2="24656.27">
   <stop offset="0" style="stop-opacity:1; stop-color:#E3E3E3"/>
   <stop offset="0.368627" style="stop-opacity:1; stop-color:#F0F0F0"/>
   <stop offset="1" style="stop-opacity:1; stop-color:#FEFEFE"/>
  </linearGradient>
  <linearGradient id="id7" gradientUnits="userSpaceOnUse" x1="11528.65" y1="29111.01" x2="26799.79" y2="33202.9">
   <stop offset="0" style="stop-opacity:1; stop-color:#A30309"/>
   <stop offset="1" style="stop-opacity:1; stop-color:#E62129"/>
  </linearGradient>
  <linearGradient id="id8" gradientUnits="userSpaceOnUse" x1="24271.54" y1="23551.94" x2="35250.04" y2="23551.94">
   <stop offset="0" style="stop-opacity:1; stop-color:#E3E3E3"/>
   <stop offset="0.439216" style="stop-opacity:1; stop-color:#F0F0F0"/>
   <stop offset="1" style="stop-opacity:1; stop-color:#FEFEFE"/>
  </linearGradient>
  <linearGradient id="id9" gradientUnits="userSpaceOnUse" x1="10366.2" y1="8988.47" x2="27335.76" y2="8988.47">
   <stop offset="0" style="stop-opacity:1; stop-color:#E3E3E3"/>
   <stop offset="0.329412" style="stop-opacity:1; stop-color:#F0F0F0"/>
   <stop offset="1" style="stop-opacity:1; stop-color:#FEFEFE"/>
  </linearGradient>
  <linearGradient id="id10" gradientUnits="userSpaceOnUse" xlink:href="#id7" x1="18263.47" y1="12537.63" x2="34788.2" y2="16965.42">
  </linearGradient>
  <linearGradient id="id11" gradientUnits="userSpaceOnUse" xlink:href="#id7" x1="2846.04" y1="14708.72" x2="13121.15" y2="17461.92">
  </linearGradient>
 </defs>
 <g id="Layer_x0020_1">
  <metadata id="CorelCorpID_0Corel-Layer"/>
  <g id="_2593029240320">
   <g>
    <g style="clip-path:url(#id0)">
     <image x="9152.72" y="20348.1" width="20037.65" height="17525.81" xlink:href="Communication Activator Pic_Images\Communication Activator Pic_ImgID1.png"/>
    </g>
   </g>
   <path class="fil0" d="M19048.04 36413.43c-3212.96,0 -6018.07,-1745.45 -7519.39,-4339.73l0.09 0c-163.29,-237.6 -306.44,-492.85 -426.14,-764.18l-301.91 97.42c-50.07,16.16 -101.07,5.2 -140.07,-30.07 -39.04,-35.31 -55.03,-84.94 -44.01,-136.38l171.89 -800.75 171.95 -800.77c11.03,-51.43 46.03,-90.11 96.08,-106.26 50.07,-16.17 101.09,-5.24 140.09,30.06l607.53 549.27 607.53 549.27c39,35.29 55.02,84.92 43.96,136.36 -11.02,51.43 -46.02,90.13 -96.08,106.27l-220.83 71.26c181.29,378.49 422.69,714.08 708.6,998.83 1036.03,-158.74 2060.56,-509.04 3022.93,-1064.67 1983.26,-1145.03 3343.26,-2954.56 3962.36,-4984.88 2499.92,-282.21 4596.01,-1896.37 5562.26,-4115.9 1448.24,1551.22 2335,3633.4 2335,5923.01 0,4794.85 -3886.98,8681.84 -8681.84,8681.84z"/>
   <g>
    <g style="clip-path:url(#id1)">
     <image x="23173.69" y="13609.97" width="13174.2" height="19883.95" xlink:href="Communication Activator Pic_Images\Communication Activator Pic_ImgID2.png"/>
    </g>
   </g>
   <path class="fil1" d="M34085.44 27731.59c-1537.37,2662.8 -4272.36,4202.65 -7131.77,4332.9 -126.85,8.25 -254.53,11.35 -382.78,9.18l-3.46 0.03 0.05 -0.1c-265.74,-4.7 -533.85,-31.98 -801.87,-83.41l-91.59 303.72c-15.18,50.38 -53.21,86.09 -104.4,98.11 -51.25,12.04 -101.16,-3.04 -137.2,-41.37l-560.84 -596.82 -560.84 -596.88c-36.02,-38.33 -47.93,-89.12 -32.75,-139.47 15.18,-50.39 53.19,-86.12 104.4,-98.13l797.32 -187.27 797.32 -187.29c51.21,-12 101.15,3.05 137.17,41.4 36.02,38.32 47.95,89.12 32.75,139.48l-66.99 222.15c346.45,55.31 692.12,58.97 1028.06,15.93 401.06,-999 621.86,-2089.76 621.86,-3232.16 0,-2289.61 -886.76,-4371.79 -2335,-5923.01 367.95,-845.28 572.43,-1778.11 572.43,-2758.84 0,-1542.19 -504.76,-2966.39 -1357.78,-4116.84 2067.82,-478.98 4314.89,-205.95 6298.13,939.07 4152.46,2397.42 5575.2,7707.15 3177.78,11859.62z"/>
   <g>
    <g style="clip-path:url(#id2)">
     <image x="16820.16" y="4588.04" width="19872.96" height="17249.81" xlink:href="Communication Activator Pic_Images\Communication Activator Pic_ImgID3.png"/>
    </g>
   </g>
   <path class="fil2" d="M34085.44 10367.9c1424.03,2466.5 1499.86,5341.15 456.72,7771.39 -116.93,315.38 -268.54,620.35 -454.49,908.93l-0.86 1.53 -0.06 -0.1c-131.89,204.52 -280.96,400.83 -447.29,586.7l213.32 234.8c35.39,38.94 46.45,89.92 30.4,139.99 -16.04,50.14 -54.64,85.19 -106.05,96.37l-800.33 173.85 -800.36 173.83c-51.41,11.15 -101.09,-4.75 -136.45,-43.68 -35.39,-38.94 -46.48,-89.92 -30.43,-140.01l249.63 -780.05 249.63 -780.04c16.06,-50.1 54.65,-85.18 106.07,-96.33 51.4,-11.17 101.09,4.73 136.45,43.67l156.03 171.75c204.3,-243.17 371.96,-507.59 502.75,-785.64 -666.94,-854.5 -1506.01,-1597.59 -2502.46,-2172.89 -1983.24,-1145.02 -4230.31,-1418.05 -6298.13,-939.07 -1260.68,-1700.26 -3282.28,-2802.43 -5561.49,-2802.43 -265.33,0 -527.02,15.46 -784.57,44.54 619.09,-2030.32 1979.09,-3839.86 3962.35,-4984.89 4152.46,-2397.42 9462.19,-974.69 11859.62,3177.78z"/>
   <path class="fil3" d="M14121.13 18537.86c0,26.16 -6.3,54.42 -19.29,84.77 -12.79,30.36 -33.03,60.15 -60.71,89.36 -27.5,29.4 -62.82,53.08 -105.58,71.4 -42.96,18.14 -92.99,27.31 -150.07,27.31 -43.15,0 -82.48,-4.01 -118,-12.22 -35.32,-8.21 -67.58,-21 -96.41,-38.38 -28.83,-17.18 -55.56,-40.09 -79.81,-68.35 -21.58,-25.78 -40.1,-54.41 -55.37,-86.3 -15.27,-31.88 -26.73,-66.06 -34.37,-102.15 -7.63,-36.27 -11.45,-74.65 -11.45,-115.31 0,-65.87 9.54,-125.06 28.83,-177.18 19.09,-52.32 46.77,-97 82.48,-134.04 35.89,-37.04 77.71,-65.29 125.82,-84.77 48.11,-19.28 99.47,-29.02 153.89,-29.02 66.44,0 125.43,13.18 177.37,39.72 51.74,26.34 91.45,59.18 119.13,98.13 27.5,38.95 41.44,75.61 41.44,110.36 0,19.09 -6.88,35.7 -20.24,50.4 -13.37,14.51 -29.6,21.77 -48.69,21.77 -21.19,0 -37.23,-5.16 -47.73,-15.09 -10.69,-10.12 -22.53,-27.49 -35.51,-52.12 -21.77,-40.67 -47.16,-71.02 -76.37,-91.26 -29.41,-20.05 -65.3,-30.17 -108.26,-30.17 -68.35,0 -122.57,25.97 -163.05,77.71 -40.48,51.93 -60.71,125.63 -60.71,221.09 0,63.77 8.97,116.85 26.92,159.23 17.75,42.39 43.15,73.89 75.98,94.9 32.84,20.81 71.22,31.31 115.32,31.31 47.74,0 88.02,-11.84 121.05,-35.52 33.03,-23.67 57.85,-58.42 74.65,-104.43 7.07,-21.58 15.85,-39.14 26.35,-52.89 10.31,-13.55 27.11,-20.43 50.22,-20.43 19.85,0 36.84,6.88 50.97,20.81 14.13,13.75 21.2,30.93 21.2,51.36z"/>
   <path id="_1" class="fil3" d="M14737.52 17962.98c85.15,0 158.08,17.19 218.99,51.74 60.9,34.37 107.11,83.44 138.42,147.02 31.31,63.58 46.97,138.23 46.97,223.95 0,63.39 -8.59,121.05 -25.78,172.79 -17.18,51.93 -42.76,96.8 -77.13,134.8 -34.37,37.99 -76.37,67.01 -126.4,87.25 -50.02,20.05 -107.11,30.17 -171.64,30.17 -64.15,0 -121.62,-10.31 -172.21,-31.12 -50.79,-20.62 -92.99,-49.84 -126.97,-87.45 -33.99,-37.61 -59.57,-82.86 -76.94,-135.94 -17.38,-52.89 -25.97,-110.16 -25.97,-171.64 0,-63.01 8.97,-120.67 27.11,-173.36 18.14,-52.51 44.3,-97.18 78.66,-134.22 34.18,-36.85 75.99,-65.11 125.25,-84.58 49.07,-19.67 105.01,-29.41 167.64,-29.41zm235.98 421.57c0,-59.95 -9.74,-112.08 -29.02,-156.18 -19.47,-43.91 -47.16,-77.13 -83.05,-99.85 -35.9,-22.53 -77.33,-33.8 -123.91,-33.8 -33.04,0 -63.77,6.3 -91.84,18.71 -28.26,12.6 -52.51,30.74 -72.74,54.61 -20.24,23.86 -36.28,54.41 -48.12,91.45 -11.64,37.23 -17.56,78.85 -17.56,125.06 0,46.78 5.92,88.78 17.56,126.58 11.84,37.62 28.45,68.93 49.83,93.75 21.39,24.82 46.02,43.34 73.7,55.56 27.88,12.41 58.23,18.52 91.46,18.52 42.57,0 81.52,-10.69 117.23,-31.89 35.51,-21.19 63.76,-54.03 84.96,-98.52 21,-44.29 31.5,-99.09 31.5,-164z"/>
   <path id="_2" class="fil3" d="M15667.59 18673.23l-131.55 -522.38 0 565.91c0,31.31 -7.06,54.8 -21,70.45 -13.94,15.66 -32.46,23.49 -55.37,23.49 -22.34,0 -40.67,-7.83 -54.8,-23.3 -14.13,-15.46 -21.19,-38.95 -21.19,-70.64l0 -648.77c0,-35.89 9.36,-59.95 27.88,-72.55 18.71,-12.41 43.91,-18.71 75.41,-18.71l51.55 0c30.93,0 53.27,2.86 67.21,8.4 13.94,5.54 24.44,15.66 31.12,30.17 6.68,14.51 14.32,38.18 22.91,71.02l119.14 449.44 119.14 -449.44c8.59,-32.84 16.23,-56.51 22.91,-71.02 6.68,-14.51 16.99,-24.63 30.93,-30.17 13.94,-5.54 36.47,-8.4 67.4,-8.4l51.35 0c31.7,0 56.9,6.3 75.61,18.71 18.52,12.6 27.88,36.66 27.88,72.55l0 648.77c0,31.31 -7.07,54.8 -21.01,70.45 -13.93,15.66 -32.64,23.49 -55.94,23.49 -21.95,0 -40.09,-7.83 -54.22,-23.49 -14.13,-15.65 -21.19,-39.14 -21.19,-70.45l0 -565.91 -131.55 522.38c-8.59,33.79 -15.47,58.8 -21,74.65 -5.35,15.66 -15.28,30.17 -29.79,43.15 -14.7,13.18 -34.75,19.67 -60.52,19.67 -19.48,0 -35.9,-4.2 -49.26,-12.6 -13.37,-8.41 -23.87,-19.1 -31.31,-32.08 -7.45,-13.17 -13.37,-27.49 -17.57,-43.34 -4.39,-15.85 -8.78,-32.46 -13.17,-49.45z"/>
   <path id="_3" class="fil3" d="M16728.45 18673.23l-131.55 -522.38 0 565.91c0,31.31 -7.06,54.8 -21,70.45 -13.94,15.66 -32.46,23.49 -55.37,23.49 -22.34,0 -40.67,-7.83 -54.8,-23.3 -14.13,-15.46 -21.19,-38.95 -21.19,-70.64l0 -648.77c0,-35.89 9.36,-59.95 27.88,-72.55 18.71,-12.41 43.91,-18.71 75.41,-18.71l51.55 0c30.93,0 53.27,2.86 67.21,8.4 13.94,5.54 24.44,15.66 31.12,30.17 6.68,14.51 14.32,38.18 22.91,71.02l119.14 449.44 119.14 -449.44c8.59,-32.84 16.23,-56.51 22.91,-71.02 6.68,-14.51 16.99,-24.63 30.93,-30.17 13.94,-5.54 36.47,-8.4 67.4,-8.4l51.35 0c31.7,0 56.9,6.3 75.61,18.71 18.52,12.6 27.88,36.66 27.88,72.55l0 648.77c0,31.31 -7.07,54.8 -21.01,70.45 -13.93,15.66 -32.64,23.49 -55.94,23.49 -21.95,0 -40.09,-7.83 -54.22,-23.49 -14.13,-15.65 -21.19,-39.14 -21.19,-70.45l0 -565.91 -131.55 522.38c-8.59,33.79 -15.47,58.8 -21,74.65 -5.35,15.66 -15.28,30.17 -29.79,43.15 -14.7,13.18 -34.75,19.67 -60.52,19.67 -19.48,0 -35.9,-4.2 -49.26,-12.6 -13.37,-8.41 -23.87,-19.1 -31.31,-32.08 -7.45,-13.17 -13.37,-27.49 -17.57,-43.34 -4.39,-15.85 -8.78,-32.46 -13.17,-49.45z"/>
   <path id="_4" class="fil3" d="M17513.42 18457.86l0 -394.26c0,-33.6 7.64,-58.61 22.72,-75.42 15.08,-16.8 34.94,-25.2 59.57,-25.2 25.58,0 46.01,8.4 61.1,25.2 15.08,16.81 22.72,42.01 22.72,75.42l0 403.43c0,45.82 5.15,84.2 15.46,114.94 10.12,30.74 28.45,54.6 54.41,71.59 26.16,17 62.63,25.4 109.6,25.4 64.91,0 110.73,-17.19 137.65,-51.74 26.93,-34.56 40.29,-86.88 40.29,-156.95l0 -406.67c0,-33.79 7.45,-59.19 22.34,-75.8 14.89,-16.61 34.94,-24.82 59.95,-24.82 24.82,0 45.06,8.21 60.52,24.82 15.47,16.61 23.3,42.01 23.3,75.8l0 394.26c0,64.16 -6.3,117.81 -18.71,160.57 -12.61,42.96 -36.09,80.57 -70.84,113.03 -29.78,27.5 -64.53,47.54 -104.05,60.33 -39.53,12.61 -85.73,18.91 -138.62,18.91 -63,0 -117.23,-6.88 -162.86,-20.43 -45.44,-13.56 -82.48,-34.75 -111.12,-63.2 -28.83,-28.45 -49.83,-65.11 -63.38,-109.59 -13.37,-44.49 -20.05,-97.76 -20.05,-159.62z"/>
   <path id="_5" class="fil3" d="M18706.21 18062.65l319.23 483.42 0 -488.01c0,-31.69 6.87,-55.36 20.42,-71.21 13.56,-15.85 31.89,-23.87 54.99,-23.87 23.68,0 42.58,7.83 56.33,23.68 13.74,15.84 20.62,39.71 20.62,71.4l0 644.76c0,71.98 -29.79,107.88 -89.36,107.88 -14.89,0 -28.26,-2.1 -40.28,-6.49 -11.84,-4.21 -23.11,-11.08 -33.42,-20.24 -10.5,-9.36 -20.04,-20.24 -29.02,-32.84 -8.97,-12.41 -17.94,-25.2 -26.92,-38.19l-311.4 -477.31 0 479.99c0,31.31 -7.25,54.98 -21.76,71.02 -14.71,16.04 -33.42,24.06 -56.14,24.06 -23.48,0 -42.38,-8.02 -56.51,-24.25 -14.32,-16.23 -21.39,-39.9 -21.39,-70.83l0 -632.35c0,-26.92 3.06,-47.93 8.98,-63.2 7.06,-16.8 18.9,-30.55 35.32,-41.24 16.42,-10.5 34.18,-15.85 53.08,-15.85 15.08,0 27.87,2.48 38.37,7.26 10.7,4.96 20.05,11.45 28.07,19.66 8.02,8.21 16.23,18.71 24.63,31.89 8.4,12.98 17.18,26.54 26.16,40.86z"/>
   <path id="_6" class="fil3" d="M19473.23 18709.51l0 -645.91c0,-33.6 7.63,-58.61 22.91,-75.42 15.27,-16.8 35.13,-25.2 59.38,-25.2 24.82,0 45.06,8.21 60.52,24.82 15.47,16.61 23.29,41.82 23.29,75.8l0 645.91c0,33.98 -7.82,59.18 -23.29,75.98 -15.46,16.81 -35.7,25.21 -60.52,25.21 -23.87,0 -43.53,-8.4 -59,-25.4 -15.46,-16.99 -23.29,-42.19 -23.29,-75.79z"/>
   <path id="_7" class="fil3" d="M20630.51 18537.86c0,26.16 -6.3,54.42 -19.29,84.77 -12.79,30.36 -33.03,60.15 -60.71,89.36 -27.5,29.4 -62.82,53.08 -105.58,71.4 -42.96,18.14 -92.99,27.31 -150.07,27.31 -43.15,0 -82.48,-4.01 -118,-12.22 -35.32,-8.21 -67.58,-21 -96.41,-38.38 -28.83,-17.18 -55.56,-40.09 -79.81,-68.35 -21.58,-25.78 -40.1,-54.41 -55.37,-86.3 -15.27,-31.88 -26.73,-66.06 -34.37,-102.15 -7.63,-36.27 -11.45,-74.65 -11.45,-115.31 0,-65.87 9.54,-125.06 28.83,-177.18 19.09,-52.32 46.77,-97 82.48,-134.04 35.89,-37.04 77.71,-65.29 125.82,-84.77 48.11,-19.28 99.47,-29.02 153.89,-29.02 66.44,0 125.43,13.18 177.37,39.72 51.74,26.34 91.45,59.18 119.13,98.13 27.5,38.95 41.44,75.61 41.44,110.36 0,19.09 -6.88,35.7 -20.24,50.4 -13.37,14.51 -29.6,21.77 -48.69,21.77 -21.19,0 -37.23,-5.16 -47.73,-15.09 -10.69,-10.12 -22.53,-27.49 -35.51,-52.12 -21.77,-40.67 -47.16,-71.02 -76.37,-91.26 -29.41,-20.05 -65.3,-30.17 -108.26,-30.17 -68.35,0 -122.57,25.97 -163.05,77.71 -40.48,51.93 -60.71,125.63 -60.71,221.09 0,63.77 8.97,116.85 26.92,159.23 17.75,42.39 43.15,73.89 75.98,94.9 32.84,20.81 71.22,31.31 115.32,31.31 47.74,0 88.02,-11.84 121.05,-35.52 33.03,-23.67 57.85,-58.42 74.65,-104.43 7.07,-21.58 15.85,-39.14 26.35,-52.89 10.31,-13.55 27.11,-20.43 50.22,-20.43 19.85,0 36.84,6.88 50.97,20.81 14.13,13.75 21.2,30.93 21.2,51.36z"/>
   <path id="_8" class="fil3" d="M21410.9 18703.97l-39.14 -102.91 -333.36 0 -39.14 105.01c-15.27,41.05 -28.25,68.73 -39.14,83.05 -10.69,14.32 -28.44,21.58 -53.07,21.58 -20.82,0 -39.34,-7.64 -55.37,-22.91 -16.04,-15.28 -24.06,-32.65 -24.06,-51.94 0,-11.26 1.91,-22.91 5.54,-34.75 3.82,-12.02 9.93,-28.44 18.52,-49.83l209.63 -532.3c6.11,-15.27 13.18,-33.6 21.58,-54.99 8.4,-21.57 17.37,-39.33 26.92,-53.46 9.55,-14.13 21.96,-25.58 37.42,-34.36 15.47,-8.79 34.56,-13.18 57.28,-13.18 23.29,0 42.58,4.39 58.04,13.18 15.47,8.78 27.88,20.04 37.42,33.79 9.55,13.75 17.57,28.64 24.06,44.49 6.49,15.84 14.89,37.04 24.82,63.38l214.22 529.06c16.8,40.29 25.2,69.5 25.2,87.83 0,18.9 -7.83,36.46 -23.67,52.31 -15.85,15.85 -35.13,23.68 -57.47,23.68 -12.98,0 -24.25,-2.29 -33.6,-7.07 -9.17,-4.58 -17,-10.88 -23.49,-18.9 -6.3,-8.02 -12.98,-20.43 -20.24,-36.85 -7.44,-16.61 -13.55,-31.31 -18.9,-43.91zm-328.77 -227.78l244.95 0 -123.53 -337.94 -121.42 337.94z"/>
   <path id="_9" class="fil3" d="M22248.76 18114.2l-181.19 0 0 595.31c0,34.36 -7.64,59.76 -23.1,76.37 -15.28,16.61 -35.13,24.82 -59.38,24.82 -24.63,0 -44.87,-8.4 -60.33,-25.21 -15.47,-16.8 -23.3,-42 -23.3,-75.98l0 -595.31 -181.19 0c-28.44,0 -49.45,-6.3 -63.19,-18.71 -13.75,-12.61 -20.81,-29.22 -20.81,-49.84 0,-21.19 7.25,-37.99 21.57,-50.4 14.32,-12.41 35.13,-18.52 62.43,-18.52l528.49 0c28.83,0 50.02,6.3 64.15,19.09 13.94,12.79 21,29.4 21,49.83 0,20.62 -7.25,37.23 -21.38,49.84 -14.13,12.41 -35.32,18.71 -63.77,18.71z"/>
   <path id="_10" class="fil3" d="M22545.35 18709.51l0 -645.91c0,-33.6 7.63,-58.61 22.91,-75.42 15.27,-16.8 35.13,-25.2 59.38,-25.2 24.82,0 45.06,8.21 60.52,24.82 15.47,16.61 23.29,41.82 23.29,75.8l0 645.91c0,33.98 -7.82,59.18 -23.29,75.98 -15.46,16.81 -35.7,25.21 -60.52,25.21 -23.87,0 -43.53,-8.4 -59,-25.4 -15.46,-16.99 -23.29,-42.19 -23.29,-75.79z"/>
   <path id="_11" class="fil3" d="M23364.5 17962.98c85.15,0 158.08,17.19 218.99,51.74 60.9,34.37 107.11,83.44 138.42,147.02 31.31,63.58 46.97,138.23 46.97,223.95 0,63.39 -8.59,121.05 -25.78,172.79 -17.18,51.93 -42.76,96.8 -77.13,134.8 -34.37,37.99 -76.37,67.01 -126.4,87.25 -50.02,20.05 -107.11,30.17 -171.64,30.17 -64.15,0 -121.62,-10.31 -172.21,-31.12 -50.79,-20.62 -92.99,-49.84 -126.97,-87.45 -33.99,-37.61 -59.57,-82.86 -76.94,-135.94 -17.38,-52.89 -25.97,-110.16 -25.97,-171.64 0,-63.01 8.97,-120.67 27.11,-173.36 18.14,-52.51 44.3,-97.18 78.66,-134.22 34.18,-36.85 75.99,-65.11 125.25,-84.58 49.07,-19.67 105.01,-29.41 167.64,-29.41zm235.98 421.57c0,-59.95 -9.74,-112.08 -29.02,-156.18 -19.47,-43.91 -47.16,-77.13 -83.05,-99.85 -35.9,-22.53 -77.33,-33.8 -123.91,-33.8 -33.04,0 -63.77,6.3 -91.84,18.71 -28.26,12.6 -52.51,30.74 -72.74,54.61 -20.24,23.86 -36.28,54.41 -48.12,91.45 -11.64,37.23 -17.56,78.85 -17.56,125.06 0,46.78 5.92,88.78 17.56,126.58 11.84,37.62 28.45,68.93 49.83,93.75 21.39,24.82 46.02,43.34 73.7,55.56 27.88,12.41 58.23,18.52 91.46,18.52 42.57,0 81.52,-10.69 117.23,-31.89 35.51,-21.19 63.76,-54.03 84.96,-98.52 21,-44.29 31.5,-99.09 31.5,-164z"/>
   <path id="_12" class="fil3" d="M24234.43 18062.65l319.23 483.42 0 -488.01c0,-31.69 6.87,-55.36 20.42,-71.21 13.56,-15.85 31.89,-23.87 54.99,-23.87 23.68,0 42.58,7.83 56.33,23.68 13.74,15.84 20.62,39.71 20.62,71.4l0 644.76c0,71.98 -29.79,107.88 -89.36,107.88 -14.89,0 -28.26,-2.1 -40.28,-6.49 -11.84,-4.21 -23.11,-11.08 -33.42,-20.24 -10.5,-9.36 -20.04,-20.24 -29.02,-32.84 -8.97,-12.41 -17.94,-25.2 -26.92,-38.19l-311.4 -477.31 0 479.99c0,31.31 -7.25,54.98 -21.76,71.02 -14.71,16.04 -33.42,24.06 -56.14,24.06 -23.48,0 -42.38,-8.02 -56.51,-24.25 -14.32,-16.23 -21.39,-39.9 -21.39,-70.83l0 -632.35c0,-26.92 3.06,-47.93 8.98,-63.2 7.06,-16.8 18.9,-30.55 35.32,-41.24 16.42,-10.5 34.18,-15.85 53.08,-15.85 15.08,0 27.87,2.48 38.37,7.26 10.7,4.96 20.05,11.45 28.07,19.66 8.02,8.21 16.23,18.71 24.63,31.89 8.4,12.98 17.18,26.54 26.16,40.86z"/>
   <path id="_13" class="fil3" d="M15951.95 20029.76l-39.14 -102.91 -333.36 0 -39.14 105.01c-15.27,41.05 -28.25,68.73 -39.14,83.05 -10.69,14.32 -28.44,21.58 -53.07,21.58 -20.82,0 -39.34,-7.64 -55.37,-22.91 -16.04,-15.28 -24.06,-32.65 -24.06,-51.94 0,-11.26 1.91,-22.91 5.54,-34.75 3.82,-12.02 9.93,-28.44 18.52,-49.83l209.63 -532.3c6.11,-15.27 13.18,-33.6 21.58,-54.99 8.4,-21.57 17.37,-39.33 26.92,-53.46 9.55,-14.13 21.96,-25.58 37.42,-34.36 15.47,-8.79 34.56,-13.18 57.28,-13.18 23.29,0 42.58,4.39 58.04,13.18 15.47,8.78 27.88,20.04 37.42,33.79 9.55,13.75 17.57,28.64 24.06,44.49 6.49,15.84 14.89,37.04 24.82,63.38l214.22 529.06c16.8,40.29 25.2,69.5 25.2,87.83 0,18.9 -7.83,36.46 -23.67,52.31 -15.85,15.85 -35.13,23.68 -57.47,23.68 -12.98,0 -24.25,-2.29 -33.6,-7.07 -9.17,-4.58 -17,-10.88 -23.49,-18.9 -6.3,-8.02 -12.98,-20.43 -20.24,-36.85 -7.44,-16.61 -13.55,-31.31 -18.9,-43.91zm-328.77 -227.78l244.95 0 -123.53 -337.94 -121.42 337.94z"/>
   <path id="_14" class="fil3" d="M17028.09 19863.65c0,26.16 -6.3,54.42 -19.29,84.77 -12.79,30.36 -33.03,60.15 -60.71,89.36 -27.5,29.4 -62.82,53.08 -105.58,71.4 -42.96,18.14 -92.99,27.31 -150.07,27.31 -43.15,0 -82.48,-4.01 -118,-12.22 -35.32,-8.21 -67.58,-21 -96.41,-38.38 -28.83,-17.18 -55.56,-40.09 -79.81,-68.35 -21.58,-25.78 -40.1,-54.41 -55.37,-86.3 -15.27,-31.88 -26.73,-66.06 -34.37,-102.15 -7.63,-36.27 -11.45,-74.65 -11.45,-115.31 0,-65.87 9.54,-125.06 28.83,-177.18 19.09,-52.32 46.77,-97 82.48,-134.04 35.89,-37.04 77.71,-65.29 125.82,-84.77 48.11,-19.28 99.47,-29.02 153.89,-29.02 66.44,0 125.43,13.18 177.37,39.72 51.74,26.34 91.45,59.18 119.13,98.13 27.5,38.95 41.44,75.61 41.44,110.36 0,19.09 -6.88,35.7 -20.24,50.4 -13.37,14.51 -29.6,21.77 -48.69,21.77 -21.19,0 -37.23,-5.16 -47.73,-15.09 -10.69,-10.12 -22.53,-27.49 -35.51,-52.12 -21.77,-40.67 -47.16,-71.02 -76.37,-91.26 -29.41,-20.05 -65.3,-30.17 -108.26,-30.17 -68.35,0 -122.57,25.97 -163.05,77.71 -40.48,51.93 -60.71,125.63 -60.71,221.09 0,63.77 8.97,116.85 26.92,159.23 17.75,42.39 43.15,73.89 75.98,94.9 32.84,20.81 71.22,31.31 115.32,31.31 47.74,0 88.02,-11.84 121.05,-35.52 33.03,-23.67 57.85,-58.42 74.65,-104.43 7.07,-21.58 15.85,-39.14 26.35,-52.89 10.31,-13.55 27.11,-20.43 50.22,-20.43 19.85,0 36.84,6.88 50.97,20.81 14.13,13.75 21.2,30.93 21.2,51.36z"/>
   <path id="_15" class="fil3" d="M17816.5 19439.99l-181.19 0 0 595.31c0,34.36 -7.64,59.76 -23.1,76.37 -15.28,16.61 -35.13,24.82 -59.38,24.82 -24.63,0 -44.87,-8.4 -60.33,-25.21 -15.47,-16.8 -23.3,-42 -23.3,-75.98l0 -595.31 -181.19 0c-28.44,0 -49.45,-6.3 -63.19,-18.71 -13.75,-12.61 -20.81,-29.22 -20.81,-49.84 0,-21.19 7.25,-37.99 21.57,-50.4 14.32,-12.41 35.13,-18.52 62.43,-18.52l528.49 0c28.83,0 50.02,6.3 64.15,19.09 13.94,12.79 21,29.4 21,49.83 0,20.62 -7.25,37.23 -21.38,49.84 -14.13,12.41 -35.32,18.71 -63.77,18.71z"/>
   <path id="_16" class="fil3" d="M18113.09 20035.3l0 -645.91c0,-33.6 7.63,-58.61 22.91,-75.42 15.27,-16.8 35.13,-25.2 59.38,-25.2 24.82,0 45.06,8.21 60.52,24.82 15.47,16.61 23.29,41.82 23.29,75.8l0 645.91c0,33.98 -7.82,59.18 -23.29,75.98 -15.46,16.81 -35.7,25.21 -60.52,25.21 -23.87,0 -43.53,-8.4 -59,-25.4 -15.46,-16.99 -23.29,-42.19 -23.29,-75.79z"/>
   <path id="_17" class="fil3" d="M18693 19397.79l185.58 549.68 186.16 -553.5c9.74,-29.21 16.99,-49.45 21.76,-60.71 4.97,-11.46 12.99,-21.58 24.06,-30.74 11.27,-9.17 26.54,-13.75 45.82,-13.75 14.13,0 27.31,3.63 39.52,10.69 12.03,7.07 21.58,16.42 28.45,28.26 6.88,11.65 10.31,23.49 10.31,35.51 0,8.02 -1.14,17 -3.43,26.54 -2.1,9.36 -4.97,18.71 -8.21,27.88 -3.44,9.16 -6.88,18.52 -10.12,28.25l-198.38 535.75c-7.25,20.42 -14.32,39.9 -21.38,58.42 -7.06,18.33 -15.27,34.56 -24.63,48.69 -9.16,13.93 -21.57,25.39 -37.04,34.36 -15.46,8.98 -34.37,13.37 -56.7,13.37 -22.53,0 -41.43,-4.39 -56.9,-13.18 -15.47,-8.78 -27.88,-20.24 -37.42,-34.55 -9.36,-14.52 -17.76,-30.74 -24.82,-49.07 -7.07,-18.14 -14.13,-37.62 -21.19,-58.04l-195.13 -531.35c-3.44,-9.55 -6.88,-19.1 -10.31,-28.45 -3.63,-9.36 -6.49,-19.48 -8.98,-30.17 -2.48,-10.88 -3.62,-20.05 -3.62,-27.49 0,-18.9 7.63,-36.28 22.91,-51.93 15.27,-15.66 34.56,-23.49 57.66,-23.49 28.26,0 48.3,8.59 59.95,25.97 11.84,17.37 23.86,45.06 36.08,83.05z"/>
   <path id="_18" class="fil3" d="M19932.77 20029.76l-39.14 -102.91 -333.36 0 -39.14 105.01c-15.27,41.05 -28.25,68.73 -39.14,83.05 -10.69,14.32 -28.44,21.58 -53.07,21.58 -20.82,0 -39.34,-7.64 -55.37,-22.91 -16.04,-15.28 -24.06,-32.65 -24.06,-51.94 0,-11.26 1.91,-22.91 5.54,-34.75 3.82,-12.02 9.93,-28.44 18.52,-49.83l209.63 -532.3c6.11,-15.27 13.18,-33.6 21.58,-54.99 8.4,-21.57 17.37,-39.33 26.92,-53.46 9.55,-14.13 21.96,-25.58 37.42,-34.36 15.47,-8.79 34.56,-13.18 57.28,-13.18 23.29,0 42.58,4.39 58.04,13.18 15.47,8.78 27.88,20.04 37.42,33.79 9.55,13.75 17.57,28.64 24.06,44.49 6.49,15.84 14.89,37.04 24.82,63.38l214.22 529.06c16.8,40.29 25.2,69.5 25.2,87.83 0,18.9 -7.83,36.46 -23.67,52.31 -15.85,15.85 -35.13,23.68 -57.47,23.68 -12.98,0 -24.25,-2.29 -33.6,-7.07 -9.17,-4.58 -17,-10.88 -23.49,-18.9 -6.3,-8.02 -12.98,-20.43 -20.24,-36.85 -7.44,-16.61 -13.55,-31.31 -18.9,-43.91zm-328.77 -227.78l244.95 0 -123.53 -337.94 -121.42 337.94z"/>
   <path id="_19" class="fil3" d="M20770.63 19439.99l-181.19 0 0 595.31c0,34.36 -7.64,59.76 -23.1,76.37 -15.28,16.61 -35.13,24.82 -59.38,24.82 -24.63,0 -44.87,-8.4 -60.33,-25.21 -15.47,-16.8 -23.3,-42 -23.3,-75.98l0 -595.31 -181.19 0c-28.44,0 -49.45,-6.3 -63.19,-18.71 -13.75,-12.61 -20.81,-29.22 -20.81,-49.84 0,-21.19 7.25,-37.99 21.57,-50.4 14.32,-12.41 35.13,-18.52 62.43,-18.52l528.49 0c28.83,0 50.02,6.3 64.15,19.09 13.94,12.79 21,29.4 21,49.83 0,20.62 -7.25,37.23 -21.38,49.84 -14.13,12.41 -35.32,18.71 -63.77,18.71z"/>
   <path id="_20" class="fil3" d="M21406.12 19288.77c85.15,0 158.08,17.19 218.99,51.74 60.9,34.37 107.11,83.44 138.42,147.02 31.31,63.58 46.97,138.23 46.97,223.95 0,63.39 -8.59,121.05 -25.78,172.79 -17.18,51.93 -42.76,96.8 -77.13,134.8 -34.37,37.99 -76.37,67.01 -126.4,87.25 -50.02,20.05 -107.11,30.17 -171.64,30.17 -64.15,0 -121.62,-10.31 -172.21,-31.12 -50.79,-20.62 -92.99,-49.84 -126.97,-87.45 -33.99,-37.61 -59.57,-82.86 -76.94,-135.94 -17.38,-52.89 -25.97,-110.16 -25.97,-171.64 0,-63.01 8.97,-120.67 27.11,-173.36 18.14,-52.51 44.3,-97.18 78.66,-134.22 34.18,-36.85 75.99,-65.11 125.25,-84.58 49.07,-19.67 105.01,-29.41 167.64,-29.41zm235.98 421.57c0,-59.95 -9.74,-112.08 -29.02,-156.18 -19.47,-43.91 -47.16,-77.13 -83.05,-99.85 -35.9,-22.53 -77.33,-33.8 -123.91,-33.8 -33.04,0 -63.77,6.3 -91.84,18.71 -28.26,12.6 -52.51,30.74 -72.74,54.61 -20.24,23.86 -36.28,54.41 -48.12,91.45 -11.64,37.23 -17.56,78.85 -17.56,125.06 0,46.78 5.92,88.78 17.56,126.58 11.84,37.62 28.45,68.93 49.83,93.75 21.39,24.82 46.02,43.34 73.7,55.56 27.88,12.41 58.23,18.52 91.46,18.52 42.57,0 81.52,-10.69 117.23,-31.89 35.51,-21.19 63.76,-54.03 84.96,-98.52 21,-44.29 31.5,-99.09 31.5,-164z"/>
   <path id="_21" class="fil3" d="M22282.35 19772.2l-58.24 0 0 263.1c0,34.74 -7.63,60.14 -22.91,76.56 -15.27,16.42 -35.32,24.63 -59.76,24.63 -26.54,0 -47.16,-8.59 -61.67,-25.78 -14.51,-17.18 -21.76,-42.19 -21.76,-75.41l0 -631.02c0,-35.7 8.02,-61.67 24.05,-77.7 16.04,-16.04 42.01,-24.06 77.71,-24.06l270.16 0c37.23,0 69.12,1.53 95.66,4.77 26.54,3.25 50.4,9.55 71.6,19.29 25.77,10.88 48.49,26.34 68.35,46.39 19.66,20.24 34.75,43.72 44.86,70.26 10.31,26.73 15.47,54.99 15.47,84.96 0,61.1 -17.18,109.98 -51.74,146.64 -34.56,36.46 -86.87,62.43 -156.94,77.7 29.4,15.66 57.66,38.76 84.58,69.31 26.73,30.55 50.78,63.2 71.79,97.56 21,34.56 37.42,65.49 49.25,93.37 11.65,27.68 17.57,46.77 17.57,57.27 0,10.7 -3.44,21.39 -10.31,32.08 -6.87,10.69 -16.23,19.09 -28.26,25.2 -11.83,6.11 -25.77,9.17 -41.43,9.17 -18.52,0 -34.17,-4.39 -46.97,-13.18 -12.6,-8.78 -23.48,-19.85 -32.64,-33.22 -9.17,-13.36 -21.58,-33.22 -37.24,-59.19l-66.63 -110.73c-23.86,-40.48 -45.25,-71.41 -63.96,-92.6 -18.9,-21.39 -37.99,-35.9 -57.47,-43.72 -19.28,-7.83 -43.72,-11.65 -73.12,-11.65zm95.08 -344.81l-153.32 0 0 225.67 148.74 0c39.9,0 73.5,-3.44 100.81,-10.31 27.11,-6.87 47.92,-18.71 62.24,-35.32 14.32,-16.61 21.57,-39.52 21.57,-68.54 0,-22.91 -5.73,-42.96 -17.37,-60.34 -11.46,-17.37 -27.5,-30.35 -48.12,-38.95 -19.28,-8.21 -57.46,-12.21 -114.55,-12.21z"/>
   <path class="fil4" d="M24648.71 9898.61l-92.56 185.7c-50.11,-49.52 -130.87,-74.28 -241.99,-74.28 -105.52,0 -191.88,44.21 -259.38,132.34 -67.5,88.13 -101.1,199.55 -101.1,334.55 0,135 31.24,242.29 93.73,321.57 62.49,79.29 145.9,118.79 250.24,118.79 119.38,0 212.52,-42.74 280.02,-128.22l104.64 181.28c-91.67,97.85 -225.78,146.78 -402.93,146.78 -176.85,0 -314.21,-58.06 -412.07,-174.2 -98.15,-116.13 -147.08,-274.71 -147.08,-475.43 0,-186.88 54.24,-343.1 163,-468.96 108.47,-125.56 247.59,-188.34 417.08,-188.34 145.31,0 261.44,29.47 348.4,88.42z"/>
   <path id="_1_0" class="fil4" d="M24802.27 10452.45c0,-180.09 49.23,-332.48 147.97,-457.16 98.74,-124.68 230.79,-186.87 396.15,-186.87 181.86,0 320.98,56.3 417.07,169.19 96.09,112.89 144.14,271.17 144.14,474.84 0,203.68 -50.11,365.5 -150.62,485.17 -100.51,119.67 -243.17,179.5 -427.98,179.5 -169.78,0 -300.06,-59.24 -390.85,-177.73 -90.49,-118.79 -135.88,-280.9 -135.88,-486.94zm233.45 0c0,147.67 25.05,262.04 75.16,343.1 49.81,81.05 122.62,121.73 218.12,121.73 112.3,0 197.78,-39.79 256.73,-119.08 58.95,-79.29 88.42,-194.54 88.42,-345.75 0,-296.22 -109.35,-444.19 -327.76,-444.19 -100.22,0 -176.86,40.09 -230.5,120.26 -53.35,80.17 -80.17,188.35 -80.17,323.93z"/>
   <path id="_2_1" class="fil4" d="M26935.4 11113.59l-613.68 -801.14 0 783.45 -215.76 0 0 -1264.49 107.88 0 597.76 764 0 -764 215.76 0 0 1282.18 -91.96 0z"/>
   <path id="_3_2" class="fil4" d="M27801.09 10031.25l0 1064.65 -224.6 0 0 -1064.65 -403.22 0 0 -199.84 1048.73 0 0 199.84 -420.91 0z"/>
   <path id="_4_3" class="fil4" d="M28593.09 10031.25l0 295.34 410.3 0 0 191 -410.3 0 0 378.47 574.77 0 0 199.84 -799.37 0 0 -1264.49 799.37 0 0 199.84 -574.77 0z"/>
   <path id="_5_4" class="fil4" d="M30060.67 11095.9l-285.03 -461.88 -293.28 461.88 -233.44 0 411.18 -649.05 -381.12 -617.21 229.91 0.88 269.7 428.87 271.47 -427.98 235.21 0 -389.96 613.97 409.41 650.52 -244.05 0z"/>
   <path id="_6_5" class="fil4" d="M30951.41 10031.25l0 1064.65 -224.6 0 0 -1064.65 -403.22 0 0 -199.84 1048.73 0 0 199.84 -420.91 0z"/>
   <path class="fil5" d="M27922.55 22728.27l-77.55 -214.19 -363.87 0 -74.11 214.19 -208.28 0 422.47 -1070.93 82.72 0 425.42 1070.93 -206.8 0zm-259.98 -747.44l-127.77 389.97 255.3 0 -127.53 -389.97z"/>
   <path id="_1_6" class="fil5" d="M28239.15 21672.11l187.6 0 0 715.43c0,56.62 17.23,102.66 51.95,138.11 34.46,35.7 81.98,53.43 142.54,53.43 67.7,0 120.39,-17.48 158.06,-52.19 37.66,-34.96 56.62,-82.48 56.62,-143.04l0 -711.74 187.6 0 0 726.51c0,108.57 -36.44,193.51 -109.31,255.05 -72.63,61.55 -169.87,92.33 -291.49,92.33 -122.6,0 -217.14,-30.04 -283.61,-90.11 -66.72,-60.07 -99.96,-145.99 -99.96,-258.01l0 -725.77z"/>
   <path id="_2_7" class="fil5" d="M29474.55 22728.27l-234.38 0 0 -1055.67c149.44,-5.17 243.49,-7.88 281.89,-7.88 153.87,0 275.74,45.06 365.84,135.16 90.11,90.11 135.16,209.76 135.16,358.7 0,379.88 -182.92,569.69 -548.51,569.69zm-46.78 -891.46l0 720.11c30.28,2.95 62.78,4.43 97.98,4.43 94.54,0 168.65,-34.22 222.07,-102.91 53.42,-68.68 80.26,-164.7 80.26,-288.29 0,-225.75 -104.88,-338.51 -314.64,-338.51 -20.18,0 -48.74,1.72 -85.67,5.17z"/>
   <path id="_3_8" class="fil5" d="M30193.67 22728.27l0 -1056.16 187.6 0 0 1056.16 -187.6 0z"/>
   <path id="_4_9" class="fil5" d="M30787.98 21839.03l0 246.68 342.7 0 0 159.53 -342.7 0 0 316.11 480.07 0 0 166.92 -667.67 0 0 -1056.16 667.67 0 0 166.92 -480.07 0z"/>
   <path id="_5_10" class="fil5" d="M32133.42 22743.04l-512.58 -669.15 0 654.38 -180.21 0 0 -1056.16 90.11 0 499.27 638.13 0 -638.13 180.22 0 0 1070.93 -76.81 0z"/>
   <path id="_6_11" class="fil5" d="M33151.91 21728.24l-77.3 155.1c-41.85,-41.36 -109.31,-62.04 -202.12,-62.04 -88.14,0 -160.28,36.93 -216.65,110.54 -56.38,73.61 -84.45,166.67 -84.45,279.43 0,112.75 26.1,202.37 78.29,268.59 52.19,66.23 121.87,99.22 209.02,99.22 99.71,0 177.5,-35.7 233.88,-107.1l87.4 151.41c-76.57,81.74 -188.58,122.61 -336.55,122.61 -147.71,0 -262.44,-48.5 -344.17,-145.5 -81.98,-97 -122.85,-229.45 -122.85,-397.11 0,-156.09 45.3,-286.57 136.14,-391.69 90.6,-104.88 206.8,-157.32 348.36,-157.32 121.38,0 218.38,24.62 291,73.86z"/>
   <path id="_7_12" class="fil5" d="M33518 21839.03l0 246.68 342.7 0 0 159.53 -342.7 0 0 316.11 480.07 0 0 166.92 -667.67 0 0 -1056.16 667.67 0 0 166.92 -480.07 0z"/>
   <path class="fil4" d="M17006.72 32340.49l-81.97 -226.4 -384.63 0 -78.33 226.4 -220.16 0 446.57 -1132.02 87.44 0 449.68 1132.02 -218.6 0zm-274.8 -790.07l-135.07 412.21 269.87 0 -134.8 -412.21z"/>
   <path id="_1_13" class="fil4" d="M18108.04 31283.42l-81.72 163.94c-44.24,-43.72 -115.54,-65.58 -213.65,-65.58 -93.17,0 -169.41,39.04 -229.01,116.85 -59.59,77.81 -89.26,176.18 -89.26,295.37 0,119.18 27.59,213.91 82.76,283.91 55.17,70.01 128.81,104.88 220.94,104.88 105.39,0 187.62,-37.74 247.22,-113.2l92.38 160.04c-80.93,86.4 -199.34,129.6 -355.74,129.6 -156.14,0 -277.41,-51.27 -363.81,-153.8 -86.66,-102.53 -129.86,-242.54 -129.86,-419.76 0,-164.99 47.89,-302.91 143.91,-414.03 95.77,-110.87 218.6,-166.3 368.24,-166.3 128.29,0 230.83,26.03 307.6,78.08z"/>
   <path id="_2_14" class="fil4" d="M18751.07 31400.52l0 939.97 -198.3 0 0 -939.97 -356 0 0 -176.44 925.92 0 0 176.44 -371.62 0z"/>
   <path id="_3_15" class="fil4" d="M19256.71 32340.49l0 -1116.41 198.3 0 0 1116.41 -198.3 0z"/>
   <path id="_4_16" class="fil4" d="M20103.51 32356.1l-109.3 0 -418.46 -1132.02 218.6 0 258.41 754.16 272.47 -754.16 213.91 0 -435.63 1132.02z"/>
   <path id="_5_17" class="fil4" d="M21195.45 32340.49l-81.97 -226.4 -384.63 0 -78.33 226.4 -220.16 0 446.57 -1132.02 87.44 0 449.68 1132.02 -218.6 0zm-274.8 -790.07l-135.07 412.21 269.87 0 -134.8 -412.21z"/>
   <path id="_6_18" class="fil4" d="M21836.41 31400.52l0 939.97 -198.3 0 0 -939.97 -356 0 0 -176.44 925.92 0 0 176.44 -371.62 0z"/>
   <path id="_7_19" class="fil4" d="M22535.66 31400.52l0 260.76 362.25 0 0 168.63 -362.25 0 0 334.14 507.46 0 0 176.44 -705.76 0 0 -1116.41 705.76 0 0 176.44 -507.46 0z"/>
   <path class="fil4" d="M23866.82 12327.03l-29.9 0 -163.51 -475.57 -153.86 475.57 -29.9 0 -218.01 -699.37 98.39 0 138.43 481.36 151.93 -481.36 32.8 0 149.03 480.39 141.32 -480.39 98.4 0 -215.12 699.37z"/>
   <path id="_1_20" class="fil4" d="M24462 12317.38l0 -317.21c0,-37.78 -9.16,-67.52 -27.65,-89.22 -18.49,-21.71 -44.54,-32.48 -78.14,-32.48 -21.54,0 -43.25,6.43 -65.11,19.13 -21.71,12.7 -38.43,27.49 -50,44.54l0 375.24 -89.71 0 0 -710.94 89.71 0 0 261.74c11.89,-18.49 31.19,-33.92 57.72,-46.3 26.36,-12.38 53.85,-18.65 81.99,-18.65 53.38,0 95.18,17.52 125.56,52.73 30.23,35.21 45.34,83.28 45.34,144.21l0 317.21 -89.71 0z"/>
   <path id="_2_21" class="fil4" d="M24962.8 12259.5c-35.69,45.02 -90.51,67.53 -164.15,67.53 -39.55,0 -73.79,-14.47 -102.73,-43.25 -29.1,-28.78 -43.57,-64.47 -43.57,-107.4 0,-51.28 22.35,-94.53 67.04,-130.06 44.7,-35.37 101.61,-53.06 170.91,-53.06 18.81,0 40.19,4.18 63.98,12.54 0,-81.67 -36.33,-122.51 -109.16,-122.51 -55.95,0 -98.88,15.11 -129.1,45.34l-37.62 -75.24c17.04,-13.83 40.51,-25.56 70.41,-35.37 30.07,-9.81 58.69,-14.79 86.02,-14.79 73.15,0 126.37,16.72 159.49,50 33.12,33.28 49.67,86.17 49.67,158.84l0 181.03c0,44.21 13.19,73.8 39.56,88.59l0 44.37c-36.5,0 -63.83,-5.14 -81.84,-15.43 -18.17,-10.29 -31.03,-27.33 -38.91,-51.13zm-8.52 -190.03c-28.13,-6.43 -47.91,-9.65 -59.16,-9.65 -45.02,0 -81.83,11.74 -110.29,35.05 -28.46,23.31 -42.77,50.96 -42.77,82.8 0,52.57 30.87,78.94 92.45,78.94 45.17,0 85.05,-21.55 119.77,-64.63l0 -122.51z"/>
   <path id="_3_22" class="fil4" d="M25216.99 11883.29l-58.84 0 0 -70.42 58.84 0 0 -105.46 89.71 -34.41 0 139.87 138.91 0 0 70.42 -138.91 0 0 250.97c0,42.44 7.24,72.67 21.54,90.68 14.31,17.84 37.46,26.84 69.3,26.84 22.99,0 46.94,-5.78 71.54,-17.36l13.19 78.46c-37.14,9.48 -77.98,14.15 -122.51,14.15 -40.04,0 -73.8,-14.79 -101.45,-44.54 -27.49,-29.74 -41.32,-67.2 -41.32,-112.54l0 -286.66z"/>
   <path id="_4_23" class="fil4" d="M25753.81 11689.72c0,83.12 -41.64,150.81 -124.76,203.22l-31.51 -41.8 35.05 -30.23c17.2,-14.63 25.72,-32.8 25.72,-54.02 0,-12.86 -7.55,-27.81 -22.67,-44.69 -15.11,-16.88 -22.67,-32.48 -22.67,-46.63 0,-46.14 22.67,-69.13 68.01,-69.13 48.55,0 72.83,27.81 72.83,83.28z"/>
   <path id="_5_24" class="fil4" d="M25822.62 12287.48l31.51 -84.89c49.84,32.8 89.87,49.19 120.26,49.19 55.14,0 82.64,-23.31 82.64,-69.77 0,-33.44 -26.69,-62.06 -80.07,-86.01 -41,-18.82 -68.65,-33.12 -82.96,-42.93 -14.31,-9.65 -26.69,-20.74 -37.14,-33.12 -10.61,-12.54 -18.49,-25.72 -23.63,-39.71 -5.15,-13.99 -7.72,-28.94 -7.72,-45.02 0,-41.48 15.12,-73.79 45.34,-97.11 30.23,-23.31 69.62,-34.88 118.33,-34.88 36.82,0 83.28,11.57 139.23,34.88l-25.4 82.8c-35.53,-28.29 -71.23,-42.44 -107.08,-42.44 -21.38,0 -39.39,4.98 -54.02,15.11 -14.63,10.13 -21.86,22.83 -21.86,38.27 0,32.31 18.33,56.91 54.98,73.63l64.15 29.26c39.07,17.85 67.69,38.26 85.53,61.26 17.85,22.99 26.85,51.76 26.85,86.33 0,45.18 -15.92,80.71 -47.59,106.27 -31.67,25.56 -75.56,38.43 -131.67,38.43 -53.06,0 -102.9,-13.19 -149.68,-39.55z"/>
   <path id="_6_25" class="fil4" d="M26568.45 11883.29l-58.84 0 0 -70.42 58.84 0 0 -105.46 89.71 -34.41 0 139.87 138.91 0 0 70.42 -138.91 0 0 250.97c0,42.44 7.24,72.67 21.54,90.68 14.31,17.84 37.46,26.84 69.3,26.84 22.99,0 46.94,-5.78 71.54,-17.36l13.19 78.46c-37.14,9.48 -77.98,14.15 -122.51,14.15 -40.04,0 -73.8,-14.79 -101.45,-44.54 -27.49,-29.74 -41.32,-67.2 -41.32,-112.54l0 -286.66z"/>
   <path id="_7_26" class="fil4" d="M27229.71 12317.38l0 -317.21c0,-37.78 -9.16,-67.52 -27.65,-89.22 -18.49,-21.71 -44.54,-32.48 -78.14,-32.48 -21.54,0 -43.25,6.43 -65.11,19.13 -21.71,12.7 -38.43,27.49 -50,44.54l0 375.24 -89.71 0 0 -710.94 89.71 0 0 261.74c11.89,-18.49 31.19,-33.92 57.72,-46.3 26.36,-12.38 53.85,-18.65 81.99,-18.65 53.38,0 95.18,17.52 125.56,52.73 30.23,35.21 45.34,83.28 45.34,144.21l0 317.21 -89.71 0z"/>
   <path id="_8_27" class="fil4" d="M27871.19 12074.29l-363.35 0c0,59 16.08,104.34 48.4,136.01 28.61,27.66 65.27,41.48 110.13,41.48 51.12,0 93.73,-15.11 127.97,-45.33l37.62 64.63c-13.82,13.82 -35.05,25.88 -63.5,36.01 -35.86,13.34 -75.73,19.94 -119.62,19.94 -63.5,0 -117.36,-21.55 -161.58,-64.63 -49.35,-47.43 -73.95,-111.26 -73.95,-191.32 0,-83.29 25.24,-150.17 75.88,-200.49 45.18,-44.85 98.72,-67.36 160.62,-67.36 71.86,0 128.29,20.25 169.13,60.93 39.55,39.07 59.32,90.84 59.32,155.31 0,19.93 -2.41,38.1 -7.07,54.82zm-217.04 -195.82c-40.04,0 -73.48,13.02 -100.49,38.91 -25.88,24.76 -40.35,55.46 -43.89,92.28l279.75 0c0,-36.5 -11.26,-66.88 -33.93,-91.32 -24.91,-26.53 -58.68,-39.87 -101.44,-39.87z"/>
   <path id="_9_28" class="fil4" d="M28646.76 11853.39l-44.69 62.7c-9.17,-9 -25.4,-17.52 -48.72,-25.56 -23.31,-8.04 -46.14,-12.06 -68.65,-12.06 -49.03,0 -88.1,17.04 -116.88,51.29 -28.78,34.08 -43.25,80.86 -43.25,140.35 0,59.17 14.63,104.18 43.73,135.21 29.26,31.03 69.78,46.46 121.55,46.46 40.19,0 80.71,-15.43 121.54,-46.3l35.37 75.24c-48.07,30.87 -107.55,46.31 -178.62,46.31 -68.81,0 -125.72,-23.15 -170.74,-69.3 -44.85,-46.14 -67.36,-108.84 -67.36,-187.62 0,-80.55 23.47,-145.02 70.42,-193.73 47.1,-48.72 111.41,-73.15 192.93,-73.15 26.36,0 54.82,5.46 85.53,16.4 30.7,10.93 53.21,22.18 67.84,33.76z"/>
   <path id="_10_29" class="fil4" d="M28707.7 12064c0,-77.97 20.9,-141 62.86,-188.91 41.96,-47.91 97.11,-71.86 165.6,-71.86 72.18,0 128.13,22.99 168.01,69.13 39.87,45.98 59.8,109.81 59.8,191.64 0,81.35 -20.42,145.5 -61.25,192.61 -40.84,46.94 -96.3,70.42 -166.56,70.42 -72.03,0 -127.98,-23.8 -168.17,-71.23 -40.19,-47.42 -60.29,-111.41 -60.29,-191.8zm94.53 0c0,126.53 44.7,189.71 133.93,189.71 41.48,0 74.11,-16.88 97.75,-50.8 23.63,-33.92 35.53,-80.23 35.53,-138.91 0,-124.92 -44.37,-187.46 -133.28,-187.46 -40.84,0 -73.32,16.56 -97.59,49.84 -24.28,33.28 -36.34,79.1 -36.34,137.62z"/>
   <path id="_11_30" class="fil4" d="M29568.8 12317.38l0 -293.73c0,-53.7 -8.04,-91.32 -24.28,-112.87 -16.07,-21.54 -43.24,-32.31 -81.19,-32.31 -20.42,0 -41.8,6.11 -64.15,18.33 -22.18,12.38 -39.39,27.33 -51.28,45.34l0 375.24 -89.71 0 0 -504.51 61.25 0 28.3 64.96c29.58,-49.68 77.81,-74.6 144.85,-74.6 110.62,0 165.92,67.2 165.92,201.77l0 312.38 -89.71 0z"/>
   <path id="_12_31" class="fil4" d="M29817.03 11883.29l-58.84 0 0 -70.42 58.84 0 0 -105.46 89.71 -34.41 0 139.87 138.91 0 0 70.42 -138.91 0 0 250.97c0,42.44 7.24,72.67 21.54,90.68 14.31,17.84 37.46,26.84 69.3,26.84 22.99,0 46.94,-5.78 71.54,-17.36l13.19 78.46c-37.14,9.48 -77.98,14.15 -122.51,14.15 -40.04,0 -73.8,-14.79 -101.45,-44.54 -27.49,-29.74 -41.32,-67.2 -41.32,-112.54l0 -286.66z"/>
   <path id="_13_32" class="fil4" d="M30592.76 12074.29l-363.35 0c0,59 16.08,104.34 48.4,136.01 28.61,27.66 65.27,41.48 110.13,41.48 51.12,0 93.73,-15.11 127.97,-45.33l37.62 64.63c-13.82,13.82 -35.05,25.88 -63.5,36.01 -35.86,13.34 -75.73,19.94 -119.62,19.94 -63.5,0 -117.36,-21.55 -161.58,-64.63 -49.35,-47.43 -73.95,-111.26 -73.95,-191.32 0,-83.29 25.24,-150.17 75.88,-200.49 45.18,-44.85 98.72,-67.36 160.62,-67.36 71.86,0 128.29,20.25 169.13,60.93 39.55,39.07 59.32,90.84 59.32,155.31 0,19.93 -2.41,38.1 -7.07,54.82zm-217.04 -195.82c-40.04,0 -73.48,13.02 -100.49,38.91 -25.88,24.76 -40.35,55.46 -43.89,92.28l279.75 0c0,-36.5 -11.26,-66.88 -33.93,-91.32 -24.91,-26.53 -58.68,-39.87 -101.44,-39.87z"/>
   <path id="_14_33" class="fil4" d="M31000.48 12317.38l-130.06 -187.94 -130.39 187.94 -104.18 0 183.76 -261.26 -168.33 -243.25 101.29 0 119.13 169.3 119.14 -169.3 99.35 0 -167.68 241.65 185.05 262.86 -107.08 0z"/>
   <path id="_15_34" class="fil4" d="M31208.84 11883.29l-58.84 0 0 -70.42 58.84 0 0 -105.46 89.71 -34.41 0 139.87 138.91 0 0 70.42 -138.91 0 0 250.97c0,42.44 7.24,72.67 21.54,90.68 14.31,17.84 37.46,26.84 69.3,26.84 22.99,0 46.94,-5.78 71.54,-17.36l13.19 78.46c-37.14,9.48 -77.98,14.15 -122.51,14.15 -40.04,0 -73.8,-14.79 -101.45,-44.54 -27.49,-29.74 -41.32,-67.2 -41.32,-112.54l0 -286.66z"/>
   <path id="_16_35" class="fil4" d="M31668.33 12115.77l-62.06 0c-10.61,-29.9 -15.92,-51.29 -15.92,-64.63 0,-22.51 4.18,-45.66 12.38,-69.13 8.36,-23.64 27.17,-51.77 56.44,-84.57 29.26,-32.96 48.87,-58.04 59,-75.72 9.97,-17.53 14.95,-34.73 14.95,-51.29 0,-55.31 -33.28,-82.96 -100,-82.96 -31.99,0 -59.97,11.41 -83.76,34.41l-34.25 -67.53c31.68,-26.21 78.94,-39.23 141.64,-39.23 46.95,0 86.18,13.35 117.37,40.03 31.19,26.69 46.78,62.38 46.78,107.08 0,22.67 -4.02,44.37 -12.05,65.27 -7.88,20.9 -20.26,40.2 -36.98,57.72l-68.65 73.64c-27.66,33.92 -41.48,71.86 -41.48,113.98 0,6.6 2.25,20.9 6.59,42.93zm-20.1 69.45c19.46,0 36.02,6.92 49.84,20.74 13.67,13.83 20.58,30.39 20.58,49.84 0,19.62 -6.91,36.34 -20.58,50.33 -13.82,13.98 -30.38,20.9 -49.84,20.9 -19.45,0 -36.01,-6.92 -49.84,-20.9 -13.66,-13.99 -20.58,-30.71 -20.58,-50.33 0,-19.45 6.92,-36.01 20.58,-49.84 13.83,-13.82 30.39,-20.74 49.84,-20.74z"/>
   <path class="fil5" d="M27627 23729.06l-22.58 0 -123.44 -359.03 -116.16 359.03 -22.57 0 -164.59 -527.99 74.28 0 104.51 363.41 114.7 -363.41 24.76 0 112.52 362.68 106.69 -362.68 74.28 0 -162.4 527.99z"/>
   <path id="_1_36" class="fil5" d="M28076.33 23721.78l0 -239.48c0,-28.52 -6.91,-50.97 -20.87,-67.36 -13.96,-16.39 -33.62,-24.52 -58.99,-24.52 -16.27,0 -32.65,4.86 -49.16,14.45 -16.38,9.58 -29.01,20.75 -37.75,33.62l0 283.29 -67.72 0 0 -536.73 67.72 0 0 197.6c8.99,-13.95 23.55,-25.61 43.58,-34.95 19.9,-9.35 40.66,-14.08 61.9,-14.08 40.3,0 71.85,13.23 94.79,39.81 22.82,26.58 34.23,62.87 34.23,108.87l0 239.48 -67.73 0z"/>
   <path id="_2_37" class="fil5" d="M28214.94 23530.49c0,-58.87 15.78,-106.45 47.46,-142.62 31.68,-36.17 73.31,-54.25 125.02,-54.25 54.5,0 96.74,17.35 126.84,52.19 30.1,34.71 45.15,82.9 45.15,144.68 0,61.42 -15.41,109.85 -46.24,145.41 -30.83,35.44 -72.71,53.16 -125.75,53.16 -54.38,0 -96.62,-17.96 -126.96,-53.77 -30.34,-35.8 -45.52,-84.11 -45.52,-144.8zm71.37 0c0,95.52 33.75,143.22 101.11,143.22 31.32,0 55.96,-12.74 73.8,-38.35 17.84,-25.61 26.82,-60.57 26.82,-104.87 0,-94.31 -33.5,-141.52 -100.62,-141.52 -30.83,0 -55.35,12.5 -73.68,37.62 -18.32,25.13 -27.43,59.72 -27.43,103.9z"/>
   <path id="_3_38" class="fil5" d="M28919.41 23196.7c11.53,0 21.49,4.13 29.74,12.26 8.13,8.26 12.26,18.09 12.26,29.38 0,11.65 -4.13,21.6 -12.26,29.86 -8.25,8.13 -18.21,12.25 -29.74,12.25 -11.41,0 -21.24,-4.12 -29.49,-12.25 -8.13,-8.26 -12.26,-18.21 -12.26,-29.86 0,-11.53 4,-21.49 12.14,-29.5 8.01,-8.13 17.96,-12.14 29.61,-12.14zm-37.38 525.08l0 -324.08 -52.44 0 0 -56.8 120.17 0 0 380.88 -67.73 0z"/>
   <path id="_4_39" class="fil5" d="M29032.9 23699.2l23.79 -64.08c37.63,24.76 67.85,37.14 90.79,37.14 41.64,0 62.39,-17.6 62.39,-52.68 0,-25.25 -20.15,-46.85 -60.44,-64.94 -30.96,-14.2 -51.83,-25 -62.63,-32.4 -10.81,-7.29 -20.15,-15.66 -28.04,-25.01 -8.01,-9.46 -13.96,-19.42 -17.84,-29.98 -3.89,-10.56 -5.83,-21.84 -5.83,-33.98 0,-31.32 11.41,-55.71 34.23,-73.31 22.82,-17.6 52.55,-26.34 89.33,-26.34 27.8,0 62.87,8.74 105.11,26.34l-19.17 62.51c-26.83,-21.37 -53.77,-32.05 -80.84,-32.05 -16.14,0 -29.74,3.76 -40.78,11.41 -11.05,7.65 -16.51,17.24 -16.51,28.89 0,24.4 13.84,42.97 41.51,55.59l48.43 22.09c29.49,13.47 51.1,28.89 64.57,46.24 13.47,17.36 20.27,39.09 20.27,65.18 0,34.11 -12.02,60.93 -35.93,80.23 -23.91,19.3 -57.04,29.01 -99.4,29.01 -40.06,0 -77.69,-9.95 -113.01,-29.86z"/>
   <path id="_5_40" class="fil5" d="M29595.97 23394.06l-44.43 0 0 -53.16 44.43 0 0 -79.62 67.73 -25.98 0 105.6 104.87 0 0 53.16 -104.87 0 0 189.47c0,32.05 5.46,54.86 16.26,68.46 10.8,13.47 28.28,20.27 52.31,20.27 17.36,0 35.45,-4.37 54.02,-13.11l9.95 59.23c-28.04,7.16 -58.87,10.68 -92.49,10.68 -30.22,0 -55.71,-11.16 -76.59,-33.62 -20.75,-22.45 -31.19,-50.73 -31.19,-84.96l0 -216.42z"/>
   <path id="_6_41" class="fil5" d="M30095.19 23721.78l0 -239.48c0,-28.52 -6.91,-50.97 -20.87,-67.36 -13.96,-16.39 -33.62,-24.52 -58.99,-24.52 -16.27,0 -32.65,4.86 -49.16,14.45 -16.38,9.58 -29.01,20.75 -37.75,33.62l0 283.29 -67.72 0 0 -536.73 67.72 0 0 197.6c8.99,-13.95 23.55,-25.61 43.58,-34.95 19.9,-9.35 40.66,-14.08 61.9,-14.08 40.3,0 71.85,13.23 94.79,39.81 22.82,26.58 34.23,62.87 34.23,108.87l0 239.48 -67.73 0z"/>
   <path id="_7_42" class="fil5" d="M30579.49 23538.26l-274.32 0c0,44.54 12.14,78.77 36.54,102.68 21.6,20.88 49.28,31.32 83.14,31.32 38.6,0 70.76,-11.41 96.62,-34.23l28.4 48.79c-10.44,10.44 -26.46,19.55 -47.94,27.19 -27.07,10.08 -57.17,15.05 -90.31,15.05 -47.94,0 -88.6,-16.26 -121.98,-48.79 -37.27,-35.81 -55.84,-83.99 -55.84,-144.44 0,-62.87 19.06,-113.36 57.29,-151.36 34.11,-33.86 74.53,-50.85 121.26,-50.85 54.25,0 96.86,15.29 127.69,46 29.86,29.49 44.79,68.58 44.79,117.25 0,15.05 -1.82,28.77 -5.34,41.39zm-163.86 -147.84c-30.23,0 -55.47,9.83 -75.86,29.37 -19.55,18.7 -30.47,41.88 -33.14,69.68l211.2 0c0,-27.56 -8.5,-50.5 -25.61,-68.95 -18.82,-20.02 -44.31,-30.1 -76.59,-30.1z"/>
   <path id="_8_43" class="fil5" d="M31089.87 23678.08c-26.95,33.99 -68.33,50.98 -123.93,50.98 -29.85,0 -55.71,-10.92 -77.55,-32.65 -21.97,-21.72 -32.9,-48.67 -32.9,-81.08 0,-38.72 16.87,-71.37 50.62,-98.19 33.74,-26.7 76.71,-40.06 129.02,-40.06 14.2,0 30.34,3.16 48.31,9.47 0,-61.66 -27.43,-92.49 -82.42,-92.49 -42.24,0 -74.64,11.41 -97.46,34.23l-28.4 -56.8c12.86,-10.44 30.58,-19.3 53.16,-26.71 22.7,-7.4 44.3,-11.16 64.93,-11.16 55.23,0 95.41,12.62 120.41,37.75 25,25.12 37.51,65.05 37.51,119.92l0 136.67c0,33.37 9.95,55.71 29.85,66.87l0 33.5c-27.55,0 -48.18,-3.88 -61.78,-11.65 -13.71,-7.77 -23.42,-20.63 -29.37,-38.6zm-6.43 -143.46c-21.24,-4.86 -36.17,-7.29 -44.67,-7.29 -33.98,0 -61.78,8.87 -83.26,26.46 -21.49,17.6 -32.29,38.48 -32.29,62.51 0,39.69 23.3,59.6 69.79,59.6 34.11,0 64.21,-16.26 90.43,-48.79l0 -92.49z"/>
   <path id="_9_44" class="fil5" d="M31321.82 23340.9l0 243.12c0,58.87 25.49,88.24 76.35,88.24 22.33,0 42.6,-6.43 61.17,-19.18 18.45,-12.87 30.59,-27.67 36.54,-44.54l0 -267.64 67.72 0 0 380.88 -67.72 0 0 -52.68c-7.53,14.93 -22.82,28.65 -45.64,41.15 -22.94,12.5 -45.27,18.81 -67.12,18.81 -41.63,0 -73.68,-12.01 -95.77,-35.92 -22.21,-23.92 -33.26,-58.02 -33.26,-102.08l0 -250.16 67.73 0z"/>
   <path id="_10_45" class="fil5" d="M31897.39 23721.78l0 -28.04c-23.43,23.06 -57.66,34.59 -102.44,34.59 -47.71,0 -86.3,-17.11 -116.04,-51.22 -29.62,-34.1 -44.42,-79.62 -44.42,-136.55 0,-57.16 17.11,-105.96 51.22,-146.38 34.1,-40.41 74.89,-60.56 121.98,-60.56 39.45,0 69.31,9.22 89.7,27.79l0 -176.36 67.73 0 0 536.73 -67.73 0zm0 -293c-17,-25.61 -40.42,-38.36 -70.04,-38.36 -36.17,0 -65.54,13.47 -87.87,40.54 -22.46,26.95 -33.62,61.3 -33.62,103.05 0,91.64 41.75,137.52 125.13,137.52 10.56,0 23.43,-3.4 38.36,-10.07 14.93,-6.8 24.27,-13.96 28.04,-21.61l0 -211.07z"/>
   <path id="_11_46" class="fil5" d="M32130.79 23196.7c11.53,0 21.49,4.13 29.74,12.26 8.13,8.26 12.26,18.09 12.26,29.38 0,11.65 -4.13,21.6 -12.26,29.86 -8.25,8.13 -18.21,12.25 -29.74,12.25 -11.41,0 -21.24,-4.12 -29.49,-12.25 -8.13,-8.26 -12.26,-18.21 -12.26,-29.86 0,-11.53 4,-21.49 12.14,-29.5 8.01,-8.13 17.96,-12.14 29.61,-12.14zm-37.38 525.08l0 -324.08 -52.44 0 0 -56.8 120.17 0 0 380.88 -67.73 0z"/>
   <path id="_12_47" class="fil5" d="M32589.97 23538.26l-274.32 0c0,44.54 12.14,78.77 36.54,102.68 21.6,20.88 49.28,31.32 83.14,31.32 38.6,0 70.76,-11.41 96.62,-34.23l28.4 48.79c-10.44,10.44 -26.46,19.55 -47.94,27.19 -27.07,10.08 -57.17,15.05 -90.31,15.05 -47.94,0 -88.6,-16.26 -121.98,-48.79 -37.27,-35.81 -55.84,-83.99 -55.84,-144.44 0,-62.87 19.06,-113.36 57.29,-151.36 34.11,-33.86 74.53,-50.85 121.26,-50.85 54.25,0 96.86,15.29 127.69,46 29.86,29.49 44.79,68.58 44.79,117.25 0,15.05 -1.82,28.77 -5.34,41.39zm-163.86 -147.84c-30.23,0 -55.47,9.83 -75.86,29.37 -19.55,18.7 -30.47,41.88 -33.14,69.68l211.2 0c0,-27.56 -8.5,-50.5 -25.61,-68.95 -18.82,-20.02 -44.31,-30.1 -76.59,-30.1z"/>
   <path id="_13_48" class="fil5" d="M32900.68 23721.78l0 -221.76c0,-40.53 -6.06,-68.94 -18.32,-85.2 -12.14,-16.27 -32.65,-24.4 -61.3,-24.4 -15.41,0 -31.56,4.61 -48.43,13.84 -16.75,9.34 -29.73,20.63 -38.72,34.23l0 283.29 -67.72 0 0 -380.88 46.24 0 21.36 49.04c22.34,-37.51 58.75,-56.32 109.36,-56.32 83.51,0 125.26,50.73 125.26,152.33l0 235.83 -67.73 0z"/>
   <path id="_14_49" class="fil5" d="M33353.9 23371.49l-33.74 47.33c-6.92,-6.79 -19.18,-13.23 -36.78,-19.3 -17.6,-6.06 -34.83,-9.1 -51.83,-9.1 -37.01,0 -66.51,12.87 -88.24,38.72 -21.72,25.73 -32.65,61.05 -32.65,105.96 0,44.67 11.05,78.65 33.02,102.08 22.09,23.43 52.68,35.08 91.76,35.08 30.34,0 60.93,-11.65 91.76,-34.96l26.7 56.81c-36.29,23.3 -81.2,34.95 -134.85,34.95 -51.95,0 -94.91,-17.48 -128.9,-52.31 -33.86,-34.84 -50.86,-82.17 -50.86,-141.65 0,-60.81 17.73,-109.48 53.17,-146.26 35.56,-36.77 84.11,-55.22 145.65,-55.22 19.91,0 41.39,4.12 64.57,12.38 23.18,8.25 40.18,16.75 51.22,25.49z"/>
   <path id="_15_50" class="fil5" d="M33745.59 23538.26l-274.32 0c0,44.54 12.14,78.77 36.54,102.68 21.6,20.88 49.28,31.32 83.14,31.32 38.6,0 70.76,-11.41 96.62,-34.23l28.4 48.79c-10.44,10.44 -26.46,19.55 -47.94,27.19 -27.07,10.08 -57.17,15.05 -90.31,15.05 -47.94,0 -88.6,-16.26 -121.98,-48.79 -37.27,-35.81 -55.84,-83.99 -55.84,-144.44 0,-62.87 19.06,-113.36 57.29,-151.36 34.11,-33.86 74.53,-50.85 121.26,-50.85 54.25,0 96.86,15.29 127.69,46 29.86,29.49 44.79,68.58 44.79,117.25 0,15.05 -1.82,28.77 -5.34,41.39zm-163.86 -147.84c-30.23,0 -55.47,9.83 -75.86,29.37 -19.55,18.7 -30.47,41.88 -33.14,69.68l211.2 0c0,-27.56 -8.5,-50.5 -25.61,-68.95 -18.82,-20.02 -44.31,-30.1 -76.59,-30.1z"/>
   <path id="_16_51" class="fil5" d="M33903.98 23569.57l-46.85 0c-8.02,-22.57 -12.02,-38.72 -12.02,-48.79 0,-16.99 3.16,-34.47 9.35,-52.19 6.31,-17.84 20.51,-39.09 42.6,-63.85 22.09,-24.88 36.9,-43.81 44.54,-57.16 7.53,-13.23 11.29,-26.22 11.29,-38.72 0,-41.76 -25.12,-62.63 -75.49,-62.63 -24.16,0 -45.28,8.61 -63.24,25.97l-25.85 -50.98c23.91,-19.78 59.59,-29.61 106.93,-29.61 35.44,0 65.06,10.07 88.6,30.22 23.55,20.15 35.32,47.09 35.32,80.84 0,17.11 -3.03,33.5 -9.1,49.28 -5.95,15.77 -15.29,30.34 -27.92,43.57l-51.82 55.59c-20.88,25.61 -31.32,54.26 -31.32,86.06 0,4.97 1.7,15.78 4.98,32.4zm-15.17 52.44c14.68,0 27.18,5.22 37.62,15.66 10.32,10.43 15.54,22.94 15.54,37.62 0,14.81 -5.22,27.43 -15.54,37.99 -10.44,10.56 -22.94,15.78 -37.62,15.78 -14.69,0 -27.19,-5.22 -37.63,-15.78 -10.32,-10.56 -15.54,-23.18 -15.54,-37.99 0,-14.68 5.22,-27.19 15.54,-37.62 10.44,-10.44 22.94,-15.66 37.63,-15.66z"/>
   <path class="fil4" d="M16317.46 32812.53l0 146.31 170.71 0 0 61.34 -170.71 0 0 190.65 239.43 0 0 65.03 -311.85 0 0 -528.36 311.85 0 0 65.03 -239.43 0z"/>
   <path id="_1_52" class="fil4" d="M16873.66 33275.86l0 -225.02c0,-41.13 -6.16,-69.95 -18.6,-86.46 -12.31,-16.5 -33.13,-24.75 -62.19,-24.75 -15.65,0 -32.03,4.68 -49.15,14.04 -16.99,9.48 -30.17,20.94 -39.28,34.73l0 287.46 -68.73 0 0 -386.48 46.93 0 21.67 49.76c22.66,-38.06 59.61,-57.15 110.97,-57.15 84.74,0 127.1,51.48 127.1,154.57l0 239.3 -68.72 0z"/>
   <path id="_2_53" class="fil4" d="M17025.39 33381.66l37.2 -54.81c40.02,26.6 76.85,39.9 110.6,39.9 31.16,0 55.66,-5.29 73.52,-16.01 17.98,-10.71 26.98,-24.01 26.98,-39.9 0,-31.16 -22.67,-46.8 -67.87,-46.8 -7.76,0 -21.67,1.97 -41.87,5.91 -20.32,3.94 -36.09,5.91 -47.3,5.91 -54.93,0 -82.39,-20.69 -82.39,-62.2 0,-12.68 6.4,-24.26 19.21,-34.61 12.81,-10.34 28.7,-17.85 47.67,-22.41 -54.44,-25.49 -81.66,-69.83 -81.66,-133.02 0,-40.39 14.04,-74.14 42.24,-101.11 28.21,-26.97 62.94,-40.52 104.32,-40.52 38.06,0 67.74,7.88 89.17,23.52l34.36 -41.26 44.71 42.25 -41.13 31.16c17.61,22.78 26.35,52.71 26.35,89.54 0,39.04 -12.19,71.68 -36.45,98.28 -24.27,26.48 -56.17,41.63 -95.7,45.45l-56.66 5.91c-6.77,0.74 -15.76,3.32 -27.09,7.76 -11.21,4.43 -16.87,10.22 -16.87,17.36 0,9.86 11.82,14.78 35.34,14.78 10.35,0 26.48,-1.85 48.41,-5.54 21.92,-3.69 38.18,-5.54 48.77,-5.54 38.06,0 67.74,9.11 89.04,27.22 21.31,18.1 31.9,43.35 31.9,75.49 0,35.6 -15.89,64.3 -47.78,86.22 -31.9,21.8 -72.3,32.76 -121.19,32.76 -25.01,0 -51.36,-4.43 -79.07,-13.3 -27.59,-8.87 -49.89,-19.71 -66.76,-32.39zm145.33 -444.25c-23.89,0 -43.35,8.38 -58.38,25.25 -15.15,16.87 -22.66,37.44 -22.66,61.46 0,26.97 7.27,49.39 21.92,67 14.54,17.73 34.24,26.6 59.12,26.6 24.39,0 43.48,-8.62 57.27,-25.86 13.67,-17.25 20.57,-39.78 20.57,-67.74 0,-24.02 -7.39,-44.59 -22.29,-61.46 -14.78,-16.87 -33.38,-25.25 -55.55,-25.25z"/>
   <path id="_3_54" class="fil4" d="M17628.27 33231.52c-27.35,34.49 -69.35,51.73 -125.75,51.73 -30.3,0 -56.53,-11.08 -78.7,-33.13 -22.3,-22.05 -33.38,-49.39 -33.38,-82.27 0,-39.29 17.12,-72.42 51.36,-99.64 34.24,-27.1 77.84,-40.64 130.92,-40.64 14.41,0 30.79,3.2 49.02,9.6 0,-62.56 -27.84,-93.85 -83.63,-93.85 -42.86,0 -75.74,11.58 -98.9,34.74l-28.82 -57.64c13.06,-10.6 31.04,-19.59 53.95,-27.1 23.03,-7.51 44.95,-11.33 65.89,-11.33 56.04,0 96.8,12.81 122.17,38.3 25.38,25.5 38.06,66.02 38.06,121.69l0 138.68c0,33.87 10.1,56.53 30.3,67.86l0 33.99c-27.96,0 -48.9,-3.94 -62.69,-11.82 -13.92,-7.89 -23.77,-20.94 -29.8,-39.17zm-6.53 -145.58c-21.56,-4.92 -36.7,-7.38 -45.33,-7.38 -34.48,0 -62.69,8.99 -84.48,26.84 -21.8,17.86 -32.77,39.05 -32.77,63.43 0,40.28 23.65,60.47 70.82,60.47 34.61,0 65.15,-16.5 91.76,-49.51l0 -93.85z"/>
   <path id="_4_55" class="fil4" d="M17784.56 33381.66l37.2 -54.81c40.02,26.6 76.85,39.9 110.6,39.9 31.16,0 55.66,-5.29 73.52,-16.01 17.98,-10.71 26.98,-24.01 26.98,-39.9 0,-31.16 -22.67,-46.8 -67.87,-46.8 -7.76,0 -21.67,1.97 -41.87,5.91 -20.32,3.94 -36.09,5.91 -47.3,5.91 -54.93,0 -82.39,-20.69 -82.39,-62.2 0,-12.68 6.4,-24.26 19.21,-34.61 12.81,-10.34 28.7,-17.85 47.67,-22.41 -54.44,-25.49 -81.66,-69.83 -81.66,-133.02 0,-40.39 14.04,-74.14 42.24,-101.11 28.21,-26.97 62.94,-40.52 104.32,-40.52 38.06,0 67.74,7.88 89.17,23.52l34.36 -41.26 44.71 42.25 -41.13 31.16c17.61,22.78 26.35,52.71 26.35,89.54 0,39.04 -12.19,71.68 -36.45,98.28 -24.27,26.48 -56.17,41.63 -95.7,45.45l-56.66 5.91c-6.77,0.74 -15.76,3.32 -27.09,7.76 -11.21,4.43 -16.87,10.22 -16.87,17.36 0,9.86 11.82,14.78 35.34,14.78 10.35,0 26.48,-1.85 48.41,-5.54 21.92,-3.69 38.18,-5.54 48.77,-5.54 38.06,0 67.74,9.11 89.04,27.22 21.31,18.1 31.9,43.35 31.9,75.49 0,35.6 -15.89,64.3 -47.78,86.22 -31.9,21.8 -72.3,32.76 -121.19,32.76 -25.01,0 -51.36,-4.43 -79.07,-13.3 -27.59,-8.87 -49.89,-19.71 -66.76,-32.39zm145.33 -444.25c-23.89,0 -43.35,8.38 -58.38,25.25 -15.15,16.87 -22.66,37.44 -22.66,61.46 0,26.97 7.27,49.39 21.92,67 14.54,17.73 34.24,26.6 59.12,26.6 24.39,0 43.48,-8.62 57.27,-25.86 13.67,-17.25 20.57,-39.78 20.57,-67.74 0,-24.02 -7.39,-44.59 -22.29,-61.46 -14.78,-16.87 -33.38,-25.25 -55.55,-25.25z"/>
   <path id="_5_56" class="fil4" d="M18495.2 33089.64l-278.34 0c0,45.2 12.31,79.93 37.07,104.19 21.92,21.19 50,31.78 84.36,31.78 39.17,0 71.81,-11.58 98.04,-34.73l28.82 49.51c-10.59,10.59 -26.85,19.83 -48.65,27.59 -27.46,10.22 -58.01,15.27 -91.63,15.27 -48.65,0 -89.91,-16.5 -123.78,-49.51 -37.81,-36.33 -56.65,-85.23 -56.65,-146.56 0,-63.8 19.33,-115.04 58.13,-153.59 34.61,-34.36 75.62,-51.6 123.04,-51.6 55.05,0 98.28,15.52 129.56,46.68 30.3,29.93 45.45,69.58 45.45,118.97 0,15.27 -1.85,29.19 -5.42,42zm-166.27 -150.01c-30.66,0 -56.28,9.97 -76.97,29.8 -19.83,18.97 -30.92,42.49 -33.63,70.7l214.31 0c0,-27.96 -8.63,-51.24 -25.99,-69.96 -19.09,-20.32 -44.96,-30.54 -77.72,-30.54z"/>
   <path id="_6_57" class="fil4" d="M18819.61 32943.32l-45.08 0 0 -53.94 45.08 0 0 -80.8 68.72 -26.35 0 107.15 106.41 0 0 53.94 -106.41 0 0 192.26c0,32.51 5.54,55.67 16.51,69.46 10.96,13.67 28.69,20.57 53.08,20.57 17.61,0 35.96,-4.43 54.81,-13.3l10.09 60.1c-28.45,7.27 -59.73,10.84 -93.84,10.84 -30.67,0 -56.54,-11.33 -77.72,-34.12 -21.06,-22.78 -31.65,-51.48 -31.65,-86.21l0 -219.6z"/>
   <path id="_7_58" class="fil4" d="M19326.17 33275.86l0 -243c0,-28.94 -7.02,-51.73 -21.18,-68.35 -14.17,-16.63 -34.12,-24.88 -59.86,-24.88 -16.5,0 -33.13,4.93 -49.88,14.65 -16.63,9.73 -29.44,21.07 -38.3,34.12l0 287.46 -68.73 0 0 -544.62 68.73 0 0 200.51c9.11,-14.17 23.89,-25.99 44.21,-35.47 20.2,-9.49 41.26,-14.29 62.81,-14.29 40.89,0 72.92,13.42 96.19,40.4 23.16,26.97 34.73,63.79 34.73,110.47l0 243 -68.72 0z"/>
   <path id="_8_59" class="fil4" d="M19817.58 33089.64l-278.34 0c0,45.2 12.31,79.93 37.07,104.19 21.92,21.19 50,31.78 84.36,31.78 39.17,0 71.81,-11.58 98.04,-34.73l28.82 49.51c-10.59,10.59 -26.85,19.83 -48.65,27.59 -27.46,10.22 -58.01,15.27 -91.63,15.27 -48.65,0 -89.91,-16.5 -123.78,-49.51 -37.81,-36.33 -56.65,-85.23 -56.65,-146.56 0,-63.8 19.33,-115.04 58.13,-153.59 34.61,-34.36 75.62,-51.6 123.04,-51.6 55.05,0 98.28,15.52 129.56,46.68 30.3,29.93 45.45,69.58 45.45,118.97 0,15.27 -1.85,29.19 -5.42,42zm-166.27 -150.01c-30.66,0 -56.28,9.97 -76.97,29.8 -19.83,18.97 -30.92,42.49 -33.63,70.7l214.31 0c0,-27.96 -8.63,-51.24 -25.99,-69.96 -19.09,-20.32 -44.96,-30.54 -77.72,-30.54z"/>
   <path id="_9_60" class="fil4" d="M20327.72 32955.15c-14.91,-10.35 -29.93,-15.52 -45.2,-15.52 -24.27,0 -45.57,11.21 -63.68,33.5 -18.23,22.41 -27.34,49.26 -27.34,80.79l0 221.94 -68.73 0 0 -386.48 68.73 0 0 61.33c25,-45.81 62.32,-68.72 111.71,-68.72 12.19,0 29.92,2.22 53.08,6.53l-28.57 66.63z"/>
   <path id="_10_61" class="fil4" d="M20730.45 33089.64l-278.34 0c0,45.2 12.31,79.93 37.07,104.19 21.92,21.19 50,31.78 84.36,31.78 39.17,0 71.81,-11.58 98.04,-34.73l28.82 49.51c-10.59,10.59 -26.85,19.83 -48.65,27.59 -27.46,10.22 -58.01,15.27 -91.63,15.27 -48.65,0 -89.91,-16.5 -123.78,-49.51 -37.81,-36.33 -56.65,-85.23 -56.65,-146.56 0,-63.8 19.33,-115.04 58.13,-153.59 34.61,-34.36 75.62,-51.6 123.04,-51.6 55.05,0 98.28,15.52 129.56,46.68 30.3,29.93 45.45,69.58 45.45,118.97 0,15.27 -1.85,29.19 -5.42,42zm-166.27 -150.01c-30.66,0 -56.28,9.97 -76.97,29.8 -19.83,18.97 -30.92,42.49 -33.63,70.7l214.31 0c0,-27.96 -8.63,-51.24 -25.99,-69.96 -19.09,-20.32 -44.96,-30.54 -77.72,-30.54z"/>
   <path id="_11_62" class="fil4" d="M21101.9 32920.42l-34.24 48.03c-7.02,-6.9 -19.46,-13.43 -37.31,-19.58 -17.86,-6.16 -35.35,-9.24 -52.59,-9.24 -37.57,0 -67.5,13.05 -89.54,39.29 -22.05,26.11 -33.13,61.95 -33.13,107.52 0,45.32 11.2,79.81 33.5,103.58 22.41,23.77 53.45,35.59 93.11,35.59 30.79,0 61.82,-11.82 93.11,-35.47l27.09 57.64c-36.82,23.65 -82.39,35.47 -136.83,35.47 -52.71,0 -96.31,-17.74 -130.8,-53.08 -34.36,-35.35 -51.6,-83.38 -51.6,-143.73 0,-61.71 17.98,-111.09 53.94,-148.41 36.09,-37.32 85.35,-56.04 147.8,-56.04 20.19,0 41.99,4.19 65.52,12.56 23.52,8.38 40.76,17 51.97,25.87z"/>
   <path id="_12_63" class="fil4" d="M21499.34 33089.64l-278.34 0c0,45.2 12.31,79.93 37.07,104.19 21.92,21.19 50,31.78 84.36,31.78 39.17,0 71.81,-11.58 98.04,-34.73l28.82 49.51c-10.59,10.59 -26.85,19.83 -48.65,27.59 -27.46,10.22 -58.01,15.27 -91.63,15.27 -48.65,0 -89.91,-16.5 -123.78,-49.51 -37.81,-36.33 -56.65,-85.23 -56.65,-146.56 0,-63.8 19.33,-115.04 58.13,-153.59 34.61,-34.36 75.62,-51.6 123.04,-51.6 55.05,0 98.28,15.52 129.56,46.68 30.3,29.93 45.45,69.58 45.45,118.97 0,15.27 -1.85,29.19 -5.42,42zm-166.27 -150.01c-30.66,0 -56.28,9.97 -76.97,29.8 -19.83,18.97 -30.92,42.49 -33.63,70.7l214.31 0c0,-27.96 -8.63,-51.24 -25.99,-69.96 -19.09,-20.32 -44.96,-30.54 -77.72,-30.54z"/>
   <path id="_13_64" class="fil4" d="M21647.13 32743.06c11.7,0 21.8,4.19 30.18,12.44 8.25,8.38 12.43,18.35 12.43,29.81 0,11.82 -4.18,21.92 -12.43,30.29 -8.38,8.26 -18.48,12.44 -30.18,12.44 -11.58,0 -21.55,-4.18 -29.93,-12.44 -8.25,-8.37 -12.44,-18.47 -12.44,-30.29 0,-11.7 4.07,-21.8 12.32,-29.93 8.13,-8.25 18.23,-12.32 30.05,-12.32zm-37.93 532.8l0 -328.84 -53.21 0 0 -57.64 121.93 0 0 386.48 -68.72 0z"/>
   <path id="_14_65" class="fil4" d="M21926.34 33283.25l-17.74 0 -165.53 -394.61 75.38 0 101.61 270.46 104.56 -270.46 71.68 0 -169.96 394.61z"/>
   <path id="_15_66" class="fil4" d="M22474.9 33089.64l-278.34 0c0,45.2 12.31,79.93 37.07,104.19 21.92,21.19 50,31.78 84.36,31.78 39.17,0 71.81,-11.58 98.04,-34.73l28.82 49.51c-10.59,10.59 -26.85,19.83 -48.65,27.59 -27.46,10.22 -58.01,15.27 -91.63,15.27 -48.65,0 -89.91,-16.5 -123.78,-49.51 -37.81,-36.33 -56.65,-85.23 -56.65,-146.56 0,-63.8 19.33,-115.04 58.13,-153.59 34.61,-34.36 75.62,-51.6 123.04,-51.6 55.05,0 98.28,15.52 129.56,46.68 30.3,29.93 45.45,69.58 45.45,118.97 0,15.27 -1.85,29.19 -5.42,42zm-166.27 -150.01c-30.66,0 -56.28,9.97 -76.97,29.8 -19.83,18.97 -30.92,42.49 -33.63,70.7l214.31 0c0,-27.96 -8.63,-51.24 -25.99,-69.96 -19.09,-20.32 -44.96,-30.54 -77.72,-30.54z"/>
   <path id="_16_67" class="fil4" d="M22762.36 32955.15c-14.91,-10.35 -29.93,-15.52 -45.2,-15.52 -24.27,0 -45.57,11.21 -63.68,33.5 -18.23,22.41 -27.34,49.26 -27.34,80.79l0 221.94 -68.73 0 0 -386.48 68.73 0 0 61.33c25,-45.81 62.32,-68.72 111.71,-68.72 12.19,0 29.92,2.22 53.08,6.53l-28.57 66.63z"/>
   <path id="_17_68" class="fil4" d="M22922.83 33121.42l-47.54 0c-8.13,-22.91 -12.19,-39.29 -12.19,-49.52 0,-17.24 3.2,-34.97 9.48,-52.96 6.41,-18.1 20.82,-39.65 43.23,-64.78 22.42,-25.25 37.44,-44.46 45.2,-58.01 7.64,-13.42 11.46,-26.6 11.46,-39.29 0,-42.36 -25.5,-63.55 -76.61,-63.55 -24.51,0 -45.94,8.75 -64.17,26.36l-26.23 -51.73c24.26,-20.07 60.47,-30.05 108.5,-30.05 35.97,0 66.02,10.22 89.91,30.67 23.9,20.44 35.84,47.78 35.84,82.02 0,17.37 -3.08,34 -9.23,50.01 -6.04,16.01 -15.52,30.79 -28.33,44.21l-52.59 56.41c-21.19,25.99 -31.78,55.05 -31.78,87.32 0,5.05 1.73,16.01 5.05,32.89zm-15.39 53.2c14.9,0 27.59,5.3 38.18,15.89 10.47,10.59 15.76,23.28 15.76,38.18 0,15.02 -5.29,27.83 -15.76,38.55 -10.59,10.71 -23.28,16.01 -38.18,16.01 -14.91,0 -27.59,-5.3 -38.18,-16.01 -10.47,-10.72 -15.77,-23.53 -15.77,-38.55 0,-14.9 5.3,-27.59 15.77,-38.18 10.59,-10.59 23.27,-15.89 38.18,-15.89z"/>
   <g>
    <g style="clip-path:url(#id3)">
     <image x="8852.03" y="220.24" width="19949.09" height="17589.75" xlink:href="Communication Activator Pic_Images\Communication Activator Pic_ImgID4.png"/>
    </g>
   </g>
   <path class="fil6" d="M19048.04 1686.05c2839.13,0 5359.61,1363.06 6943.58,3470.24 209.05,251.58 393.2,526.56 547.78,821.96 9.32,15.87 18.81,31.61 28.03,47.53l-3.45 0.01c113.51,223.07 210.29,457.49 288.32,702.01l310.54 -64.76c51.51,-10.75 101.06,5.57 136.09,44.79 35.07,39.26 45.7,90.3 29.27,140.28l-256.08 777.93 -256.11 777.96c-16.45,49.95 -55.36,84.7 -106.85,95.44 -51.5,10.75 -101.06,-5.55 -136.1,-44.79l-545.67 -610.76 -545.67 -610.75c-35.03,-39.25 -45.69,-90.3 -29.23,-140.27 16.44,-49.97 55.35,-84.72 106.84,-95.46l227.16 -47.36c-107.2,-302.89 -252.15,-584.5 -428.18,-840.6 -1073.31,150.37 -2136.21,505.48 -3132.49,1080.67 -1983.26,1145.03 -3343.26,2954.57 -3962.35,4984.89 -2499.93,282.2 -4596.02,1896.37 -5562.27,4115.89 -1448.24,-1551.22 -2335,-3633.39 -2335,-5923 0,-4794.86 3886.98,-8681.85 8681.84,-8681.85z"/>
   <g>
    <g style="clip-path:url(#id4)">
     <image x="1748.2" y="4558.63" width="13174.17" height="19930.88" xlink:href="Communication Activator Pic_Images\Communication Activator Pic_ImgID5.png"/>
    </g>
   </g>
   <path class="fil7" d="M4010.64 10367.9c1606.48,-2782.5 4520.65,-4339.07 7518.01,-4342.12l-0.02 0.03c251.04,-4.88 504.99,10.37 759.87,47.03l77.32 -307.67c12.82,-51.03 49.11,-88.48 99.71,-102.89 50.6,-14.41 101.18,-1.7 138.96,34.91l588.1 570.01 588.1 570.01c37.78,36.62 52.07,86.78 39.24,137.81 -12.82,51 -49.13,88.47 -99.72,102.88l-787.69 224.31 -787.7 224.3c-50.59,14.4 -101.17,1.69 -138.96,-34.92 -37.77,-36.62 -52.06,-86.78 -39.23,-137.81l56.55 -225.03c-355.21,-39.81 -707.11,-26.14 -1046.46,35.41 -393.87,991.24 -610.52,2072.16 -610.52,3203.74 0,2289.61 886.76,4371.78 2335,5923 -367.95,845.28 -572.43,1778.12 -572.43,2758.84 0,1542.2 504.76,2966.39 1357.79,4116.85 -2067.83,478.98 -4314.9,205.94 -6298.14,-939.08 -4152.46,-2397.41 -5575.2,-7707.15 -3177.78,-11859.61z"/>
   <g>
    <g style="clip-path:url(#id5)">
     <image x="1362.62" y="15755.03" width="19953.53" height="17802.47" xlink:href="Communication Activator Pic_Images\Communication Activator Pic_ImgID6.png"/>
    </g>
   </g>
   <path class="fil8" d="M4010.64 27731.59c-1606.47,-2782.51 -1497.41,-6084.53 -1.37,-8681.86l0.01 0.02c154.53,-321.1 347.57,-628.34 579.15,-914.8l-224.81 -223.83c-37.29,-37.11 -50.91,-87.46 -37.4,-138.31 13.51,-50.85 50.31,-87.81 101.1,-101.54l790.62 -213.72 790.64 -213.71c50.79,-13.73 101.2,-0.34 138.48,36.77 37.27,37.12 50.89,87.48 37.39,138.32l-210.24 791.57 -210.24 791.56c-13.51,50.84 -50.29,87.8 -101.09,101.54 -50.78,13.73 -101.19,0.34 -138.47,-36.79l-164.44 -163.71c-286.01,377.32 -488.41,797.67 -607.39,1235.9 655.89,819.08 1472.32,1532.22 2435.84,2088.51 1983.24,1145.02 4230.31,1418.06 6298.14,939.08 1260.67,1700.25 3282.27,2802.42 5561.48,2802.42 265.33,0 527.02,-15.46 784.58,-44.53 -619.1,2030.32 -1979.1,3839.85 -3962.36,4984.88 -4152.46,2397.43 -9462.19,974.69 -11859.62,-3177.77z"/>
   <path class="fil4" d="M4126.52 13791.15l0 -1264.49 224.6 0 0 1264.49 -224.6 0z"/>
   <path id="_1_69" class="fil4" d="M5793.05 13791.15l-217.52 0 -131.76 -680.88 -253.78 698.57 -79.58 0 -253.79 -698.57 -135.29 680.88 -217.53 0 254.67 -1264.49 118.49 0 273.24 852.42 266.16 -852.42 118.49 0 258.2 1264.49z"/>
   <path id="_2_70" class="fil4" d="M6155.89 13325.14l0 466.01 -224.6 0 0 -1263.9c149.74,-6.19 237.28,-9.43 262.63,-9.43 200.13,0 346.33,30.65 438.59,91.96 92.55,61.31 138.83,156.81 138.83,286.79 0,289.75 -171.25,434.76 -513.46,434.76 -25.35,0 -59.25,-2.06 -101.99,-6.19zm0 -603.06l0 403.22c38.03,4.13 68.09,6.19 89.9,6.19 102.58,0 177.45,-17.09 224.9,-51.29 47.16,-33.89 70.74,-89.6 70.74,-166.24 0,-130.87 -105.82,-196.3 -317.15,-196.3 -23.58,0 -46.57,1.47 -68.39,4.42z"/>
   <path id="_3_71" class="fil4" d="M7578.96 13791.15l-92.85 -256.44 -435.64 0 -88.72 256.44 -249.36 0 505.79 -1282.18 99.04 0 509.33 1282.18 -247.59 0zm-311.26 -894.87l-152.97 466.89 305.65 0 -152.68 -466.89z"/>
   <path id="_4_72" class="fil4" d="M8826.36 12593.86l-92.56 185.7c-50.11,-49.52 -130.87,-74.28 -241.99,-74.28 -105.52,0 -191.88,44.21 -259.38,132.34 -67.5,88.13 -101.1,199.55 -101.1,334.55 0,135 31.24,242.29 93.73,321.57 62.49,79.29 145.9,118.79 250.24,118.79 119.38,0 212.52,-42.74 280.02,-128.22l104.64 181.28c-91.67,97.85 -225.78,146.78 -402.93,146.78 -176.85,0 -314.21,-58.06 -412.07,-174.2 -98.15,-116.13 -147.08,-274.71 -147.08,-475.43 0,-186.88 54.24,-343.1 163,-468.96 108.47,-125.56 247.59,-188.34 417.08,-188.34 145.31,0 261.44,29.47 348.4,88.42z"/>
   <path id="_5_73" class="fil4" d="M9554.69 12726.5l0 1064.65 -224.6 0 0 -1064.65 -403.22 0 0 -199.84 1048.73 0 0 199.84 -420.91 0z"/>
   <path class="fil4" d="M4973.79 14303.81l-31.51 80.55c-30.23,-22.19 -77.5,-33.28 -142.29,-33.28 -60.45,0 -109,26.05 -145.66,78.14 -36.49,52.25 -54.82,119.45 -54.82,201.61 0,78.61 18.81,142.28 56.27,190.99 37.46,48.88 85.85,73.32 145.18,73.32 64.47,0 114.31,-22.67 149.03,-68.17l51.77 72.03c-54.66,54.02 -124.92,81.03 -210.93,81.03 -90.19,0 -161.1,-32.48 -213.03,-97.59 -51.76,-64.96 -77.65,-150.65 -77.65,-257.24 0,-103.06 27.65,-188.59 82.96,-256.76 55.31,-68.16 126.69,-102.25 214.47,-102.25 75.08,0 133.77,12.54 176.21,37.62z"/>
   <path id="_1_74" class="fil4" d="M5387.62 14910.57c-35.69,45.02 -90.51,67.53 -164.15,67.53 -39.55,0 -73.79,-14.47 -102.73,-43.25 -29.1,-28.78 -43.57,-64.47 -43.57,-107.4 0,-51.28 22.35,-94.53 67.04,-130.06 44.7,-35.37 101.61,-53.06 170.91,-53.06 18.81,0 40.19,4.18 63.98,12.54 0,-81.67 -36.33,-122.51 -109.16,-122.51 -55.95,0 -98.88,15.11 -129.1,45.34l-37.62 -75.24c17.04,-13.83 40.51,-25.56 70.41,-35.37 30.07,-9.81 58.69,-14.79 86.02,-14.79 73.15,0 126.37,16.72 159.49,50 33.12,33.28 49.67,86.17 49.67,158.84l0 181.03c0,44.21 13.19,73.8 39.56,88.59l0 44.37c-36.5,0 -63.83,-5.14 -81.84,-15.43 -18.17,-10.29 -31.03,-27.33 -38.91,-51.13zm-8.52 -190.03c-28.13,-6.43 -47.91,-9.65 -59.16,-9.65 -45.02,0 -81.83,11.74 -110.29,35.05 -28.46,23.31 -42.77,50.96 -42.77,82.8 0,52.57 30.87,78.94 92.45,78.94 45.17,0 85.05,-21.55 119.77,-64.63l0 -122.51z"/>
   <path id="_2_75" class="fil4" d="M5920.59 14968.45l0 -293.73c0,-53.7 -8.04,-91.32 -24.28,-112.87 -16.07,-21.54 -43.24,-32.31 -81.19,-32.31 -20.42,0 -41.8,6.11 -64.15,18.33 -22.18,12.38 -39.39,27.33 -51.28,45.34l0 375.24 -89.71 0 0 -504.51 61.25 0 28.3 64.96c29.58,-49.68 77.81,-74.6 144.85,-74.6 110.62,0 165.92,67.2 165.92,201.77l0 312.38 -89.71 0z"/>
   <path id="_3_76" class="fil4" d="M6519.63 14272.94c15.27,0 28.46,5.47 39.39,16.24 10.77,10.94 16.24,23.96 16.24,38.91 0,15.43 -5.47,28.62 -16.24,39.55 -10.93,10.77 -24.12,16.24 -39.39,16.24 -15.11,0 -28.14,-5.47 -39.07,-16.24 -10.77,-10.93 -16.24,-24.12 -16.24,-39.55 0,-15.27 5.31,-28.46 16.08,-39.07 10.61,-10.77 23.79,-16.08 39.23,-16.08zm-49.52 695.51l0 -429.26 -69.45 0 0 -75.25 159.16 0 0 504.51 -89.71 0z"/>
   <path id="_4_77" class="fil4" d="M6734.58 14534.36l-58.84 0 0 -70.42 58.84 0 0 -105.46 89.71 -34.41 0 139.87 138.91 0 0 70.42 -138.91 0 0 250.97c0,42.44 7.24,72.67 21.54,90.68 14.31,17.84 37.46,26.84 69.3,26.84 22.99,0 46.94,-5.78 71.54,-17.36l13.19 78.46c-37.14,9.48 -77.98,14.15 -122.51,14.15 -40.04,0 -73.8,-14.79 -101.45,-44.54 -27.49,-29.74 -41.32,-67.2 -41.32,-112.54l0 -286.66z"/>
   <path id="_5_78" class="fil4" d="M7960.48 14968.45l0 -319.62c0,-79.58 -34.41,-119.29 -103.22,-119.29 -21.7,0 -41.96,6.75 -60.77,20.1 -18.81,13.34 -31.67,28.45 -38.59,45.49l0 373.32 -89.71 0 0 -358.85c0,-24.76 -9.32,-44.37 -27.97,-58.68 -18.81,-14.31 -43.41,-21.38 -74.28,-21.38 -17.85,0 -36.98,6.91 -57.23,20.74 -20.26,13.83 -34.57,29.1 -43.09,45.82l0 372.35 -89.71 0 0 -504.51 58.52 0 29.58 57.88c34.73,-45.01 77.81,-67.52 129.74,-67.52 72.35,0 122.83,22.51 151.77,67.52 10.13,-19.13 28.78,-35.21 56.11,-48.23 27.34,-12.86 55.47,-19.29 84.41,-19.29 52.25,0 92.61,15.43 121.22,46.46 28.62,30.87 42.93,74.28 42.93,130.23l0 337.46 -89.71 0z"/>
   <path id="_6_79" class="fil4" d="M8460.96 14910.57c-35.69,45.02 -90.51,67.53 -164.15,67.53 -39.55,0 -73.79,-14.47 -102.73,-43.25 -29.1,-28.78 -43.57,-64.47 -43.57,-107.4 0,-51.28 22.35,-94.53 67.04,-130.06 44.7,-35.37 101.61,-53.06 170.91,-53.06 18.81,0 40.19,4.18 63.98,12.54 0,-81.67 -36.33,-122.51 -109.16,-122.51 -55.95,0 -98.88,15.11 -129.1,45.34l-37.62 -75.24c17.04,-13.83 40.51,-25.56 70.41,-35.37 30.07,-9.81 58.69,-14.79 86.02,-14.79 73.15,0 126.37,16.72 159.49,50 33.12,33.28 49.67,86.17 49.67,158.84l0 181.03c0,44.21 13.19,73.8 39.56,88.59l0 44.37c-36.5,0 -63.83,-5.14 -81.84,-15.43 -18.17,-10.29 -31.03,-27.33 -38.91,-51.13zm-8.52 -190.03c-28.13,-6.43 -47.91,-9.65 -59.16,-9.65 -45.02,0 -81.83,11.74 -110.29,35.05 -28.46,23.31 -42.77,50.96 -42.77,82.8 0,52.57 30.87,78.94 92.45,78.94 45.17,0 85.05,-21.55 119.77,-64.63l0 -122.51z"/>
   <path id="_7_80" class="fil4" d="M9009.36 14968.45l-158.04 -252.57 -78.29 80.7 0 171.87 -89.71 0 0 -710.94 89.71 0 0 440.68 193.89 -234.25 104.18 0 -161.74 191.65 197.43 312.86 -97.43 0z"/>
   <path id="_8_81" class="fil4" d="M9594.9 14725.36l-363.35 0c0,59 16.08,104.34 48.4,136.01 28.61,27.66 65.27,41.48 110.13,41.48 51.12,0 93.73,-15.11 127.97,-45.33l37.62 64.63c-13.82,13.82 -35.05,25.88 -63.5,36.01 -35.86,13.34 -75.73,19.94 -119.62,19.94 -63.5,0 -117.36,-21.55 -161.58,-64.63 -49.35,-47.43 -73.95,-111.26 -73.95,-191.32 0,-83.29 25.24,-150.17 75.88,-200.49 45.18,-44.85 98.72,-67.36 160.62,-67.36 71.86,0 128.29,20.25 169.13,60.93 39.55,39.07 59.32,90.84 59.32,155.31 0,19.93 -2.41,38.1 -7.07,54.82zm-217.04 -195.82c-40.04,0 -73.48,13.02 -100.49,38.91 -25.88,24.76 -40.35,55.46 -43.89,92.28l279.75 0c0,-36.5 -11.26,-66.88 -33.93,-91.32 -24.91,-26.53 -58.68,-39.87 -101.44,-39.87z"/>
   <path id="_9_82" class="fil4" d="M5066.07 15817.35c-35.69,45.02 -90.51,67.53 -164.15,67.53 -39.55,0 -73.79,-14.47 -102.73,-43.25 -29.1,-28.78 -43.57,-64.47 -43.57,-107.4 0,-51.28 22.35,-94.53 67.04,-130.06 44.7,-35.37 101.61,-53.06 170.91,-53.06 18.81,0 40.19,4.18 63.98,12.54 0,-81.67 -36.33,-122.51 -109.16,-122.51 -55.95,0 -98.88,15.11 -129.1,45.34l-37.62 -75.24c17.04,-13.83 40.51,-25.56 70.41,-35.37 30.07,-9.81 58.69,-14.79 86.02,-14.79 73.15,0 126.37,16.72 159.49,50 33.12,33.28 49.67,86.17 49.67,158.84l0 181.03c0,44.21 13.19,73.8 39.56,88.59l0 44.37c-36.5,0 -63.83,-5.14 -81.84,-15.43 -18.17,-10.29 -31.03,-27.33 -38.91,-51.13zm-8.52 -190.03c-28.13,-6.43 -47.91,-9.65 -59.16,-9.65 -45.02,0 -81.83,11.74 -110.29,35.05 -28.46,23.31 -42.77,50.96 -42.77,82.8 0,52.57 30.87,78.94 92.45,78.94 45.17,0 85.05,-21.55 119.77,-64.63l0 -122.51z"/>
   <path id="_10_83" class="fil4" d="M5599.04 15875.23l0 -293.73c0,-53.7 -8.04,-91.32 -24.28,-112.87 -16.07,-21.54 -43.24,-32.31 -81.19,-32.31 -20.42,0 -41.8,6.11 -64.15,18.33 -22.18,12.38 -39.39,27.33 -51.28,45.34l0 375.24 -89.71 0 0 -504.51 61.25 0 28.3 64.96c29.58,-49.68 77.81,-74.6 144.85,-74.6 110.62,0 165.92,67.2 165.92,201.77l0 312.38 -89.71 0z"/>
   <path id="_11_84" class="fil4" d="M6198.08 15179.72c15.27,0 28.46,5.47 39.39,16.24 10.77,10.94 16.24,23.96 16.24,38.91 0,15.43 -5.47,28.62 -16.24,39.55 -10.93,10.77 -24.12,16.24 -39.39,16.24 -15.11,0 -28.14,-5.47 -39.07,-16.24 -10.77,-10.93 -16.24,-24.12 -16.24,-39.55 0,-15.27 5.31,-28.46 16.08,-39.07 10.61,-10.77 23.79,-16.08 39.23,-16.08zm-49.52 695.51l0 -429.26 -69.45 0 0 -75.25 159.16 0 0 504.51 -89.71 0z"/>
   <path id="_12_85" class="fil4" d="M6965.77 15875.23l0 -319.62c0,-79.58 -34.41,-119.29 -103.22,-119.29 -21.7,0 -41.96,6.75 -60.77,20.1 -18.81,13.34 -31.67,28.45 -38.59,45.49l0 373.32 -89.71 0 0 -358.85c0,-24.76 -9.32,-44.37 -27.97,-58.68 -18.81,-14.31 -43.41,-21.38 -74.28,-21.38 -17.85,0 -36.98,6.91 -57.23,20.74 -20.26,13.83 -34.57,29.1 -43.09,45.82l0 372.35 -89.71 0 0 -504.51 58.52 0 29.58 57.88c34.73,-45.01 77.81,-67.52 129.74,-67.52 72.35,0 122.83,22.51 151.77,67.52 10.13,-19.13 28.78,-35.21 56.11,-48.23 27.34,-12.86 55.47,-19.29 84.41,-19.29 52.25,0 92.61,15.43 121.22,46.46 28.62,30.87 42.93,74.28 42.93,130.23l0 337.46 -89.71 0z"/>
   <path id="_13_86" class="fil4" d="M7271.56 15847.74l0 225.24 -89.71 0 0 -702.26 89.71 0 0 41.48c33.92,-34.08 74.92,-51.12 122.99,-51.12 71.7,0 127.49,22.34 167.36,66.88 39.88,44.69 59.81,110.13 59.81,196.14 0,76.69 -20.09,139.39 -60.29,187.95 -40.19,48.55 -98.39,72.83 -174.44,72.83 -21.38,0 -44.21,-3.7 -68.49,-11.26 -24.43,-7.55 -40.03,-16.24 -46.94,-25.88zm0 -368.49l0 294.53c5.62,8.52 17.52,16.56 35.85,24.28 18.17,7.72 35.85,11.57 53.06,11.57 111.09,0 166.72,-62.86 166.72,-188.74 0,-63.83 -13.19,-110.62 -39.55,-140.2 -26.37,-29.58 -68.49,-44.37 -126.69,-44.37 -12.54,0 -27.82,4.34 -46.14,13.18 -18.17,8.84 -32.64,18.81 -43.25,29.75z"/>
   <path id="_14_87" class="fil4" d="M8003.72 15817.35c-35.69,45.02 -90.51,67.53 -164.15,67.53 -39.55,0 -73.79,-14.47 -102.73,-43.25 -29.1,-28.78 -43.57,-64.47 -43.57,-107.4 0,-51.28 22.35,-94.53 67.04,-130.06 44.7,-35.37 101.61,-53.06 170.91,-53.06 18.81,0 40.19,4.18 63.98,12.54 0,-81.67 -36.33,-122.51 -109.16,-122.51 -55.95,0 -98.88,15.11 -129.1,45.34l-37.62 -75.24c17.04,-13.83 40.51,-25.56 70.41,-35.37 30.07,-9.81 58.69,-14.79 86.02,-14.79 73.15,0 126.37,16.72 159.49,50 33.12,33.28 49.67,86.17 49.67,158.84l0 181.03c0,44.21 13.19,73.8 39.56,88.59l0 44.37c-36.5,0 -63.83,-5.14 -81.84,-15.43 -18.17,-10.29 -31.03,-27.33 -38.91,-51.13zm-8.52 -190.03c-28.13,-6.43 -47.91,-9.65 -59.16,-9.65 -45.02,0 -81.83,11.74 -110.29,35.05 -28.46,23.31 -42.77,50.96 -42.77,82.8 0,52.57 30.87,78.94 92.45,78.94 45.17,0 85.05,-21.55 119.77,-64.63l0 -122.51z"/>
   <path id="_15_88" class="fil4" d="M8610 15411.24l-44.69 62.7c-9.17,-9 -25.4,-17.52 -48.72,-25.56 -23.31,-8.04 -46.14,-12.06 -68.65,-12.06 -49.03,0 -88.1,17.04 -116.88,51.29 -28.78,34.08 -43.25,80.86 -43.25,140.35 0,59.17 14.63,104.18 43.73,135.21 29.26,31.03 69.78,46.46 121.55,46.46 40.19,0 80.71,-15.43 121.54,-46.3l35.37 75.24c-48.07,30.87 -107.55,46.31 -178.62,46.31 -68.81,0 -125.72,-23.15 -170.74,-69.3 -44.85,-46.14 -67.36,-108.84 -67.36,-187.62 0,-80.55 23.47,-145.02 70.42,-193.73 47.1,-48.72 111.41,-73.15 192.93,-73.15 26.36,0 54.82,5.46 85.53,16.4 30.7,10.93 53.21,22.18 67.84,33.76z"/>
   <path id="_16_89" class="fil4" d="M8735.57 15441.14l-58.84 0 0 -70.42 58.84 0 0 -105.46 89.71 -34.41 0 139.87 138.91 0 0 70.42 -138.91 0 0 250.97c0,42.44 7.24,72.67 21.54,90.68 14.31,17.84 37.46,26.84 69.3,26.84 22.99,0 46.94,-5.78 71.54,-17.36l13.19 78.46c-37.14,9.48 -77.98,14.15 -122.51,14.15 -40.04,0 -73.8,-14.79 -101.45,-44.54 -27.49,-29.74 -41.32,-67.2 -41.32,-112.54l0 -286.66z"/>
   <path id="_17_90" class="fil4" d="M9195.06 15673.62l-62.06 0c-10.61,-29.9 -15.92,-51.29 -15.92,-64.63 0,-22.51 4.18,-45.66 12.38,-69.13 8.36,-23.64 27.17,-51.77 56.44,-84.57 29.26,-32.96 48.87,-58.04 59,-75.72 9.97,-17.53 14.95,-34.73 14.95,-51.29 0,-55.31 -33.28,-82.96 -100,-82.96 -31.99,0 -59.97,11.41 -83.76,34.41l-34.25 -67.53c31.68,-26.21 78.94,-39.23 141.64,-39.23 46.95,0 86.18,13.35 117.37,40.03 31.19,26.69 46.78,62.38 46.78,107.08 0,22.67 -4.02,44.37 -12.05,65.27 -7.88,20.9 -20.26,40.2 -36.98,57.72l-68.65 73.64c-27.66,33.92 -41.48,71.86 -41.48,113.98 0,6.6 2.25,20.9 6.59,42.93zm-20.1 69.45c19.46,0 36.02,6.92 49.84,20.74 13.67,13.83 20.58,30.39 20.58,49.84 0,19.62 -6.91,36.34 -20.58,50.33 -13.82,13.98 -30.38,20.9 -49.84,20.9 -19.45,0 -36.01,-6.92 -49.84,-20.9 -13.66,-13.99 -20.58,-30.71 -20.58,-50.33 0,-19.45 6.92,-36.01 20.58,-49.84 13.83,-13.82 30.39,-20.74 49.84,-20.74z"/>
   <path class="fil5" d="M8140.43 25824.07l-92.56 185.7c-50.11,-49.52 -130.87,-74.28 -241.99,-74.28 -105.52,0 -191.88,44.21 -259.38,132.34 -67.5,88.13 -101.1,199.55 -101.1,334.55 0,135 31.24,242.29 93.73,321.57 62.49,79.29 145.9,118.79 250.24,118.79 119.38,0 212.52,-42.74 280.02,-128.22l104.64 181.28c-91.67,97.85 -225.78,146.78 -402.93,146.78 -176.85,0 -314.21,-58.06 -412.07,-174.2 -98.15,-116.13 -147.08,-274.71 -147.08,-475.43 0,-186.88 54.24,-343.1 163,-468.96 108.47,-125.56 247.59,-188.34 417.08,-188.34 145.31,0 261.44,29.47 348.4,88.42z"/>
   <path id="_1_91" class="fil5" d="M8293.99 26377.91c0,-180.09 49.23,-332.48 147.97,-457.16 98.74,-124.68 230.79,-186.87 396.15,-186.87 181.86,0 320.98,56.3 417.07,169.19 96.09,112.89 144.14,271.17 144.14,474.84 0,203.68 -50.11,365.5 -150.62,485.17 -100.51,119.67 -243.17,179.5 -427.98,179.5 -169.78,0 -300.06,-59.24 -390.85,-177.73 -90.49,-118.79 -135.88,-280.9 -135.88,-486.94zm233.45 0c0,147.67 25.05,262.04 75.16,343.1 49.81,81.05 122.62,121.73 218.12,121.73 112.3,0 197.78,-39.79 256.73,-119.08 58.95,-79.29 88.42,-194.54 88.42,-345.75 0,-296.22 -109.35,-444.19 -327.76,-444.19 -100.22,0 -176.86,40.09 -230.5,120.26 -53.35,80.17 -80.17,188.35 -80.17,323.93z"/>
   <path id="_2_92" class="fil5" d="M10427.12 27039.05l-613.68 -801.14 0 783.45 -215.76 0 0 -1264.49 107.88 0 597.76 764 0 -764 215.76 0 0 1282.18 -91.96 0z"/>
   <path id="_3_93" class="fil5" d="M11250.37 27039.05l-123.8 0 -473.96 -1282.18 247.59 0 292.69 854.19 308.61 -854.19 242.28 0 -493.41 1282.18z"/>
   <path id="_4_94" class="fil5" d="M12101.91 25956.71l0 295.34 410.3 0 0 191 -410.3 0 0 378.47 574.77 0 0 199.84 -799.37 0 0 -1264.49 799.37 0 0 199.84 -574.77 0z"/>
   <path id="_5_95" class="fil5" d="M13410.32 26502.59l0 518.77 -224.6 0 0 -518.77 -426.21 -745.72 238.75 0 299.47 539.4 300.05 -539.4 236.99 0 -424.45 745.72z"/>
   <path class="fil5" d="M6874.79 28049.56l-76.33 -414.62 -141.37 423.65 -21.68 0 -145.89 -423.65 -74.52 414.62 -84.01 0 121.04 -645.87 39.75 0 154.92 471.53 141.37 -471.53 39.75 0 130.98 645.87 -84.01 0z"/>
   <path id="_1_96" class="fil5" d="M7421.45 27821.92l-340.25 0c0,55.26 15.06,97.71 45.32,127.37 26.8,25.9 61.12,38.84 103.13,38.84 47.87,0 87.77,-14.15 119.84,-42.45l35.23 60.52c-12.95,12.95 -32.82,24.24 -59.47,33.72 -33.57,12.5 -70.91,18.67 -112.01,18.67 -59.47,0 -109.91,-20.17 -151.31,-60.52 -46.22,-44.41 -69.25,-104.18 -69.25,-179.16 0,-77.98 23.63,-140.61 71.06,-187.74 42.3,-42 92.44,-63.08 150.4,-63.08 67.3,0 120.14,18.97 158.38,57.06 37.04,36.58 55.56,85.06 55.56,145.43 0,18.67 -2.26,35.69 -6.63,51.34zm-203.24 -183.37c-37.49,0 -68.81,12.19 -94.1,36.43 -24.24,23.19 -37.79,51.94 -41.1,86.42l261.96 0c0,-34.17 -10.54,-62.63 -31.77,-85.51 -23.33,-24.84 -54.95,-37.34 -94.99,-37.34z"/>
   <path id="_2_97" class="fil5" d="M7485.29 28021.56l29.5 -79.5c46.68,30.72 84.16,46.07 112.62,46.07 51.64,0 77.38,-21.83 77.38,-65.34 0,-31.31 -24.99,-58.11 -74.97,-80.54 -38.39,-17.62 -64.29,-31.02 -77.69,-40.2 -13.4,-9.03 -24.99,-19.42 -34.78,-31.01 -9.93,-11.75 -17.31,-24.09 -22.13,-37.19 -4.81,-13.1 -7.22,-27.1 -7.22,-42.16 0,-38.84 14.15,-69.1 42.45,-90.93 28.31,-21.83 65.19,-32.67 110.81,-32.67 34.48,0 77.99,10.84 130.38,32.67l-23.79 77.54c-33.27,-26.5 -66.69,-39.75 -100.27,-39.75 -20.02,0 -36.88,4.67 -50.58,14.15 -13.7,9.49 -20.48,21.38 -20.48,35.83 0,30.26 17.16,53.3 51.49,68.96l60.07 27.4c36.59,16.71 63.38,35.83 80.1,57.36 16.71,21.53 25.14,48.48 25.14,80.85 0,42.3 -14.91,75.57 -44.57,99.51 -29.65,23.94 -70.76,35.98 -123.3,35.98 -49.68,0 -96.35,-12.34 -140.16,-37.03z"/>
   <path id="_3_98" class="fil5" d="M7850.98 28021.56l29.5 -79.5c46.68,30.72 84.16,46.07 112.62,46.07 51.64,0 77.38,-21.83 77.38,-65.34 0,-31.31 -24.99,-58.11 -74.97,-80.54 -38.39,-17.62 -64.29,-31.02 -77.69,-40.2 -13.4,-9.03 -24.99,-19.42 -34.78,-31.01 -9.93,-11.75 -17.31,-24.09 -22.13,-37.19 -4.81,-13.1 -7.22,-27.1 -7.22,-42.16 0,-38.84 14.15,-69.1 42.45,-90.93 28.31,-21.83 65.19,-32.67 110.81,-32.67 34.48,0 77.99,10.84 130.38,32.67l-23.79 77.54c-33.27,-26.5 -66.69,-39.75 -100.27,-39.75 -20.02,0 -36.88,4.67 -50.58,14.15 -13.7,9.49 -20.48,21.38 -20.48,35.83 0,30.26 17.16,53.3 51.49,68.96l60.07 27.4c36.59,16.71 63.38,35.83 80.1,57.36 16.71,21.53 25.14,48.48 25.14,80.85 0,42.3 -14.91,75.57 -44.57,99.51 -29.65,23.94 -70.76,35.98 -123.3,35.98 -49.68,0 -96.35,-12.34 -140.16,-37.03z"/>
   <path id="_4_99" class="fil5" d="M8513.71 27995.36c-33.42,42.16 -84.76,63.23 -153.72,63.23 -37.03,0 -69.1,-13.55 -96.2,-40.5 -27.25,-26.94 -40.8,-60.37 -40.8,-100.57 0,-48.02 20.93,-88.52 62.78,-121.79 41.85,-33.12 95.15,-49.69 160.04,-49.69 17.61,0 37.64,3.92 59.92,11.75 0,-76.48 -34.03,-114.72 -102.23,-114.72 -52.39,0 -92.59,14.15 -120.89,42.45l-35.23 -70.46c15.96,-12.94 37.94,-23.93 65.94,-33.12 28.15,-9.18 54.95,-13.85 80.55,-13.85 68.5,0 118.33,15.66 149.35,46.82 31.01,31.17 46.52,80.7 46.52,148.75l0 169.52c0,41.4 12.34,69.11 37.03,82.96l0 41.55c-34.17,0 -59.77,-4.82 -76.63,-14.45 -17.01,-9.64 -29.05,-25.6 -36.43,-47.88zm-7.98 -177.95c-26.35,-6.03 -44.87,-9.04 -55.4,-9.04 -42.16,0 -76.64,10.99 -103.28,32.82 -26.65,21.83 -40.05,47.73 -40.05,77.54 0,49.23 28.9,73.92 86.57,73.92 42.3,0 79.64,-20.17 112.16,-60.52l0 -114.72z"/>
   <path id="_5_100" class="fil5" d="M8704.76 28178.89l45.46 -67c48.93,32.52 93.95,48.78 135.2,48.78 38.09,0 68.05,-6.48 89.88,-19.57 21.98,-13.1 32.97,-29.36 32.97,-48.78 0,-38.09 -27.7,-57.21 -82.95,-57.21 -9.49,0 -26.5,2.41 -51.19,7.22 -24.84,4.82 -44.11,7.23 -57.81,7.23 -67.15,0 -100.72,-25.29 -100.72,-76.03 0,-15.51 7.82,-29.66 23.48,-42.3 15.66,-12.65 35.08,-21.84 58.27,-27.41 -66.55,-31.16 -99.82,-85.36 -99.82,-162.59 0,-49.38 17.16,-90.64 51.64,-123.61 34.48,-32.97 76.93,-49.53 127.52,-49.53 46.52,0 82.8,9.64 109,28.76l42 -50.44 54.65 51.64 -50.28 38.09c21.53,27.85 32.22,64.44 32.22,109.45 0,47.73 -14.91,87.62 -44.57,120.14 -29.66,32.37 -68.65,50.89 -116.98,55.56l-69.25 7.23c-8.28,0.9 -19.27,4.06 -33.12,9.48 -13.7,5.42 -20.63,12.5 -20.63,21.23 0,12.04 14.45,18.06 43.21,18.06 12.65,0 32.37,-2.25 59.17,-6.77 26.8,-4.52 46.67,-6.78 59.62,-6.78 46.52,0 82.8,11.15 108.85,33.28 26.04,22.13 38.99,52.99 38.99,92.29 0,43.51 -19.42,78.58 -58.41,105.38 -39,26.65 -88.38,40.05 -148.15,40.05 -30.56,0 -62.78,-5.42 -96.65,-16.26 -33.73,-10.84 -60.98,-24.09 -81.6,-39.59zm177.65 -543.05c-29.21,0 -53,10.24 -71.36,30.86 -18.52,20.63 -27.71,45.77 -27.71,75.13 0,32.97 8.89,60.37 26.8,81.9 17.77,21.68 41.86,32.52 72.27,32.52 29.81,0 53.14,-10.54 70.01,-31.62 16.71,-21.07 25.14,-48.63 25.14,-82.8 0,-29.36 -9.03,-54.5 -27.25,-75.13 -18.07,-20.62 -40.8,-30.86 -67.9,-30.86z"/>
   <path id="_6_101" class="fil5" d="M9573.45 27821.92l-340.25 0c0,55.26 15.06,97.71 45.32,127.37 26.8,25.9 61.12,38.84 103.13,38.84 47.87,0 87.77,-14.15 119.84,-42.45l35.23 60.52c-12.95,12.95 -32.82,24.24 -59.47,33.72 -33.57,12.5 -70.91,18.67 -112.01,18.67 -59.47,0 -109.91,-20.17 -151.31,-60.52 -46.22,-44.41 -69.25,-104.18 -69.25,-179.16 0,-77.98 23.63,-140.61 71.06,-187.74 42.3,-42 92.44,-63.08 150.4,-63.08 67.3,0 120.14,18.97 158.38,57.06 37.04,36.58 55.56,85.06 55.56,145.43 0,18.67 -2.26,35.69 -6.63,51.34zm-203.24 -183.37c-37.49,0 -68.81,12.19 -94.1,36.43 -24.24,23.19 -37.79,51.94 -41.1,86.42l261.96 0c0,-34.17 -10.54,-62.63 -31.77,-85.51 -23.33,-24.84 -54.95,-37.34 -94.99,-37.34z"/>
   <path id="_7_102" class="fil5" d="M10019.69 27577.12l0 301.56c0,73.02 31.62,109.45 94.7,109.45 27.7,0 52.84,-7.98 75.88,-23.78 22.88,-15.96 37.94,-34.33 45.31,-55.26l0 -331.97 84.01 0 0 472.44 -84.01 0 0 -65.34c-9.33,18.52 -28.3,35.53 -56.6,51.04 -28.46,15.5 -56.16,23.33 -83.26,23.33 -51.64,0 -91.39,-14.9 -118.79,-44.56 -27.55,-29.66 -41.25,-71.97 -41.25,-126.62l0 -310.29 84.01 0z"/>
   <path id="_8_103" class="fil5" d="M10724.58 28049.56l0 -275.06c0,-50.29 -7.53,-85.52 -22.74,-105.69 -15.05,-20.17 -40.49,-30.26 -76.02,-30.26 -19.13,0 -39.15,5.72 -60.08,17.16 -20.77,11.6 -36.88,25.6 -48.02,42.46l0 351.39 -84.01 0 0 -472.44 57.36 0 26.5 60.83c27.7,-46.52 72.87,-69.86 135.65,-69.86 103.58,0 155.37,62.93 155.37,188.94l0 292.53 -84.01 0z"/>
   <path id="_9_104" class="fil5" d="M11227.12 28049.56l0 -34.78c-29.06,28.61 -71.51,42.91 -127.07,42.91 -59.16,0 -107.04,-21.23 -143.92,-63.53 -36.74,-42.31 -55.11,-98.77 -55.11,-169.38 0,-70.91 21.23,-131.43 63.54,-181.56 42.3,-50.14 92.89,-75.13 151.3,-75.13 48.93,0 85.97,11.44 111.26,34.48l0 -218.76 84.01 0 0 665.75 -84.01 0zm0 -363.44c-21.08,-31.76 -50.13,-47.57 -86.87,-47.57 -44.86,0 -81.3,16.71 -109,50.28 -27.85,33.43 -41.7,76.03 -41.7,127.82 0,113.67 51.79,170.58 155.22,170.58 13.1,0 29.06,-4.21 47.57,-12.5 18.52,-8.43 30.11,-17.31 34.78,-26.79l0 -261.82z"/>
   <path id="_10_105" class="fil5" d="M11828.58 27821.92l-340.25 0c0,55.26 15.06,97.71 45.32,127.37 26.8,25.9 61.12,38.84 103.13,38.84 47.87,0 87.77,-14.15 119.84,-42.45l35.23 60.52c-12.95,12.95 -32.82,24.24 -59.47,33.72 -33.57,12.5 -70.91,18.67 -112.01,18.67 -59.47,0 -109.91,-20.17 -151.31,-60.52 -46.22,-44.41 -69.25,-104.18 -69.25,-179.16 0,-77.98 23.63,-140.61 71.06,-187.74 42.3,-42 92.44,-63.08 150.4,-63.08 67.3,0 120.14,18.97 158.38,57.06 37.04,36.58 55.56,85.06 55.56,145.43 0,18.67 -2.26,35.69 -6.63,51.34zm-203.24 -183.37c-37.49,0 -68.81,12.19 -94.1,36.43 -24.24,23.19 -37.79,51.94 -41.1,86.42l261.96 0c0,-34.17 -10.54,-62.63 -31.77,-85.51 -23.33,-24.84 -54.95,-37.34 -94.99,-37.34z"/>
   <path id="_11_106" class="fil5" d="M12179.97 27657.52c-18.21,-12.65 -36.58,-18.97 -55.25,-18.97 -29.66,0 -55.7,13.7 -77.84,40.95 -22.28,27.4 -33.42,60.22 -33.42,98.76l0 271.3 -84.01 0 0 -472.44 84.01 0 0 74.98c30.56,-56.01 76.18,-84.01 136.55,-84.01 14.91,0 36.59,2.71 64.89,7.98l-34.93 81.45z"/>
   <path id="_12_107" class="fil5" d="M12243.51 28021.56l29.5 -79.5c46.68,30.72 84.16,46.07 112.62,46.07 51.64,0 77.38,-21.83 77.38,-65.34 0,-31.31 -24.99,-58.11 -74.97,-80.54 -38.39,-17.62 -64.29,-31.02 -77.69,-40.2 -13.4,-9.03 -24.99,-19.42 -34.78,-31.01 -9.93,-11.75 -17.31,-24.09 -22.13,-37.19 -4.81,-13.1 -7.22,-27.1 -7.22,-42.16 0,-38.84 14.15,-69.1 42.45,-90.93 28.31,-21.83 65.19,-32.67 110.81,-32.67 34.48,0 77.99,10.84 130.38,32.67l-23.79 77.54c-33.27,-26.5 -66.69,-39.75 -100.27,-39.75 -20.02,0 -36.88,4.67 -50.58,14.15 -13.7,9.49 -20.48,21.38 -20.48,35.83 0,30.26 17.16,53.3 51.49,68.96l60.07 27.4c36.59,16.71 63.38,35.83 80.1,57.36 16.71,21.53 25.14,48.48 25.14,80.85 0,42.3 -14.91,75.57 -44.57,99.51 -29.65,23.94 -70.76,35.98 -123.3,35.98 -49.68,0 -96.35,-12.34 -140.16,-37.03z"/>
   <path id="_13_108" class="fil5" d="M12669.72 27643.07l-55.1 0 0 -65.95 55.1 0 0 -98.76 84.01 -32.22 0 130.98 130.08 0 0 65.95 -130.08 0 0 235.01c0,39.75 6.77,68.05 20.17,84.91 13.4,16.71 35.08,25.14 64.89,25.14 21.53,0 43.96,-5.42 67,-16.26l12.34 73.47c-34.78,8.89 -73.02,13.25 -114.72,13.25 -37.49,0 -69.1,-13.85 -95,-41.7 -25.74,-27.85 -38.69,-62.93 -38.69,-105.39l0 -268.43z"/>
   <path id="_14_109" class="fil5" d="M12967.37 27812.29c0,-73.02 19.57,-132.04 58.86,-176.9 39.3,-44.87 90.94,-67.3 155.07,-67.3 67.6,0 119.99,21.53 157.33,64.74 37.34,43.06 56.01,102.83 56.01,179.46 0,76.18 -19.12,136.25 -57.36,180.36 -38.24,43.96 -90.19,65.94 -155.98,65.94 -67.45,0 -119.84,-22.28 -157.48,-66.69 -37.63,-44.42 -56.45,-104.34 -56.45,-179.61zm88.52 0c0,118.48 41.86,177.65 125.41,177.65 38.85,0 69.41,-15.81 91.54,-47.57 22.13,-31.77 33.27,-75.13 33.27,-130.08 0,-116.98 -41.55,-175.55 -124.81,-175.55 -38.24,0 -68.65,15.51 -91.38,46.67 -22.74,31.17 -34.03,74.08 -34.03,128.88z"/>
   <path id="_15_110" class="fil5" d="M13452.15 27812.29c0,-73.02 19.57,-132.04 58.86,-176.9 39.3,-44.87 90.94,-67.3 155.07,-67.3 67.6,0 119.99,21.53 157.33,64.74 37.34,43.06 56.01,102.83 56.01,179.46 0,76.18 -19.12,136.25 -57.36,180.36 -38.24,43.96 -90.19,65.94 -155.98,65.94 -67.45,0 -119.84,-22.28 -157.48,-66.69 -37.63,-44.42 -56.45,-104.34 -56.45,-179.61zm88.52 0c0,118.48 41.86,177.65 125.41,177.65 38.85,0 69.41,-15.81 91.54,-47.57 22.13,-31.77 33.27,-75.13 33.27,-130.08 0,-116.98 -41.55,-175.55 -124.81,-175.55 -38.24,0 -68.65,15.51 -91.38,46.67 -22.74,31.17 -34.03,74.08 -34.03,128.88z"/>
   <path id="_16_111" class="fil5" d="M14267.54 28049.56l0 -34.78c-29.06,28.61 -71.51,42.91 -127.07,42.91 -59.16,0 -107.04,-21.23 -143.92,-63.53 -36.74,-42.31 -55.11,-98.77 -55.11,-169.38 0,-70.91 21.23,-131.43 63.54,-181.56 42.3,-50.14 92.89,-75.13 151.3,-75.13 48.93,0 85.97,11.44 111.26,34.48l0 -218.76 84.01 0 0 665.75 -84.01 0zm0 -363.44c-21.08,-31.76 -50.13,-47.57 -86.87,-47.57 -44.86,0 -81.3,16.71 -109,50.28 -27.85,33.43 -41.7,76.03 -41.7,127.82 0,113.67 51.79,170.58 155.22,170.58 13.1,0 29.06,-4.21 47.57,-12.5 18.52,-8.43 30.11,-17.31 34.78,-26.79l0 -261.82z"/>
   <path id="_17_112" class="fil5" d="M14572.86 27860.77l-58.11 0c-9.94,-28.01 -14.9,-48.03 -14.9,-60.53 0,-21.07 3.91,-42.75 11.59,-64.73 7.83,-22.14 25.44,-48.48 52.84,-79.2 27.4,-30.86 45.77,-54.35 55.26,-70.91 9.33,-16.41 14,-32.52 14,-48.02 0,-51.79 -31.17,-77.69 -93.65,-77.69 -29.96,0 -56.15,10.69 -78.44,32.22l-32.06 -63.23c29.66,-24.54 73.92,-36.74 132.63,-36.74 43.97,0 80.7,12.5 109.91,37.49 29.21,24.99 43.81,58.42 43.81,100.27 0,21.23 -3.76,41.55 -11.29,61.12 -7.38,19.58 -18.97,37.64 -34.63,54.05l-64.29 68.96c-25.89,31.76 -38.84,67.29 -38.84,106.74 0,6.17 2.11,19.57 6.17,40.2zm-18.82 65.04c18.22,0 33.73,6.47 46.68,19.42 12.79,12.94 19.27,28.45 19.27,46.67 0,18.37 -6.48,34.02 -19.27,47.12 -12.95,13.1 -28.46,19.57 -46.68,19.57 -18.21,0 -33.72,-6.47 -46.67,-19.57 -12.79,-13.1 -19.27,-28.75 -19.27,-47.12 0,-18.22 6.48,-33.73 19.27,-46.67 12.95,-12.95 28.46,-19.42 46.67,-19.42z"/>
   <g>
    <path class="fil5" d="M15770.81 6906.7l-217.52 0 -131.76 -680.88 -253.78 698.57 -79.58 0 -253.79 -698.57 -135.29 680.88 -217.53 0 254.67 -1264.49 118.49 0 273.24 852.42 266.16 -852.42 118.49 0 258.2 1264.49z"/>
    <path id="_1_113" class="fil5" d="M15848.92 6263.25c0,-180.09 49.23,-332.48 147.97,-457.16 98.74,-124.68 230.79,-186.87 396.15,-186.87 181.86,0 320.98,56.3 417.07,169.19 96.09,112.89 144.14,271.17 144.14,474.84 0,203.68 -50.11,365.5 -150.62,485.17 -100.51,119.67 -243.17,179.5 -427.98,179.5 -169.78,0 -300.06,-59.24 -390.85,-177.73 -90.49,-118.79 -135.88,-280.9 -135.88,-486.94zm233.45 0c0,147.67 25.05,262.04 75.16,343.1 49.81,81.05 122.62,121.73 218.12,121.73 112.3,0 197.78,-39.79 256.73,-119.08 58.95,-79.29 88.42,-194.54 88.42,-345.75 0,-296.22 -109.35,-444.19 -327.76,-444.19 -100.22,0 -176.86,40.09 -230.5,120.26 -53.35,80.17 -80.17,188.35 -80.17,323.93z"/>
    <path id="_2_114" class="fil5" d="M17667.25 5842.05l0 1064.65 -224.6 0 0 -1064.65 -403.22 0 0 -199.84 1048.73 0 0 199.84 -420.91 0z"/>
    <path id="_3_115" class="fil5" d="M18239.96 6906.7l0 -1264.49 224.6 0 0 1264.49 -224.6 0z"/>
    <path id="_4_116" class="fil5" d="M19199.09 6924.39l-123.8 0 -473.96 -1282.18 247.59 0 292.69 854.19 308.61 -854.19 242.28 0 -493.41 1282.18z"/>
    <path id="_5_117" class="fil5" d="M20050.63 5842.05l0 295.34 410.3 0 0 191 -410.3 0 0 378.47 574.77 0 0 199.84 -799.37 0 0 -1264.49 799.37 0 0 199.84 -574.77 0z"/>
    <path class="fil5" d="M15237.46 8125.95l-29.9 0 -163.51 -475.57 -153.86 475.57 -29.9 0 -218.01 -699.37 98.39 0 138.43 481.36 151.93 -481.36 32.8 0 149.03 480.39 141.32 -480.39 98.4 0 -215.12 699.37z"/>
    <path id="_1_118" class="fil5" d="M15832.64 8116.3l0 -317.21c0,-37.78 -9.16,-67.52 -27.65,-89.22 -18.49,-21.71 -44.54,-32.48 -78.14,-32.48 -21.54,0 -43.25,6.43 -65.11,19.13 -21.71,12.7 -38.43,27.49 -50,44.54l0 375.24 -89.71 0 0 -710.94 89.71 0 0 261.74c11.89,-18.49 31.19,-33.92 57.72,-46.3 26.36,-12.38 53.85,-18.65 81.99,-18.65 53.38,0 95.18,17.52 125.56,52.73 30.23,35.21 45.34,83.28 45.34,144.21l0 317.21 -89.71 0z"/>
    <path id="_2_119" class="fil5" d="M16333.44 8058.42c-35.69,45.02 -90.51,67.53 -164.15,67.53 -39.55,0 -73.79,-14.47 -102.73,-43.25 -29.1,-28.78 -43.57,-64.47 -43.57,-107.4 0,-51.28 22.35,-94.53 67.04,-130.06 44.7,-35.37 101.61,-53.06 170.91,-53.06 18.81,0 40.19,4.18 63.98,12.54 0,-81.67 -36.33,-122.51 -109.16,-122.51 -55.95,0 -98.88,15.11 -129.1,45.34l-37.62 -75.24c17.04,-13.83 40.51,-25.56 70.41,-35.37 30.07,-9.81 58.69,-14.79 86.02,-14.79 73.15,0 126.37,16.72 159.49,50 33.12,33.28 49.67,86.17 49.67,158.84l0 181.03c0,44.21 13.19,73.8 39.56,88.59l0 44.37c-36.5,0 -63.83,-5.14 -81.84,-15.43 -18.17,-10.29 -31.03,-27.33 -38.91,-51.13zm-8.52 -190.03c-28.13,-6.43 -47.91,-9.65 -59.16,-9.65 -45.02,0 -81.83,11.74 -110.29,35.05 -28.46,23.31 -42.77,50.96 -42.77,82.8 0,52.57 30.87,78.94 92.45,78.94 45.17,0 85.05,-21.55 119.77,-64.63l0 -122.51z"/>
    <path id="_3_120" class="fil5" d="M16587.63 7682.21l-58.84 0 0 -70.42 58.84 0 0 -105.46 89.71 -34.41 0 139.87 138.91 0 0 70.42 -138.91 0 0 250.97c0,42.44 7.24,72.67 21.54,90.68 14.31,17.84 37.46,26.84 69.3,26.84 22.99,0 46.94,-5.78 71.54,-17.36l13.19 78.46c-37.14,9.48 -77.98,14.15 -122.51,14.15 -40.04,0 -73.8,-14.79 -101.45,-44.54 -27.49,-29.74 -41.32,-67.2 -41.32,-112.54l0 -286.66z"/>
    <path id="_4_121" class="fil5" d="M17813.53 8116.3l0 -319.62c0,-79.58 -34.41,-119.29 -103.22,-119.29 -21.7,0 -41.96,6.75 -60.77,20.1 -18.81,13.34 -31.67,28.45 -38.59,45.49l0 373.32 -89.71 0 0 -358.85c0,-24.76 -9.32,-44.37 -27.97,-58.68 -18.81,-14.31 -43.41,-21.38 -74.28,-21.38 -17.85,0 -36.98,6.91 -57.23,20.74 -20.26,13.83 -34.57,29.1 -43.09,45.82l0 372.35 -89.71 0 0 -504.51 58.52 0 29.58 57.88c34.73,-45.01 77.81,-67.52 129.74,-67.52 72.35,0 122.83,22.51 151.77,67.52 10.13,-19.13 28.78,-35.21 56.11,-48.23 27.34,-12.86 55.47,-19.29 84.41,-19.29 52.25,0 92.61,15.43 121.22,46.46 28.62,30.87 42.93,74.28 42.93,130.23l0 337.46 -89.71 0z"/>
    <path id="_5_122" class="fil5" d="M17996.81 7862.92c0,-77.97 20.9,-141 62.86,-188.91 41.96,-47.91 97.11,-71.86 165.6,-71.86 72.18,0 128.13,22.99 168.01,69.13 39.87,45.98 59.8,109.81 59.8,191.64 0,81.35 -20.42,145.5 -61.25,192.61 -40.84,46.94 -96.3,70.42 -166.56,70.42 -72.03,0 -127.98,-23.8 -168.17,-71.23 -40.19,-47.42 -60.29,-111.41 -60.29,-191.8zm94.53 0c0,126.53 44.7,189.71 133.93,189.71 41.48,0 74.11,-16.88 97.75,-50.8 23.63,-33.92 35.53,-80.23 35.53,-138.91 0,-124.92 -44.37,-187.46 -133.28,-187.46 -40.84,0 -73.32,16.56 -97.59,49.84 -24.28,33.28 -36.34,79.1 -36.34,137.62z"/>
    <path id="_6_123" class="fil5" d="M18579.13 7682.21l-58.84 0 0 -70.42 58.84 0 0 -105.46 89.71 -34.41 0 139.87 138.91 0 0 70.42 -138.91 0 0 250.97c0,42.44 7.24,72.67 21.54,90.68 14.31,17.84 37.46,26.84 69.3,26.84 22.99,0 46.94,-5.78 71.54,-17.36l13.19 78.46c-37.14,9.48 -77.98,14.15 -122.51,14.15 -40.04,0 -73.8,-14.79 -101.45,-44.54 -27.49,-29.74 -41.32,-67.2 -41.32,-112.54l0 -286.66z"/>
    <path id="_7_124" class="fil5" d="M19021.74 7420.79c15.27,0 28.46,5.47 39.39,16.24 10.77,10.94 16.24,23.96 16.24,38.91 0,15.43 -5.47,28.62 -16.24,39.55 -10.93,10.77 -24.12,16.24 -39.39,16.24 -15.11,0 -28.14,-5.47 -39.07,-16.24 -10.77,-10.93 -16.24,-24.12 -16.24,-39.55 0,-15.27 5.31,-28.46 16.08,-39.07 10.61,-10.77 23.79,-16.08 39.23,-16.08zm-49.52 695.51l0 -429.26 -69.45 0 0 -75.25 159.16 0 0 504.51 -89.71 0z"/>
    <path id="_8_125" class="fil5" d="M19386.21 8125.95l-23.15 0 -216.08 -515.12 98.39 0 132.64 353.06 136.5 -353.06 93.57 0 -221.87 515.12z"/>
    <path id="_9_126" class="fil5" d="M20102.29 7873.21l-363.35 0c0,59 16.08,104.34 48.4,136.01 28.61,27.66 65.27,41.48 110.13,41.48 51.12,0 93.73,-15.11 127.97,-45.33l37.62 64.63c-13.82,13.82 -35.05,25.88 -63.5,36.01 -35.86,13.34 -75.73,19.94 -119.62,19.94 -63.5,0 -117.36,-21.55 -161.58,-64.63 -49.35,-47.43 -73.95,-111.26 -73.95,-191.32 0,-83.29 25.24,-150.17 75.88,-200.49 45.18,-44.85 98.72,-67.36 160.62,-67.36 71.86,0 128.29,20.25 169.13,60.93 39.55,39.07 59.32,90.84 59.32,155.31 0,19.93 -2.41,38.1 -7.07,54.82zm-217.04 -195.82c-40.04,0 -73.48,13.02 -100.49,38.91 -25.88,24.76 -40.35,55.46 -43.89,92.28l279.75 0c0,-36.5 -11.26,-66.88 -33.93,-91.32 -24.91,-26.53 -58.68,-39.87 -101.44,-39.87z"/>
    <path id="_10_127" class="fil5" d="M20312.1 7914.69l-62.06 0c-10.61,-29.9 -15.92,-51.29 -15.92,-64.63 0,-22.51 4.18,-45.66 12.38,-69.13 8.36,-23.64 27.17,-51.77 56.44,-84.57 29.26,-32.96 48.87,-58.04 59,-75.72 9.97,-17.53 14.95,-34.73 14.95,-51.29 0,-55.31 -33.28,-82.96 -100,-82.96 -31.99,0 -59.97,11.41 -83.76,34.41l-34.25 -67.53c31.68,-26.21 78.94,-39.23 141.64,-39.23 46.95,0 86.18,13.35 117.37,40.03 31.19,26.69 46.78,62.38 46.78,107.08 0,22.67 -4.02,44.37 -12.05,65.27 -7.88,20.9 -20.26,40.2 -36.98,57.72l-68.65 73.64c-27.66,33.92 -41.48,71.86 -41.48,113.98 0,6.6 2.25,20.9 6.59,42.93zm-20.1 69.45c19.46,0 36.02,6.92 49.84,20.74 13.67,13.83 20.58,30.39 20.58,49.84 0,19.62 -6.91,36.34 -20.58,50.33 -13.82,13.98 -30.38,20.9 -49.84,20.9 -19.45,0 -36.01,-6.92 -49.84,-20.9 -13.66,-13.99 -20.58,-30.71 -20.58,-50.33 0,-19.45 6.92,-36.01 20.58,-49.84 13.83,-13.82 30.39,-20.74 49.84,-20.74z"/>
   </g>
  </g>
 </g>
</svg>
