<?xml version="1.0" encoding="UTF-8"?>
<!DOCTYPE svg PUBLIC "-//W3C//DTD SVG 1.1//EN" "http://www.w3.org/Graphics/SVG/1.1/DTD/svg11.dtd">
<!-- Creator: CorelDRAW 2021.5 -->
<svg xmlns="http://www.w3.org/2000/svg" xml:space="preserve" width="210mm" height="297mm" version="1.1" style="shape-rendering:geometricPrecision; text-rendering:geometricPrecision; image-rendering:optimizeQuality; fill-rule:evenodd; clip-rule:evenodd"
viewBox="0 0 21000 29700"
 xmlns:xlink="http://www.w3.org/1999/xlink"
 xmlns:xodm="http://www.corel.com/coreldraw/odm/2003">
 <defs>
  <style type="text/css">
   <![CDATA[
    .fil0 {fill:#FEFEFE}
   ]]>
  </style>
 </defs>
 <g id="Layer_x0020_1">
  <metadata id="CorelCorpID_0Corel-Layer"/>
  <path class="fil0" d="M4512.05 14282.03l0 187.31 -563.04 0 0 -187.31 147.98 0c4.97,-114.69 37.08,-251.27 96.32,-410.36 59.34,-158.65 124.82,-288.62 197.18,-389.47l-300.29 0 0 163.89 -186.41 0 0 -346.41 729.19 0 0 143.72c-58.71,70.19 -118.04,193.29 -178.1,369.57 -60.14,176.46 -90.26,332.66 -90.26,469.06l147.43 0zm1226.1 0l0 187.31 -392.81 0 0 -96.69c-72.36,72.27 -150.33,108.45 -234.9,108.45 -100.93,0 -185.05,-41.33 -251.8,-123.73 -66.3,-82.31 -99.58,-181.89 -99.58,-299.2 0,-118.94 34.01,-219.24 102.2,-300.65 68.2,-81.49 151.59,-122.28 250.09,-122.28 94.52,0 172.57,36.63 233.99,110.16l0 -258.31 -126.63 0 0 -187.41 386.03 0 0 982.35 133.41 0zm-390.37 -221.42c0,-77.78 -16.55,-133.5 -49.84,-166.51 -33.1,-32.92 -71.18,-49.66 -113.6,-49.66 -51.1,0 -90.27,19.99 -118.03,59.52 -27.5,39.34 -41.52,91.53 -41.52,155.84 0,61.05 13.66,112.51 41.34,154.39 27.4,41.61 66.93,62.68 119.11,62.68 42.88,0 81.04,-16.91 113.61,-50.92 32.74,-33.92 48.93,-88.91 48.93,-165.34zm1356.79 221.42l0 187.31 -390.19 0 0 -63.94c-69.73,50.38 -143.63,75.7 -221.5,75.7 -80.5,0 -150.14,-22.97 -208.48,-68.92 -58.43,-45.95 -87.64,-107.54 -87.64,-185.06 0,-77.78 31.02,-143.35 92.07,-195.63 61.6,-52.91 141.37,-79.32 238.42,-79.32 54.36,0 116.86,13.74 187.13,41.33l0 -49.66c0,-41.69 -13.83,-75.52 -41.96,-102.2 -27.77,-26.77 -65.4,-39.89 -112.25,-39.89 -58.15,0 -108.08,21.17 -149.51,63.77l-208.75 -37.63c60.33,-128.52 191.66,-192.65 393.54,-192.65 78.05,0 143.17,8.86 194.28,26.32 51.64,17.82 89.99,40.61 115.23,68.56 25.32,27.95 42.96,58.79 53.27,92.25 10.31,33.29 15.47,87.47 15.47,162.45l0 297.21 130.87 0zm-390.19 -113.79c-62.68,-39.43 -112.69,-58.79 -150.23,-58.79 -29.39,0 -56.44,8.51 -80.68,25.96 -24.42,17.28 -36.72,42.6 -36.72,75.89 0,29.57 9.68,55.17 29.58,76.42 19.44,21.17 44.5,32.02 75.16,32.02 48.12,0 102.57,-28.31 162.89,-84.93l0 -66.57zm516.82 668.5l0 -187.32 156.2 0 53.73 -145.71 -295.58 -659.99 -117.31 0 0 -188.4 486.51 0 0 188.4 -95.69 0 135.22 365.77 144.35 -365.77 -105.73 0 0 -188.4 427 0 0 188.4 -115.69 0 -389.46 993.02 -283.55 0zm867.57 -367.4l0 -280.11 189.48 0c1.81,38.08 19.27,68.56 52.73,91.35 33.83,22.61 75.16,34.01 124.28,34.01 42.42,0 75.7,-7.33 99.4,-22.43 23.88,-14.66 36,-33.47 36,-56.44 0,-21.53 -11.04,-37.99 -33.11,-49.75 -21.79,-11.67 -64.3,-22.88 -128.25,-33.83 -131.42,-21.16 -226.12,-53.54 -284.37,-97.05 -58.06,-43.23 -87.46,-100.93 -87.46,-172.66 0,-67.2 27.59,-124 82.31,-170.31 54.99,-46.31 127.62,-69.46 218.07,-69.46 73.44,0 142,13.56 205.76,40.43l0 -27.77 185.33 0 0 236.16 -185.33 0c-17,-56.44 -76.24,-84.75 -177.73,-84.75 -75.16,0 -112.6,20.8 -112.6,62.13 0,15.83 7.69,27.59 23.15,36 15.2,7.96 54.72,17.82 117.76,28.85 100.22,17.28 175.2,34.74 225.04,52.01 49.56,17.55 89.45,46.22 119.3,86.29 29.93,39.89 45.13,88.18 45.13,144.08 0,79.59 -28.31,144.99 -85.38,195.55 -56.62,50.74 -137.3,76.06 -241.04,76.06 -96.87,0 -163.17,-19.44 -198.99,-58.79l0 40.43 -189.48 0zm1419.02 -857.62l333.12 728.55c26.59,59.61 68.19,99.86 125.54,120.48l0 8.59c-51.65,-6.96 -102.57,-10.31 -152.95,-10.31 -54.99,0 -108.81,3.35 -161.54,10.31l0 -6.96c0,-11.4 7.15,-23.52 21.44,-36.09 14.38,-12.66 21.52,-26.95 21.52,-43.14 0,-17.1 -3.98,-32.56 -11.93,-46.49l-106.64 -258.23c-29.76,-2.26 -60.06,-4.43 -91.08,-6.06 -30.93,-1.72 -61.78,-2.62 -92.71,-2.62 -32.11,0 -64.13,0.9 -96.42,2.62 -32.01,1.63 -63.49,3.8 -94.33,6.06l-123.73 280.66c-4.71,10.31 -8.6,19.99 -11.94,28.31 -3.62,8.77 -5.34,17.63 -5.34,26.77 0,15.1 8.68,30.93 25.78,48.21l0 6.96c-19.36,-2.35 -38.26,-4.07 -56.62,-5.15 -18.36,-1.09 -37.18,-1.81 -56.8,-1.81 -20.44,0 -41.16,0.72 -61.78,1.81 -20.71,1.08 -40.61,2.8 -60.24,5.15l8.78 -6.96c32.02,-9.05 60.87,-24.6 86.74,-46.49 25.77,-21.71 46.58,-48.75 62.68,-80.86l336.73 -706.03c2.26,-9.32 3.53,-16.01 3.53,-20.71 1.08,-22.98 -8.87,-46.76 -30.12,-71.55 -21.17,-24.6 -46.13,-45.58 -74.8,-62.86l-3.35 -8.59c21.71,1.27 48.66,2.35 80.68,3.44 32.02,1.26 60.15,1.81 84.21,1.81l37.8 0 63.77 141.18zm39.34 409.91l0 -6.97 -146.07 -339.17 -3.34 0 -161.54 339.17 0 6.97c25.14,1.08 50.74,1.99 76.42,2.53 25.78,0.54 51.83,0.91 78.15,0.91 25.33,0 50.92,-0.37 77.24,-0.91 26.41,-0.54 52.73,-1.45 79.14,-2.53zm993.84 -556.34c81.4,0 157.92,10.76 229.37,31.93 71.72,21.16 134.4,51.64 188.22,91.35 53.82,39.52 96.51,87.46 128.07,143.72 31.48,56.26 47.13,119.3 47.13,189.49 0,79.23 -15.65,152.22 -47.13,219.51 -31.56,67.2 -76.24,125.18 -134.13,173.84 -57.89,48.75 -127.71,87.46 -209.57,115.59 -81.94,27.95 -173.29,41.97 -274.05,41.97 -47.03,0 -97.95,-1.9 -153.04,-5.88 -54.81,-4.07 -106.45,-6.06 -154.57,-6.06 -24.06,0 -52.01,0.54 -83.3,1.63 -31.57,1.26 -59.34,2.89 -83.39,5.15l0 -11.94c22.97,-9.22 46.12,-25.77 69.64,-50.01 23.52,-24.06 35.82,-48.75 36.9,-74.08l0 -116.95 0 -229.19c0,-60.78 -0.9,-124 -2.53,-189.31 -1.72,-65.57 -3.71,-128.07 -6.06,-187.76 -2.26,-22.98 -13.48,-45.77 -33.47,-68.02 -20.08,-22.43 -46.67,-43.41 -79.95,-63.04l0 -6.69c22.97,2.26 52.37,3.89 88.55,5.15 35.9,1 66.57,1.54 91.89,1.54 36.63,0 69.1,-0.54 97.05,-1.54 28.13,-1.26 56.26,-2.53 84.21,-4.34 28.13,-1.72 57.88,-3.17 89.36,-4.43 31.56,-1.09 68.38,-1.63 110.8,-1.63zm0 58.61c-32.02,0 -64.13,0.36 -96.15,0.9 -32.11,0.55 -61.77,1.63 -89.45,3.35 -27.41,1.63 -51.47,4.34 -72.09,7.69 -20.62,3.53 -36.18,8.05 -46.49,13.93 -3.34,10.31 -5.33,21.16 -5.88,32.74 -0.54,11.4 -0.9,21.71 -0.9,31.02 -2.26,32.02 -3.71,65.31 -4.25,99.86 -0.73,34.37 -0.91,69.46 -0.91,104.91l0 162c0,59.69 0.91,119.84 2.54,180.8 1.71,60.87 4.79,121.11 9.4,180.89 0,10.31 0.73,17.1 1.81,20.53 27.59,18.46 66.21,30.76 115.95,37.18 49.84,6.24 111.98,9.4 186.42,9.4 61.77,0 120.38,-11.48 175.37,-34.46 54.9,-22.97 102.75,-54.54 143.36,-94.78 40.61,-40.07 72.9,-87.29 96.33,-141.19 23.51,-54 35.09,-111.34 35.09,-172.21 0,-61.96 -11.4,-123.46 -34.37,-184.33 -22.79,-60.69 -55.35,-111.25 -97.95,-151.5 -40.07,-39.08 -87.74,-66.66 -143.36,-82.67 -55.54,-16.01 -113.78,-24.06 -174.47,-24.06zm925.09 470.14c-27.41,-59.69 -58.07,-123.37 -91.9,-191.11 -33.82,-67.84 -66.02,-131.6 -97.05,-191.21 -11.39,-24.24 -24.87,-47.39 -40.43,-69.82 -15.46,-22.25 -44.86,-43.24 -88.45,-62.86l-1.63 -10.31c24.06,1.26 49.02,2.8 74.62,5.15 25.87,2.35 51.28,3.35 76.61,3.35 22.97,0 46.67,-0.54 71.18,-1.54 24.78,-1.26 49.74,-2.35 74.8,-3.44l5.15 10.32c-11.57,5.69 -19.71,14.29 -24.87,25.86 -5.16,11.4 -7.69,23.52 -7.69,36.18 0,25.24 5.16,49.84 15.29,74.08 24.06,59.6 51.28,121.56 81.76,185.87 30.3,64.3 58.07,125.18 83.3,182.52 22.8,49.38 46.67,98.5 71.28,147.34 24.78,48.75 48.93,97.86 73.17,147.24l13.75 0c19.35,-42.6 39.16,-84.93 59.24,-127.53 19.99,-42.42 39.7,-85.47 59.15,-129.06 28.67,-59.7 57.52,-126.27 86.92,-199.8 29.21,-73.44 56.44,-140.01 81.58,-199.89 5.7,-11.4 10.68,-23.97 14.56,-37.9 3.89,-13.74 6.06,-27.4 6.06,-41.33 0,-16.01 -4.61,-30.39 -13.74,-42.87 -9.23,-12.66 -27.59,-21.17 -54.99,-26.05l5.15 -8.5c21.71,1.26 44.86,2.62 69.64,4.43 24.61,1.63 49.48,2.53 74.8,2.53 22.8,0 46.86,-0.9 72.09,-2.53 25.15,-1.81 50.92,-3.17 77.33,-4.43l-3.43 8.5c-34.37,12.84 -63.05,33.19 -86.02,61.32 -22.97,28.13 -41.79,54.81 -56.62,80.14 -30.93,57.34 -61.41,118.75 -91.17,184.24 -29.76,65.39 -57.89,126.26 -84.21,182.43 -13.74,29.85 -28.31,60.69 -43.77,92.17 -15.38,31.56 -32.65,66.29 -51.47,104.19 -18.9,37.99 -39.52,80.32 -61.86,127.35 -22.43,47.21 -47.31,101.66 -74.8,163.62 -3.53,9.31 -9.23,13.93 -17.19,13.93 -6.78,0 -13.74,-6.42 -20.71,-19.09 -13.66,-29.75 -30.84,-65.66 -51.46,-107.54 -20.63,-41.88 -42.06,-84.93 -64.49,-129.25 -22.25,-44.23 -43.96,-87.1 -65.12,-129.16 -21.44,-41.78 -39.35,-77.6 -54.36,-107.54zm1019.7 464.99c-25.15,0 -53.28,1.27 -84.03,3.35 -31.02,2.35 -57.88,4.61 -80.86,6.96l0 -18.9c11.4,-4.61 23.16,-12.48 35.28,-23.34 11.94,-10.85 22.97,-22.97 32.56,-36.09 9.77,-13.2 18,-27.31 24.96,-42.23 6.87,-14.93 10.31,-28.68 10.31,-41.34 1.27,-59.6 1.81,-113.42 1.81,-160.99 0,-47.67 0,-101.85 0,-162.72 0,-59.87 -0.9,-122.37 -2.71,-187.68 -1.81,-65.57 -4.8,-128.07 -9.41,-187.76 -1.27,-24.15 -9.86,-47.67 -25.87,-70.64 -16.01,-22.98 -42.87,-42.6 -80.68,-58.61l-1.71 -13.75c11.39,1.27 26.86,2.35 46.39,3.44 19.45,1.26 39.62,2.62 60.06,4.43 20.62,1.63 40.79,3.07 60.15,4.07 19.45,1.27 34.91,1.81 46.49,1.81 12.48,0 33.64,-0.54 63.4,-1.81 29.94,-1 60.96,-2.08 92.98,-3.35 32.02,-2.35 64.13,-4.25 96.15,-6.06 32.11,-1.63 61.77,-2.53 89.45,-2.53 13.66,0 28.31,0.36 43.78,0.9 15.46,0.55 29.75,1.63 42.87,3.44 13.2,1.72 24.42,4.25 33.55,7.6 9.23,3.62 13.84,8.23 13.84,13.93 0,25.32 1.99,45.4 5.88,60.33 4.07,14.83 6.06,32.1 6.06,51.64 0,6.78 -2.35,10.4 -6.78,10.4 -6.97,0 -11.94,-3.8 -14.75,-11.21 -2.89,-7.51 -7.14,-15.38 -12.84,-23.34 -11.4,-13.75 -34.37,-27.49 -68.74,-41.33 -34.37,-13.75 -90.45,-20.71 -168.41,-20.71 -22.88,0 -46.31,1.08 -70.37,3.43 -24.06,2.26 -57.34,4.61 -99.76,6.97 -4.62,12.57 -7.15,26.14 -7.6,40.43 -0.72,14.38 -1.99,28.94 -4.52,43.95 -3.35,49.3 -5.34,100.76 -5.88,154.22 -0.72,53.27 -0.82,105.28 -0.82,155.84 32.02,0 63.05,0.54 92.71,1.53 29.76,1.27 59.7,1.81 89.45,1.81 10.32,0 20.26,-0.18 30.03,-0.9 9.86,-0.54 19.81,-0.91 30.12,-0.91 26.41,-0.99 53.28,-5.69 80.68,-13.65 27.59,-8.05 52.73,-27.05 75.52,-56.8l8.69 0c-1.18,19.35 -2.81,36.08 -5.16,49.83 -2.26,13.93 -3.53,31.66 -3.53,53.46 0,20.62 0,35.54 0,44.86 0,9.04 0.73,24.6 1.81,46.49l-10.4 0c-14.74,-25.33 -38.26,-42.24 -70.28,-50.92 -32.1,-8.6 -62.49,-14.11 -91.17,-16.28 -35.45,-2.27 -72.72,-3.53 -111.7,-3.53 -38.8,0 -77.96,0 -116.77,0l0 3.53c0,59.69 1.36,114.14 4.26,163.52 2.8,49.3 5.51,104.02 7.77,163.62 1.09,22.98 10.22,41.16 27.5,54.36 17.28,13.12 37.72,23.88 61.78,31.66 24.05,8.23 50.19,13.38 78.14,15.64 28.13,2.18 53.64,3.44 76.61,3.44 33.1,0 66.57,-1.99 100.4,-6.06 33.82,-3.89 64.48,-15.83 92.07,-35.27 33.1,-22.98 59.52,-46.85 78.87,-71.55 19.63,-24.6 33.83,-37.08 42.96,-37.08 8.14,0 12.12,4.07 12.12,12.12 0,8.05 -3.07,17.28 -9.49,27.59 -6.24,10.31 -13.48,21.52 -21.35,33.46 -7.96,12.12 -16.55,24.78 -24.96,37.99 -8.69,13.11 -14.56,26.14 -18.09,38.8 -2.35,11.4 -7.69,22.43 -16.28,32.56 -8.69,10.49 -30.75,15.65 -66.21,15.65l-208.03 0c-34.19,0 -62.86,0 -85.83,0 -22.98,0 -44.14,-0.27 -63.5,-0.81 -19.44,-0.55 -39.07,-0.91 -58.42,-0.91 -19.45,0 -42.97,0 -70.55,0zm1483.6 -998.9c17.27,2.36 33.28,4.71 48.21,6.79 14.83,2.53 30.3,3.62 46.31,3.62 24.05,0 48.48,-0.55 72.99,-1.81 24.78,-1.09 49.02,-2.9 73.08,-5.16l0 8.68c-28.49,12.67 -47.76,32.66 -57.53,60.24 -9.67,27.59 -15.19,54.45 -16.37,81.04 -3.43,32.02 -5.33,65.31 -5.88,99.86 -0.72,34.37 -0.9,69.46 -0.9,104.91l0 162c0,40.06 -0.54,86.37 -1.81,138.56 -1.09,52.37 -1.81,103.65 -1.81,154.21 0,25.15 0.36,49.57 0.91,73.08 0.72,23.61 1.44,45.23 2.71,64.58 1.08,32.29 1.63,53.82 1.63,64.67 0,10.86 -3.98,16.37 -11.94,16.37 -5.7,0 -19.45,-12.12 -41.34,-36.18l-762.92 -767.98 -8.5 0c-2.35,16.01 -3.44,32.38 -3.44,48.93 0,16.55 0,33.1 0,49.11 0,33.38 0.55,66.48 1.63,99.95 1.27,33.28 1.81,64.85 1.81,94.7 0,59.69 0.91,119.84 2.44,180.8 1.81,60.87 3.8,121.11 6.06,180.89 2.36,25.15 9.77,47.94 22.25,67.84 12.67,20.17 33.29,36 61.96,47.57l0 10.13c-26.32,-2.26 -52.46,-3.89 -78.15,-5.15 -25.77,-1.09 -52,-1.63 -78.14,-1.63 -24.06,0 -40.07,0.18 -48.12,0.72 -7.96,0.73 -23.7,2.17 -46.49,4.34l0 -10.22c21.8,-9.22 40.43,-22.97 55.81,-41.42 15.46,-18.36 23.24,-40.07 23.24,-65.39 2.35,-60.87 3.44,-121.66 3.44,-182.53 0,-60.87 0,-121.65 0,-182.52 0,-40.25 0.36,-81.76 0.9,-124.81 0.54,-43.15 0.91,-85.84 0.91,-128.44 0,-21.71 0,-43.23 0,-64.67 0,-21.16 -0.55,-41.42 -1.81,-61.05l0 -8.5c-2.35,-21.8 -9.14,-43.69 -20.62,-65.4 -11.49,-21.88 -33.2,-42.6 -65.22,-62.13l-3.52 -10.31c19.35,1.17 42.14,2.8 67.83,5.15 25.78,2.26 49.48,3.35 71.36,3.35l762.92 785.53 8.69 0c1.08,-44.86 1.63,-89.54 1.63,-134.49 0,-44.69 0,-90.09 0,-136.04 0,-60.87 -0.91,-123.37 -2.54,-187.67 -1.72,-64.31 -4.25,-126.81 -7.78,-187.68 -1.08,-22.98 -5.15,-46.49 -11.93,-70.73 -6.97,-24.06 -27.59,-45.77 -61.96,-65.3l0 -10.41zm1249.89 -10.31c-4.44,21.71 -16.92,47.58 -36.82,77.52 -20.17,29.84 -32.92,57.34 -38.62,82.57 -2.35,5.88 -5.24,9.59 -8.59,11.22 -3.53,1.81 -6.42,2.71 -8.68,2.71 -4.71,0 -6.79,-6.06 -6.79,-18.18 0,-12.12 -1.26,-23.87 -3.61,-35.27 -3.35,-11.58 -12.76,-20.44 -28.31,-26.68 -15.47,-6.24 -28.86,-10.04 -40.43,-11.22 -38.99,-1.08 -79.78,-1.63 -122.83,-1.63 -42.96,0 -83.94,0 -122.92,0l-8.5 86.02c-2.35,33.28 -3.8,67.11 -4.25,101.66 -0.54,34.37 -0.91,69.28 -0.91,105.1l0 161.72c0,60.87 0.91,121.2 2.63,180.89 1.63,59.7 4.79,120.03 9.49,180.72 1,25.32 8.14,47.75 21.35,67.2 13.21,19.54 33.65,35 61.05,46.58l0 10.4c-26.32,-1.27 -52.37,-2.71 -78.14,-4.34 -25.87,-1.72 -51.83,-2.62 -78.24,-2.62 -23.97,0 -48.03,0.9 -72.27,2.62 -24.06,1.63 -46.85,3.07 -68.56,4.34l0 -10.4c21.71,-9.23 40.25,-22.97 55.72,-41.24 15.56,-18.55 23.15,-40.25 23.15,-65.58 1.27,-60.69 2.17,-121.65 2.72,-182.52 0.54,-60.87 0.9,-121.83 0.9,-182.52 0,-60.87 -0.36,-126.27 -0.9,-196.45 -0.55,-69.92 -1.45,-134.77 -2.72,-194.46l0 -67.12c-46.76,0 -93.61,0.73 -139.92,2.54 -46.31,1.72 -91.89,7.05 -136.57,16.37 -15.02,2.26 -31.93,7.05 -50.74,14.56 -18.91,7.51 -35.82,16.37 -50.84,26.68 -10.31,8.05 -19.53,15.92 -28.31,23.16 -8.5,7.5 -16.91,11.21 -24.87,11.21 -6.78,0 -10.31,-2.08 -10.31,-6.69 1.18,-10.4 8.86,-23.34 23.25,-38.89 14.29,-15.47 24.96,-30.03 31.74,-43.96 6.97,-12.48 14.56,-25.96 23.16,-40.43 8.68,-14.38 14.02,-27.77 16.37,-40.43l18.9 0c6.88,6.96 16.37,11.94 28.49,15.56 11.94,3.34 29.4,5.69 52.37,6.69 57.34,1.27 114.51,1.81 171.85,1.81 57.16,0 114.51,0 171.76,0 54.9,0 113.15,-0.91 174.38,-2.53 61.23,-1.72 121.11,-3.71 179.72,-5.97 20.62,0 38.08,-2.72 52.28,-7.87 14.29,-5.16 27.85,-9.41 40.43,-12.85l11.94 0zm495.65 1033.27c-42.42,0 -86.74,-2.53 -133.23,-7.69 -46.49,-5.15 -89,-18 -128.08,-38.8 -38.98,-20.71 -71.18,-50.92 -97.05,-91.17 -25.77,-40.25 -39.88,-94.79 -42.14,-163.71 -1.09,-56.26 -1.81,-97.05 -2.54,-122.28 -0.54,-25.15 -0.9,-47.04 -0.9,-65.4 0,-43.59 0.54,-89.54 1.81,-137.84 1.08,-48.21 1.63,-95.24 1.63,-141.19 0,-17.09 0,-34.37 0,-51.64 0,-17.28 -0.55,-33.83 -1.63,-49.84 -1.27,-22.97 -6.6,-46.67 -16.37,-70.73 -9.59,-24.24 -31.21,-45.94 -64.49,-65.57l0 -8.5c22.97,1.26 47.39,2.62 73.17,4.43 25.69,1.63 50.56,2.53 74.62,2.53 24.06,0 48.48,-0.9 73.08,-2.53 24.69,-1.81 48.93,-3.17 73.17,-4.43l0 8.5c-28.67,12.84 -47.75,33.19 -56.8,61.32 -9.13,28.13 -15.01,54.81 -17.09,80.14 -3.62,32.02 -5.52,65.3 -6.06,99.85 -0.55,34.37 -0.91,69.28 -0.91,105.1l0 161.72c0,19.54 0.36,41.06 0.91,64.58 0.54,23.52 1.9,60.6 4.25,111.16 1.08,58.61 10.31,105.01 27.4,139.38 17.28,34.55 38.62,60.96 64.49,79.32 25.78,18.27 54.99,30.03 87.64,35.18 32.75,5.43 65.49,7.87 98.77,7.87 49.39,0 93.16,-3.16 131.42,-9.4 38.53,-6.43 70.91,-19.99 97.05,-40.61 26.59,-20.54 47.03,-49.84 62.05,-87.83 14.74,-37.9 23.42,-89 25.6,-153.31 1.26,-35.45 1.8,-63.58 1.8,-84.2 0,-20.72 0,-40.25 0,-58.61 0,-34.55 0.37,-69.83 0.91,-106.01 0.54,-36.08 0.81,-71.9 0.81,-107.54 0,-27.58 -0.27,-54.81 -0.81,-81.85 -0.54,-26.96 -1.45,-53.64 -2.71,-79.96 -1.09,-33.37 -6.79,-59.87 -17.1,-79.32 -10.31,-19.54 -34.91,-38.44 -73.89,-56.98l0 -8.5c18.36,1.26 36.17,2.26 53.27,3.52 17.27,1.09 34.91,1.63 53.36,1.63 22.8,0 46.67,-0.54 71.27,-1.63 24.61,-1.26 49.48,-2.8 74.62,-5.33l0 8.77c-28.49,12.57 -47.93,28.67 -58.24,48.21 -10.32,19.45 -16.74,50.56 -19.09,92.98 -2.26,57.34 -3.35,119.12 -3.35,185.05 0,66.03 0,127.26 0,183.43 0,18.45 -0.36,35.91 -0.9,52.64 -0.54,16.55 -0.9,34.01 -0.9,52.37 0,91.89 -10.13,164.25 -30.76,217.07 -20.71,52.91 -49.02,92.26 -85.11,117.94 -36.18,25.78 -79.32,41.97 -129.7,48.21 -50.56,6.42 -104.92,9.5 -163.25,9.5zm662.25 -1000.52c45.76,0 89.9,-2.08 132.32,-6.06 42.33,-4.07 84.03,-5.97 125.36,-5.97 28.67,0 63.59,3.89 104.92,12.03 41.06,8.05 76.7,19.44 106.46,34.37 47.03,25.32 81.04,58.79 102.2,100.84 21.17,41.79 31.93,82.94 31.93,123.01 0,47.03 -12.3,91.35 -37.08,132.69 -24.61,41.33 -56.99,74.62 -97.05,99.94 -10.31,4.61 -20.63,9.41 -31.03,14.56 -10.31,5.16 -21.7,8.96 -34.37,11.22 31.03,42.6 65.03,90.45 102.3,143.72 37.35,53.45 76.7,103.65 118.58,150.86 41.78,46.95 85.11,86.38 129.79,117.86 44.68,31.74 90.44,47.39 137.48,47.39 10.31,0 20.62,-0.54 30.84,-1.63 10.31,-1.26 21.16,-1.81 32.74,-1.81 5.7,0 8.5,2.36 8.5,6.79 0,5.88 -4.79,11.57 -14.56,17.27 -9.77,5.7 -21.35,10.68 -35.27,14.66 -13.66,4.07 -27.77,7.23 -41.97,9.4 -14.29,2.35 -26.23,3.53 -35.28,3.53 -75.7,0 -140.01,-16.91 -193.37,-50.92 -53.27,-33.83 -101.94,-75.71 -146.07,-125.54 -43.96,-50.02 -85.84,-103.11 -125.36,-159.37 -39.53,-56.26 -83.3,-107.36 -131.6,-153.31l-72.09 0c-11.4,-1.08 -27.13,-0.72 -47.21,0.91 -20.17,1.71 -38.62,3.16 -55.9,4.25 0,53.99 0.45,107.9 1.72,162.08 1.27,53.72 3.98,107.9 8.59,161.63 2.26,33.37 9.77,57.7 22.43,73.44 12.48,15.29 32.56,28.76 59.97,40.34l0 10.4c-26.32,-1.27 -52.28,-2.71 -78.15,-4.34 -25.68,-1.72 -51.82,-2.62 -78.14,-2.62 -22.98,0 -49.57,0.9 -79.78,2.62 -30.48,1.63 -56.98,3.07 -79.95,4.34l0 -12.12c21.7,-9.13 43.23,-22.61 64.4,-40.43 21.25,-17.82 33.01,-39.34 35.27,-64.67 1.09,-60.69 1.63,-121.65 1.63,-182.52 0,-60.87 0,-121.83 0,-182.52 0,-60.87 -1.09,-123.91 -3.44,-189.49 -2.26,-65.39 -4.61,-128.07 -6.87,-187.68 -1.09,-22.97 -6.79,-45.58 -17.1,-68.01 -10.4,-22.43 -33.82,-41.7 -70.55,-57.71l0 -12.12c22.98,2.35 48.12,4.25 75.71,6.06 27.4,1.81 53.72,2.63 79.05,2.63zm72.08 134.31c-3.34,31.02 -5.33,62.5 -6.06,94.7 -0.45,32.11 -0.81,64.85 -0.81,98.13l0 154.94c19.54,0 42.33,-0.18 68.74,-0.73 26.32,-0.54 46.4,-0.9 60.15,-0.9 105.46,0 177.36,-19.54 215.62,-58.52 38.53,-38.98 56.44,-96.51 54.18,-172.21 2.26,-31.02 -5.7,-63.4 -24.06,-97.41 -18.36,-33.83 -45.22,-60.42 -80.86,-79.96 -24.06,-13.93 -52.37,-22.43 -84.93,-25.86 -32.56,-3.53 -63.22,-5.16 -91.89,-5.16 -17.28,0 -33.83,0.9 -49.84,2.53 -16.01,1.72 -32.74,3.17 -49.83,4.43 -6.97,12.49 -10.22,26.32 -9.5,41.34 0.54,14.74 0.18,29.76 -0.91,44.68zm1084.92 842.15c-25.15,0 -53.28,1.27 -84.12,3.35 -30.93,2.35 -57.79,4.61 -80.77,6.96l0 -18.9c11.4,-4.61 23.16,-12.48 35.19,-23.34 11.93,-10.85 22.97,-22.97 32.65,-36.09 9.77,-13.2 18.18,-27.31 24.87,-42.23 6.96,-14.93 10.4,-28.68 10.4,-41.34 1,-59.6 1.54,-113.42 1.54,-160.99 0,-47.67 0,-101.85 0,-162.72 0,-59.87 -0.72,-122.37 -2.44,-187.68 -1.63,-65.57 -4.8,-128.07 -9.5,-187.76 -1,-24.15 -9.77,-47.67 -25.78,-70.64 -15.83,-22.98 -42.96,-42.6 -80.68,-58.61l-1.81 -13.75c11.4,1.27 26.96,2.35 46.49,3.44 19.45,1.26 39.53,2.62 60.06,4.43 20.62,1.63 40.79,3.07 60.15,4.07 19.44,1.27 34.91,1.81 46.49,1.81 12.48,0 33.83,-0.54 63.58,-1.81 29.76,-1 60.69,-2.08 92.8,-3.35 32.02,-2.35 64.04,-4.25 96.15,-6.06 32.01,-1.63 61.95,-2.53 89.36,-2.53 13.75,0 28.31,0.36 43.86,0.9 15.47,0.55 29.67,1.63 42.88,3.44 13.2,1.72 24.42,4.25 33.64,7.6 9.14,3.62 13.75,8.23 13.75,13.93 0,25.32 1.9,45.4 5.88,60.33 4.07,14.83 6.06,32.1 6.06,51.64 0,6.78 -2.17,10.4 -6.78,10.4 -6.97,0 -11.76,-3.8 -14.75,-11.21 -2.89,-7.51 -7.14,-15.38 -12.84,-23.34 -11.4,-13.75 -34.37,-27.49 -68.74,-41.33 -34.37,-13.75 -90.45,-20.71 -168.32,-20.71 -22.98,0 -46.49,1.08 -70.46,3.43 -24.06,2.26 -57.34,4.61 -99.76,6.97 -4.43,12.57 -7.15,26.14 -7.69,40.43 -0.54,14.38 -1.9,28.94 -4.25,43.95 -3.35,49.3 -5.52,100.76 -6.06,154.22 -0.54,53.27 -0.91,105.28 -0.91,155.84 32.11,0 63.05,0.54 92.8,1.53 29.94,1.27 59.52,1.81 89.36,1.81 10.41,0 20.35,-0.18 30.12,-0.9 9.59,-0.54 19.81,-0.91 30.12,-0.91 26.32,-0.99 53.28,-5.69 80.68,-13.65 27.59,-8.05 52.73,-27.05 75.7,-56.8l8.51 0c-1.09,19.35 -2.81,36.08 -5.16,49.83 -2.35,13.93 -3.35,31.66 -3.35,53.46 0,20.62 0,35.54 0,44.86 0,9.04 0.46,24.6 1.54,46.49l-10.31 0c-14.74,-25.33 -38.26,-42.24 -70.37,-50.92 -32.01,-8.6 -62.5,-14.11 -90.99,-16.28 -35.63,-2.27 -72.81,-3.53 -111.79,-3.53 -38.8,0 -77.87,0 -116.86,0l0 3.53c0,59.69 1.45,114.14 4.25,163.52 2.9,49.3 5.61,104.02 7.87,163.62 1.09,22.98 10.31,41.16 27.41,54.36 17.27,13.12 37.81,23.88 61.96,31.66 24.05,8.23 50.1,13.38 78.23,15.64 27.95,2.18 53.37,3.44 76.34,3.44 33.19,0 66.84,-1.99 100.49,-6.06 33.82,-3.89 64.48,-15.83 92.07,-35.27 33.1,-22.98 59.42,-46.85 78.87,-71.55 19.63,-24.6 33.83,-37.08 43.14,-37.08 7.96,0 11.85,4.07 11.85,12.12 0,8.05 -2.98,17.28 -9.4,27.59 -6.24,10.31 -13.39,21.52 -21.35,33.46 -8.05,12.12 -16.37,24.78 -24.96,37.99 -8.5,13.11 -14.56,26.14 -18.18,38.8 -2.26,11.4 -7.6,22.43 -16.19,32.56 -8.5,10.49 -30.57,15.65 -66.21,15.65l-207.85 0c-34.37,0 -63.04,0 -86.01,0 -22.79,0 -43.96,-0.27 -63.59,-0.81 -19.35,-0.55 -38.98,-0.91 -58.43,-0.91 -19.35,0 -42.87,0 -70.45,0zm-5354.28 -4416.53c1512.18,-178.81 3154.24,-291.33 4965.35,-317.37l0 0 6.43 0c172.03,-2.45 345.59,-4.07 520.88,-4.98 -3237.55,2330.37 -7885.17,3479.32 -11848.19,3245.51 4214.46,-72.36 7529.89,-993.02 10407.46,-2841.3 -1145.69,-132.51 -3078.45,-50.2 -4051.93,-81.86z"/>
 </g>
</svg>
