<svg width="1291" height="408" viewBox="0 0 1291 408" fill="none" xmlns="http://www.w3.org/2000/svg">
<path fill-rule="evenodd" clip-rule="evenodd" d="M886.143 42.3771C1003.15 35.1295 1091.82 45.4442 1114.73 51.553C976.39 154.052 727.182 231.565 503.871 219.93C739.198 243.97 1018.98 167.886 1206.79 23.0853C1165.96 22.2318 951.953 26.7877 886.143 42.3771V42.3771Z" fill="white"/>
<path d="M439.519 0.884277H425.529V407.115H439.519V0.884277Z" fill="white"/>
<path d="M110.279 18.7709L121.478 2.67429H130.676L131.442 69.8706H123.267C118.114 49.2604 110.449 34.2712 100.357 24.7751C90.2221 15.3217 78.5967 10.5947 65.4386 10.5947C54.4523 10.5947 45.4672 13.8738 38.4407 20.4317C31.4573 26.9468 27.9654 34.9526 27.9654 44.406C27.9654 50.2824 29.2856 55.435 31.9683 59.8635C34.6083 64.2923 38.6112 67.912 43.8915 70.6797C49.1719 73.4475 59.1363 76.4284 73.785 79.6221C94.3101 84.136 108.746 88.6499 117.007 93.2488C125.311 97.8051 131.485 103.554 135.53 110.495C139.619 117.436 141.663 125.527 141.663 134.853C141.663 151.46 136.084 165.214 124.885 176.116C113.685 187.06 99.2495 192.51 81.4926 192.51C62.4577 192.51 45.8928 186.378 31.8405 174.114L17.7455 191.233H8.80316V119.693H17.7455C21.2374 139.452 29.0724 155.037 41.2088 166.449C53.3449 177.862 67.0143 183.568 82.2591 183.568C94.5656 183.568 104.573 179.948 112.365 172.667C120.158 165.427 124.033 156.57 124.033 146.222C124.033 140.303 122.585 135.151 119.647 130.679C116.751 126.251 112.152 122.504 105.807 119.48C99.505 116.457 87.0708 112.795 68.5046 108.494C48.1499 103.639 34.2677 98.2737 26.9007 92.2695C16.5531 83.7955 11.3581 71.7868 11.3581 56.2442C11.3581 40.0198 16.5104 26.7763 26.8583 16.4287C37.2059 6.08115 50.4494 0.885803 66.5457 0.885803C74.2533 0.885803 81.6203 2.24833 88.6038 5.01645C95.5876 7.7842 102.784 12.3408 110.279 18.7709V18.7709Z" fill="white"/>
<path d="M180.71 4.71826H275.969C290.064 4.71826 302.072 7.23089 311.994 12.2131C324.3 18.5154 334.733 29.0335 343.335 43.7672C351.937 58.4583 356.238 75.8747 356.238 96.0166C356.238 112.667 353.683 127.613 348.53 140.899C344.612 151.162 338.608 160.105 330.475 167.727C322.384 175.392 312.505 181.141 300.879 184.93C292.15 187.784 280.525 189.189 265.962 189.189H180.71V179.735H198.126C202.555 179.735 205.578 179.011 207.282 177.606C208.985 176.201 209.837 173.987 209.837 171.006V22.6457C209.837 20.0484 208.942 18.0044 207.111 16.4715C205.28 14.9385 202.726 14.172 199.489 14.172H180.71V4.71826ZM247.395 14.172C243.648 14.172 240.88 14.9808 239.091 16.5565C237.303 18.1322 236.409 20.474 236.409 23.6254V170.623C236.409 173.646 237.431 175.903 239.517 177.436C241.604 178.969 245.138 179.735 250.12 179.735H265.834C279.886 179.735 292.193 176.116 302.753 168.876C309.652 164.065 314.889 157.294 318.466 148.607C323.364 136.811 325.833 120.502 325.833 99.764C325.833 69.019 320.468 46.535 309.737 32.2272C300.582 20.1762 286.785 14.172 268.346 14.172H247.395V14.172Z" fill="white"/>
<path d="M0.115906 222.644H85.7083V232.097H65.2682C62.0322 232.097 59.6473 232.949 58.1143 234.652C56.5813 236.355 55.8148 239.038 55.8148 242.7V388.079C55.8148 391.571 56.7941 394.041 58.753 395.489C60.712 396.937 64.6295 397.661 70.5059 397.661H96.3968C110.194 397.661 121.478 393.062 130.208 383.906C138.98 374.708 145.325 358.782 149.328 336.085H158.014L153.671 407.114H0.115906V397.661H15.2329C20.4282 397.661 24.0479 396.681 26.1342 394.723C28.2209 392.764 29.2429 389.655 29.2429 385.312V241.423C29.2429 238.357 28.3486 236.058 26.6028 234.482C24.8567 232.906 22.3017 232.097 18.8525 232.097H0.115906V222.644V222.644Z" fill="white"/>
<path d="M270.688 218.811H279.375L345.464 387.483C348.104 394.254 353.555 397.661 361.774 397.661H367.522V407.114H293.939V397.661H299.815C307.437 397.661 312.846 396.852 315.997 395.191C318.169 393.998 319.276 392.21 319.276 389.825C319.276 388.42 318.977 386.93 318.381 385.354L303.137 346.305H230.234L221.59 368.704C219.333 374.666 218.183 379.392 218.183 382.884C218.183 386.93 220.099 390.421 223.889 393.317C227.679 396.213 233.172 397.661 240.412 397.661H246.671V407.114H179.73V397.661C186.884 397.661 192.548 396.085 196.721 392.976C200.894 389.868 204.727 383.991 208.219 375.262L270.688 218.811V218.811ZM267.239 254.283L234.365 336.596H299.347L267.239 254.283Z" fill="white"/>
<path d="M540.035 371.077L542.958 366.75C546.24 366.88 548.788 366.946 550.616 366.946L556.642 366.815C562.569 366.668 567.484 366.587 571.42 366.554C570.897 369.281 570.538 371.567 570.309 373.428C566.896 372.889 562.291 372.53 556.511 372.334C556.887 374 557.082 375.404 557.082 376.547C557.082 379.127 556.479 381.789 555.254 384.499C554.029 387.21 551.939 390.133 549 393.252C552.249 395.652 555.336 397.367 558.275 398.412C561.198 399.441 563.859 399.963 566.243 399.963C567.468 399.963 569.297 399.196 571.746 397.661L572.465 399.963C568.448 402.821 565.623 404.992 563.99 406.495C562.716 406.903 561.41 407.115 560.071 407.115C555.189 407.115 549.49 404.47 542.942 399.196C539.284 402.184 535.953 404.258 532.948 405.401C529.944 406.544 526.661 407.115 523.102 407.115C517.223 407.115 512.422 405.27 508.7 401.564C504.96 397.873 503.099 393.285 503.099 387.798C503.099 383.144 504.47 379.013 507.213 375.421C509.092 372.955 512.733 370.081 518.122 366.766C516.276 361.916 515.346 357.818 515.346 354.47C515.346 351.89 515.721 349.637 516.488 347.726C517.011 346.42 517.991 345.13 519.46 343.857C523.233 340.639 525.6 338.778 526.596 338.256C528.033 337.521 529.699 337.162 531.625 337.162C534.336 337.162 536.459 337.994 538.01 339.644C539.562 341.309 540.329 343.53 540.329 346.339C540.329 352.87 535.659 359.386 526.302 365.884C531.544 375.551 538.141 383.912 546.109 390.982C547.938 388.794 549.196 386.753 549.881 384.908C550.567 383.062 550.91 381.119 550.91 379.062C550.91 376.841 550.535 374.979 549.767 373.51C549.408 372.841 548.902 372.416 548.232 372.22C547.073 371.91 544.427 371.763 540.28 371.796L540.035 371.077V371.077ZM524.686 362.537C530.548 357.834 533.471 353.197 533.471 348.641C533.471 346.649 532.981 345.049 531.985 343.857C531.005 342.665 529.764 342.06 528.262 342.06C526.482 342.06 525.029 342.762 523.902 344.183C522.775 345.603 522.204 347.776 522.204 350.698C522.204 353.948 523.036 357.899 524.686 362.537ZM540.035 396.697C532.475 389.741 525.715 380.924 519.754 370.277C516.685 372.416 514.529 374.588 513.288 376.808C512.047 379.029 511.427 381.495 511.427 384.206C511.427 388.663 512.978 392.664 516.064 396.175C519.167 399.686 523.02 401.433 527.641 401.433C531.642 401.433 535.773 399.849 540.035 396.697Z" fill="#FEFEFE"/>
<path d="M608.032 406.331L608.179 403.098H610.041C611.315 403.098 612.393 402.935 613.241 402.625C614.107 402.298 614.809 401.776 615.348 401.041L619.185 394.526L644.495 351.221C648.071 345.13 650.455 340.933 651.631 338.631H661.037C661.445 341.799 661.918 345.081 662.425 348.494L669.038 390.639C669.74 395.211 670.263 398.151 670.606 399.49C670.932 400.812 671.324 401.661 671.781 402.037C672.222 402.429 673.12 402.69 674.459 402.804L676.615 403.049C677.349 403.082 678.117 403.098 678.917 403.098L678.966 406.331C675.064 406.005 670.573 405.842 665.462 405.842C658.914 405.842 653.542 406.005 649.329 406.331L649.378 403.098H651.239C653.444 403.098 655.027 402.902 655.975 402.527C656.938 402.135 657.412 401.351 657.412 400.159C657.412 398.183 657.167 395.456 656.644 391.995L655.011 379.878H647.418H633.212L629.211 387.096C625.031 394.689 622.941 399.228 622.941 400.747C622.941 401.482 623.316 402.004 624.084 402.331C625.309 402.837 627.823 403.098 631.661 403.098L631.089 406.331C627.154 406.005 623.284 405.842 619.495 405.842C615.658 405.842 611.837 406.005 608.032 406.331V406.331ZM650.374 349.817L635.596 375.078L645.002 375.274L654.293 375.078L650.374 349.817Z" fill="#FEFEFE"/>
<path d="M747.911 394.493L748.776 397.351L740.024 403.768C737.917 405.139 736.121 406.07 734.652 406.593C733.704 406.936 732.823 407.115 732.023 407.115C730.912 407.115 729.981 406.691 729.246 405.825C728.512 404.976 728.152 403.801 728.152 402.347C728.152 401.482 728.234 400.633 728.381 399.767C729.116 396.109 729.834 392.974 730.536 390.362L732.643 382.687C728.61 390.345 723.695 396.616 717.865 401.482C713.424 405.237 709.815 407.115 707.055 407.115C705.308 407.115 703.871 406.315 702.744 404.731C701.618 403.131 701.046 400.567 701.046 396.991C701.046 393.334 701.65 389.202 702.859 384.598C704.067 379.976 705.618 375.992 707.529 372.612C708.607 370.669 709.962 369.117 711.578 367.942C716.444 364.382 720.363 361.965 723.319 360.692C725.409 359.761 727.695 359.304 730.177 359.304C731.81 359.304 733.868 359.647 736.382 360.349L738.015 349.849C738.554 346.387 738.832 344.412 738.832 343.938C738.832 343.154 738.521 342.583 737.917 342.191C737.313 341.815 736.089 341.619 734.276 341.619C733.231 341.619 731.957 341.636 730.488 341.668L731.075 338.827C736.937 338.696 743.649 337.227 751.193 334.418L752.483 335.333C751.405 339.349 750.229 344.265 748.988 350.111L740.742 389.317C739.975 392.958 739.599 395.636 739.599 397.351C739.599 398.445 739.942 398.983 740.644 398.983C741.51 398.983 743.926 397.481 747.911 394.493V394.493ZM735.19 366.015C732.79 364.611 730.047 363.908 726.96 363.908C724.185 363.908 722.242 364.447 721.114 365.525C719.531 367.06 717.669 371.24 715.563 378.082C713.456 384.908 712.411 390.917 712.411 396.077C712.411 397.122 712.591 397.889 712.967 398.363C713.326 398.836 713.799 399.082 714.371 399.082C715.04 399.082 715.938 398.738 717.049 398.036C718.976 396.877 721.049 394.901 723.27 392.109C726.242 388.402 728.626 384.696 730.455 380.972C732.267 377.249 733.541 373.657 734.276 370.212L735.19 366.015V366.015Z" fill="#FEFEFE"/>
<path d="M767.607 372.906L771.82 359.973C774.334 359.532 776.588 359.304 778.564 359.304C779.903 359.304 781.127 359.369 782.238 359.5L785.83 359.892C786.908 360.006 787.822 360.071 788.557 360.071C792.215 360.071 794.844 359.63 796.444 358.716L797.783 360.578C795.546 362.994 793.358 366.129 791.202 369.95C789.047 373.788 787.447 377.56 786.402 381.266C785.373 384.973 784.85 388.402 784.85 391.537C784.85 394.689 785.454 397.04 786.647 398.608C787.839 400.159 789.39 400.943 791.3 400.943C793.635 400.943 795.823 400.045 797.897 398.265C800.836 395.75 803.384 391.848 805.523 386.573C807.678 381.299 808.756 376.482 808.756 372.155C808.756 370.26 808.397 368.872 807.662 367.942C806.927 367.011 805.947 366.554 804.706 366.554C803.629 366.554 802.518 367.011 801.375 367.925L800.363 365.868C801.637 364.954 802.926 363.811 804.233 362.455C805.539 361.116 806.421 360.071 806.895 359.336C807.597 359.124 808.315 359.01 809.05 359.01C811.303 359.01 813.051 359.761 814.275 361.279C815.5 362.798 816.104 365.215 816.104 368.53C816.104 374.033 814.341 380.123 810.797 386.769C807.254 393.415 803.171 398.461 798.551 401.923C793.929 405.384 789.684 407.115 785.781 407.115C782.254 407.115 779.413 405.939 777.274 403.588C775.134 401.237 774.073 397.889 774.073 393.579C774.073 390.737 774.498 388.026 775.363 385.414C776.229 382.817 777.6 380.189 779.511 377.543C781.405 374.914 785.095 370.848 790.582 365.345C788.247 365.917 786.124 366.211 784.213 366.211L778.809 366.162C776.865 366.162 775.184 366.243 773.795 366.407C772.326 368.824 771.215 371.028 770.464 373.004L767.607 372.906V372.906Z" fill="#FEFEFE"/>
<path d="M871.757 394.248L872.802 396.877L864.67 402.037C861.29 403.931 858.432 405.237 856.081 405.989C853.746 406.74 851.607 407.115 849.696 407.115C845.81 407.115 842.805 406.086 840.683 404.046C838.56 402.004 837.499 399.082 837.499 395.244C837.499 390.786 838.446 385.577 840.323 379.65C841.663 375.437 843.475 372.106 845.745 369.64C848.031 367.191 851.917 364.529 857.404 361.704C860.49 360.104 863.609 359.304 866.777 359.304C869.667 359.304 871.953 360.022 873.618 361.476C875.268 362.929 876.1 364.839 876.1 367.207C876.1 370.081 875.284 372.726 873.635 375.176C872.002 377.609 869.079 379.846 864.866 381.871C860.653 383.895 855.46 385.398 849.288 386.394C848.619 388.696 848.276 390.868 848.276 392.925C848.276 395.472 848.929 397.383 850.219 398.657C851.509 399.914 853.338 400.551 855.738 400.551C857.551 400.551 859.885 400.028 862.743 398.967C865.585 397.906 868.589 396.338 871.757 394.248ZM849.664 383.765C854.612 382.426 858.057 381.119 860 379.878C861.943 378.637 863.56 376.858 864.85 374.571C866.14 372.285 866.793 370.26 866.793 368.464C866.793 367.093 866.368 365.982 865.519 365.15C864.686 364.317 863.543 363.908 862.106 363.908C860.539 363.908 859.037 364.415 857.6 365.443C856.163 366.472 854.84 368.269 853.632 370.832C852.423 373.412 851.101 377.723 849.664 383.765V383.765Z" fill="#FEFEFE"/>
<path d="M895.241 407.115L894.049 405.874C894.719 404.143 895.274 402.576 895.731 401.139C897.25 395.93 898.327 392.272 898.931 390.166C900.009 386.312 900.907 382.311 901.626 378.18C902.344 374.049 902.703 371.371 902.703 370.114C902.703 369.183 902.328 368.709 901.61 368.709C901.185 368.709 900.499 368.954 899.552 369.46C897.593 370.473 895.878 371.567 894.376 372.759L893.135 370.179L900.352 364.741C903.553 362.488 906.165 360.904 908.223 360.022C909.366 359.549 910.46 359.304 911.489 359.304C912.37 359.304 913.056 359.532 913.514 360.006C913.987 360.463 914.216 361.198 914.216 362.227C914.216 363.108 914.085 364.251 913.84 365.623C913.122 369.264 912.354 372.612 911.521 375.665L909.546 382.85C912.077 378.735 913.759 376.139 914.624 375.094C917.253 371.877 920.078 368.954 923.131 366.358C926.169 363.761 929.059 361.835 931.77 360.594C933.647 359.728 935.313 359.304 936.75 359.304C938.089 359.304 939.117 359.679 939.82 360.447C940.522 361.214 940.865 362.324 940.865 363.761C940.865 365.868 939.885 370.359 937.942 377.249L935.525 386.018C934.202 390.737 933.549 394.411 933.549 397.073C933.549 398.281 933.925 398.885 934.66 398.885C935.198 398.885 935.998 398.575 937.044 397.971C939.085 396.795 940.669 395.669 941.779 394.591L942.988 397.416C937.338 401.465 933.533 403.996 931.541 405.009C928.896 406.413 926.74 407.115 925.042 407.115C923.866 407.115 922.984 406.74 922.413 405.972C921.841 405.205 921.547 403.866 921.547 401.955C921.547 399.882 922.184 396.648 923.458 392.239L924.993 386.933C926.299 382.214 927.099 379.095 927.393 377.56C928.259 373.853 928.683 371.485 928.683 370.424C928.683 369.852 928.52 369.411 928.193 369.085C927.851 368.775 927.393 368.611 926.822 368.611C925.238 368.611 923.082 369.983 920.339 372.726C916.567 376.515 913.448 381.103 910.982 386.508C908.517 391.897 906.769 398.134 905.708 405.254C901.658 405.564 898.18 406.184 895.241 407.115V407.115Z" fill="#FEFEFE"/>
<path d="M992.076 392.876L993.219 395.554L986.034 400.828C982.344 403.36 979.519 405.041 977.576 405.874C975.633 406.707 974.016 407.115 972.742 407.115C971.11 407.115 969.803 406.576 968.807 405.483C967.827 404.405 967.338 402.87 967.338 400.894C967.338 399.849 967.468 398.608 967.746 397.203C968.007 395.799 969.346 389.872 971.73 379.405C973.298 372.563 974.228 368.203 974.555 366.358H963.941L964.611 363.729C967.664 363.06 971.436 361.982 975.894 360.479C977.053 354.127 977.658 349.621 977.69 346.959C981.103 346.077 985.12 344.803 989.741 343.138L990.753 344.281C989.12 349.914 987.618 355.564 986.247 361.263H991.161C994.721 361.263 997.497 361.132 999.505 360.871L999.881 361.247L999.212 363.68C998.902 364.774 998.689 365.787 998.591 366.733C995.799 366.488 993.007 366.358 990.247 366.358H985.136C984.059 370.048 982.638 376.107 980.874 384.483C979.503 390.999 978.817 395.016 978.817 396.55C978.817 397.383 979.045 398.02 979.486 398.477C979.927 398.951 980.499 399.179 981.168 399.179C982.115 399.179 983.291 398.787 984.695 398.02C987.406 396.55 989.871 394.836 992.076 392.876V392.876Z" fill="#FEFEFE"/>
<path d="M1015.05 371.926L1013.91 369.199C1018.21 366.08 1021.98 363.647 1025.19 361.916C1028.41 360.169 1030.86 359.304 1032.56 359.304C1033.64 359.304 1034.45 359.598 1034.99 360.169C1035.53 360.741 1035.81 361.721 1035.81 363.092C1035.81 364.742 1035.24 367.664 1034.08 371.844L1031.25 382.279C1030.19 386.198 1029.31 389.954 1028.61 393.529C1028.3 395.097 1028.13 396.24 1028.13 396.975C1028.13 397.677 1028.28 398.2 1028.59 398.559C1028.9 398.902 1029.31 399.082 1029.82 399.082C1030.49 399.082 1031.35 398.738 1032.41 398.069C1034.08 396.991 1036.2 394.869 1038.76 391.701C1041.33 388.517 1043.55 384.989 1045.43 381.087C1047.29 377.184 1048.68 373.412 1049.57 369.803C1050.47 366.178 1050.99 363.337 1051.16 361.263C1054.39 361.132 1057.87 360.479 1061.59 359.304L1062.41 360.267C1060.78 365.215 1058.91 371.567 1056.79 379.34C1054.28 388.729 1053.02 394.656 1053.02 397.106C1053.02 398.232 1053.49 398.788 1054.46 398.788C1054.83 398.788 1055.44 398.559 1056.27 398.102C1058.21 396.975 1059.99 395.75 1061.58 394.395L1062.54 397.122L1053.84 403.409C1051.44 404.992 1049.64 405.989 1048.41 406.446C1047.17 406.887 1046.14 407.115 1045.28 407.115C1044.32 407.115 1043.56 406.772 1043.01 406.086C1042.45 405.401 1042.18 404.405 1042.18 403.098C1042.18 401.498 1042.73 398.624 1043.84 394.444L1046.67 383.977C1042.76 390.982 1037.8 396.942 1031.79 401.857C1027.48 405.368 1023.94 407.115 1021.18 407.115C1019.77 407.115 1018.68 406.642 1017.88 405.711C1017.08 404.764 1016.69 403.262 1016.69 401.188C1016.69 400.077 1016.8 398.983 1017.01 397.889C1017.27 396.453 1017.96 393.758 1019.07 389.774L1020.46 384.663C1022.63 376.858 1023.71 371.991 1023.71 370.081C1023.71 369.444 1023.58 368.954 1023.33 368.628C1023.07 368.285 1022.75 368.121 1022.32 368.121C1021.37 368.121 1018.94 369.395 1015.05 371.926V371.926Z" fill="#FEFEFE"/>
<path d="M1084.78 407.115L1083.72 406.021C1085.48 400.322 1087.1 394.427 1088.57 388.288C1089.34 385.104 1090.04 381.397 1090.68 377.184C1091.09 374.343 1091.3 372.204 1091.3 370.767C1091.3 369.901 1091.2 369.314 1091 368.987C1090.81 368.677 1090.56 368.513 1090.24 368.513C1089.76 368.513 1089.03 368.791 1088.03 369.33C1086.42 370.244 1084.68 371.452 1082.87 373.004L1081.73 370.375C1091 362.994 1097.01 359.304 1099.76 359.304C1100.56 359.304 1101.21 359.614 1101.75 360.234C1102.27 360.855 1102.53 361.721 1102.53 362.847C1102.53 364.594 1101.37 370.032 1099.04 379.16L1098.42 381.707H1099.04C1101.41 376.253 1103.84 371.649 1106.35 367.893C1108.85 364.137 1111.02 361.704 1112.84 360.545C1114.17 359.712 1115.78 359.304 1117.64 359.304C1118.52 359.304 1119.4 359.451 1120.27 359.728C1118.99 363.892 1118.27 368.301 1118.11 372.939L1117.02 373.608C1115.45 372.236 1113.75 371.551 1111.92 371.551C1109 371.551 1106.37 373.478 1104 377.347C1099.9 383.961 1097 393.252 1095.31 405.205C1091.23 405.678 1087.72 406.315 1084.78 407.115V407.115Z" fill="#FEFEFE"/>
<path d="M1169.16 394.248L1170.2 396.877L1162.07 402.037C1158.69 403.931 1155.83 405.237 1153.48 405.989C1151.15 406.74 1149.01 407.115 1147.1 407.115C1143.21 407.115 1140.21 406.086 1138.08 404.046C1135.96 402.004 1134.9 399.082 1134.9 395.244C1134.9 390.786 1135.85 385.577 1137.72 379.65C1139.06 375.437 1140.88 372.106 1143.15 369.64C1145.43 367.191 1149.32 364.529 1154.8 361.704C1157.89 360.104 1161.01 359.304 1164.18 359.304C1167.07 359.304 1169.35 360.022 1171.02 361.476C1172.67 362.929 1173.5 364.839 1173.5 367.207C1173.5 370.081 1172.69 372.726 1171.04 375.176C1169.4 377.609 1166.48 379.846 1162.27 381.871C1158.05 383.895 1152.86 385.398 1146.69 386.394C1146.02 388.696 1145.68 390.868 1145.68 392.925C1145.68 395.472 1146.33 397.383 1147.62 398.657C1148.91 399.914 1150.74 400.551 1153.14 400.551C1154.95 400.551 1157.29 400.028 1160.14 398.967C1162.99 397.906 1165.99 396.338 1169.16 394.248ZM1147.06 383.765C1152.01 382.426 1155.46 381.119 1157.4 379.878C1159.34 378.637 1160.96 376.858 1162.25 374.571C1163.54 372.285 1164.19 370.26 1164.19 368.464C1164.19 367.093 1163.77 365.982 1162.92 365.15C1162.09 364.317 1160.94 363.908 1159.51 363.908C1157.94 363.908 1156.44 364.415 1155 365.443C1153.56 366.472 1152.24 368.269 1151.03 370.832C1149.82 373.412 1148.5 377.723 1147.06 383.765Z" fill="#FEFEFE"/>
<path d="M813.174 299.477C816.309 299.641 819.363 299.723 822.335 299.723C828.36 299.723 833.063 299.559 836.46 299.249C838.827 298.987 841.277 298.531 843.808 297.861L846.682 286.594H849.719C848.919 292.636 848.299 298.286 847.858 303.543C844.984 304.001 841.065 304.213 836.084 304.213L813.288 303.837C810.219 303.837 805.45 304.001 798.968 304.327V301.78C801.515 300.669 803.018 299.477 803.475 298.204C803.932 296.93 804.16 291.884 804.16 283.067V256.793C804.16 247.24 803.932 241.917 803.475 240.823C803.001 239.729 801.711 239.174 799.572 239.174H794.363V236.137C801.956 236.332 806.986 236.431 809.484 236.431C812.799 236.431 817.289 236.332 822.972 236.137V239.174H817.044C815.362 239.174 814.285 239.664 813.844 240.627C813.403 241.607 813.174 245.64 813.174 252.743V283.181L813.321 296.669L813.174 299.477V299.477Z" fill="#FEFEFE"/>
<path d="M878.868 281.009C879.031 287.296 880.631 292.064 883.702 295.33C886.755 298.579 890.772 300.212 895.736 300.212C897.957 300.212 900.178 299.837 902.366 299.102C904.57 298.367 906.758 297.257 908.914 295.771L909.73 296.489L908.195 300.506C905.55 302.041 902.823 303.184 900.031 303.952C897.222 304.719 894.332 305.111 891.376 305.111C884.894 305.111 879.685 303.054 875.716 298.955C871.748 294.856 869.756 289.304 869.756 282.283C869.756 276.927 870.867 272.289 873.104 268.37C874.574 265.774 877.284 263.39 881.236 261.185C885.171 258.981 889.025 257.887 892.748 257.887C898.382 257.887 902.856 259.553 906.154 262.867C909.453 266.199 911.102 270.836 911.102 276.813L911.004 279.637C908.897 280.144 906.905 280.47 904.995 280.634C901.582 280.879 896.846 281.009 890.805 281.009H878.868V281.009ZM878.966 277.482C883.914 277.678 889.368 277.776 895.344 277.776C897.728 277.776 900.047 277.662 902.284 277.433V274.755C902.284 271.947 901.729 269.285 900.602 266.77C899.9 265.203 898.675 263.912 896.928 262.867C895.164 261.839 893.14 261.316 890.837 261.316C887.261 261.316 884.404 262.622 882.264 265.251C880.125 267.864 879.031 271.946 878.966 277.482V277.482Z" fill="#FEFEFE"/>
<path d="M936.054 270.885L936.103 267.668L936.054 264.353L941.279 261.398C943.631 260.075 945.705 259.161 947.468 258.655C949.248 258.148 951.126 257.887 953.134 257.887C957.543 257.887 961.087 258.867 963.797 260.843C966.492 262.819 968.108 265.349 968.647 268.403C969.022 270.689 969.267 276.388 969.366 285.467C969.431 294.04 969.627 298.759 969.937 299.657C970.247 300.555 971.048 300.996 972.321 300.996H976.028V304.131C972.386 303.935 969.855 303.837 968.418 303.837C966.622 303.837 964.238 303.935 961.234 304.131L961.283 299.886C961.283 298.531 961.266 297.142 961.234 295.738L951.322 303.298C950.44 303.968 949.558 304.442 948.693 304.703C947.843 304.98 946.635 305.111 945.117 305.111C941.002 305.111 937.85 304.099 935.678 302.074C933.507 300.049 932.429 297.322 932.429 293.909C932.429 290.693 933.196 287.867 934.747 285.451C936.299 283.05 938.503 281.271 941.361 280.127C944.202 278.968 950.832 277.466 961.234 275.621C961.168 271.587 960.27 268.566 958.555 266.558C956.384 264.043 953.298 262.786 949.28 262.786C947.746 262.786 946.309 262.966 944.97 263.341C943.631 263.717 942.39 264.288 941.23 265.039C940.316 267.325 939.467 269.513 938.699 271.604L936.054 270.885V270.885ZM961.234 278.462C952.367 280.372 946.733 282.169 944.349 283.85C941.949 285.516 940.757 288.112 940.757 291.623C940.757 293.991 941.442 295.885 942.814 297.306C944.186 298.726 945.95 299.429 948.121 299.429C950.522 299.429 952.808 298.759 954.996 297.42C957.168 296.081 959.258 294.089 961.234 291.427L961.136 280.813L961.234 278.462V278.462Z" fill="#FEFEFE"/>
<path d="M1011.56 268.746C1012.84 267.538 1014.22 265.937 1015.73 263.961C1017.51 261.643 1019.17 260.042 1020.71 259.177C1022.24 258.311 1023.84 257.887 1025.54 257.887C1027.29 257.887 1028.63 258.099 1029.56 258.508C1030 258.703 1030.23 258.997 1030.23 259.406L1030.18 259.895C1029.65 262.475 1029.36 266.084 1029.29 270.722H1027.14C1026.4 269.105 1025.56 267.978 1024.56 267.309C1023.56 266.64 1022.35 266.313 1020.97 266.313C1019.11 266.313 1017.37 266.95 1015.77 268.223C1014.17 269.497 1013.1 271.277 1012.56 273.579C1012.02 275.865 1011.76 280.372 1011.76 287.1C1011.76 291.525 1011.94 295.248 1012.28 298.286C1012.41 299.396 1012.74 300.098 1013.24 300.376C1014.45 301.045 1016.23 301.388 1018.58 301.388H1021.46V304.131C1016.57 303.935 1011.95 303.837 1007.58 303.837C1003.35 303.837 999.151 303.935 995.004 304.131V301.388L999.576 301.013C1001.19 300.882 1002.22 300.571 1002.66 300.098C1003.09 299.624 1003.36 298.073 1003.49 295.46C1003.71 290.856 1003.82 285.402 1003.82 279.082C1003.82 271.407 1003.53 266.885 1002.92 265.545C1002.5 264.68 1001.19 264.255 999.004 264.255H995.004V261.512C998.106 261.169 1000.87 260.712 1003.28 260.157C1005.72 259.601 1007.87 258.883 1009.75 258.018C1010.19 257.805 1010.57 257.691 1010.84 257.691C1011.2 257.691 1011.43 257.789 1011.56 257.985C1011.69 258.164 1011.76 258.606 1011.76 259.275L1011.56 268.746V268.746Z" fill="#FEFEFE"/>
<path d="M1064.73 267.064L1071.95 260.63C1072.8 259.863 1073.71 259.291 1074.66 258.948C1076.77 258.246 1078.87 257.887 1080.96 257.887C1084.37 257.887 1087.31 258.573 1089.8 259.961C1092.28 261.349 1094.06 263.161 1095.15 265.382C1096.23 267.586 1096.77 271.065 1096.77 275.784L1096.57 290.856C1096.57 296.065 1096.8 299.053 1097.24 299.853C1097.85 300.882 1099.02 301.388 1100.77 301.388H1104.21V304.131C1100.8 303.935 1097.85 303.837 1095.36 303.837C1092.93 303.837 1090.33 303.935 1087.56 304.131C1088.15 297.926 1088.44 289.533 1088.44 278.952C1088.44 274.69 1088.06 271.669 1087.33 269.889C1086.58 268.109 1085.32 266.672 1083.56 265.578C1081.79 264.5 1079.69 263.961 1077.21 263.961C1074.14 263.961 1071.52 264.745 1069.38 266.296C1067.23 267.864 1065.91 269.579 1065.4 271.473C1065.09 272.714 1064.93 275.963 1064.93 281.221C1064.93 287.051 1064.98 292.472 1065.07 297.469C1065.11 298.971 1065.33 299.902 1065.74 300.294C1066.56 301.029 1067.88 301.388 1069.73 301.388H1073.16V304.131C1067.72 303.935 1063.41 303.837 1060.19 303.837C1056.78 303.837 1052.91 303.935 1048.56 304.131V301.388H1052.03C1054.41 301.388 1055.8 300.833 1056.19 299.739C1056.6 298.645 1056.79 292.031 1056.79 279.915C1056.79 274.478 1056.73 270.215 1056.6 267.129C1056.53 266.101 1056.29 265.398 1055.83 265.023C1055.39 264.647 1054.12 264.451 1052.03 264.451H1048.56V261.708C1051.31 261.382 1053.77 260.957 1055.95 260.401C1058.13 259.847 1060.57 259.014 1063.29 257.887C1063.59 257.756 1063.85 257.691 1064.11 257.691C1064.62 257.691 1064.88 258.05 1064.88 258.785L1064.83 260.614L1064.73 267.064V267.064Z" fill="#FEFEFE"/>
<path d="M1134 236.626C1135.45 236.626 1136.73 237.149 1137.77 238.21C1138.83 239.272 1139.36 240.545 1139.36 242.031C1139.36 243.533 1138.83 244.791 1137.77 245.836C1136.73 246.881 1135.45 247.404 1134 247.404C1132.5 247.404 1131.21 246.881 1130.16 245.836C1129.1 244.791 1128.58 243.533 1128.58 242.031C1128.58 240.545 1129.1 239.272 1130.16 238.21C1131.21 237.149 1132.5 236.626 1134 236.626ZM1137.72 257.691L1138.87 258.41C1138.67 260.81 1138.54 263.439 1138.47 266.313C1138.28 275.621 1138.18 282.495 1138.18 286.937C1138.18 291.084 1138.33 294.628 1138.6 297.567C1138.74 298.71 1139.05 299.51 1139.52 299.951C1139.99 300.392 1141.15 300.735 1142.97 300.963L1146.21 301.388V304.131C1141.54 303.935 1137.28 303.837 1133.44 303.837C1129.67 303.837 1125.85 303.935 1122.01 304.131V301.388L1126.15 300.963C1127.76 300.833 1128.74 300.539 1129.12 300.065C1129.48 299.608 1129.71 298.057 1129.8 295.444C1129.97 291.378 1130.05 285.777 1130.05 278.658C1130.05 273.694 1129.97 269.873 1129.8 267.178C1129.74 266.199 1129.46 265.496 1128.97 265.072C1128.46 264.664 1127.35 264.451 1125.62 264.451H1122.01V261.708C1125.9 261.137 1128.77 260.614 1130.6 260.124C1132.45 259.651 1134.82 258.834 1137.72 257.691V257.691Z" fill="#FEFEFE"/>
<path d="M1180.77 267.064L1187.99 260.63C1188.83 259.863 1189.75 259.291 1190.7 258.948C1192.8 258.246 1194.91 257.887 1197 257.887C1200.41 257.887 1203.35 258.573 1205.83 259.961C1208.32 261.349 1210.1 263.161 1211.19 265.382C1212.27 267.586 1212.81 271.065 1212.81 275.784L1212.61 290.856C1212.61 296.065 1212.84 299.053 1213.28 299.853C1213.88 300.882 1215.06 301.388 1216.81 301.388H1220.25V304.131C1216.84 303.935 1213.88 303.837 1211.4 303.837C1208.97 303.837 1206.37 303.935 1203.6 304.131C1204.18 297.926 1204.48 289.533 1204.48 278.952C1204.48 274.69 1204.1 271.669 1203.37 269.889C1202.62 268.109 1201.36 266.672 1199.6 265.578C1197.83 264.5 1195.73 263.961 1193.24 263.961C1190.17 263.961 1187.56 264.745 1185.42 266.296C1183.27 267.864 1181.94 269.579 1181.44 271.473C1181.13 272.714 1180.96 275.963 1180.96 281.221C1180.96 287.051 1181.01 292.472 1181.11 297.469C1181.14 298.971 1181.37 299.902 1181.78 300.294C1182.6 301.029 1183.92 301.388 1185.77 301.388H1189.19V304.131C1183.76 303.935 1179.45 303.837 1176.23 303.837C1172.82 303.837 1168.95 303.935 1164.6 304.131V301.388H1168.06C1170.45 301.388 1171.84 300.833 1172.23 299.739C1172.64 298.645 1172.83 292.031 1172.83 279.915C1172.83 274.478 1172.77 270.215 1172.64 267.129C1172.57 266.101 1172.33 265.398 1171.87 265.023C1171.43 264.647 1170.15 264.451 1168.06 264.451H1164.6V261.708C1167.35 261.382 1169.81 260.957 1171.98 260.401C1174.17 259.847 1176.6 259.014 1179.33 257.887C1179.63 257.756 1179.89 257.691 1180.15 257.691C1180.65 257.691 1180.92 258.05 1180.92 258.785L1180.87 260.614L1180.77 267.064V267.064Z" fill="#FEFEFE"/>
<path d="M1278.5 266.705C1279.23 268.762 1279.59 270.444 1279.59 271.767C1279.59 274.608 1278.73 277.368 1277.01 280.013C1275.28 282.658 1272.83 284.798 1269.65 286.414C1266.45 288.031 1263.02 288.847 1259.31 288.847H1257.06C1254.97 290.399 1253.65 291.558 1253.09 292.309C1252.54 293.076 1252.26 293.828 1252.26 294.546C1252.26 295.754 1252.88 296.702 1254.12 297.403C1255.36 298.106 1257.91 298.449 1261.73 298.449C1263.2 298.449 1265.31 298.4 1268.05 298.302C1271.97 298.139 1274.81 298.057 1276.57 298.057C1279.09 298.057 1281.01 298.465 1282.35 299.282C1283.69 300.082 1284.85 301.502 1285.8 303.527C1286.76 305.552 1287.24 307.838 1287.24 310.385C1287.24 313.962 1286.16 317.374 1283.99 320.64C1281.81 323.906 1278.65 326.535 1274.52 328.511C1270.37 330.486 1265.58 331.466 1260.19 331.466C1253.63 331.466 1248.57 330.046 1245.03 327.188C1241.48 324.33 1239.72 320.803 1239.72 316.623C1239.72 314.043 1240.65 311.414 1242.49 308.769C1245.81 307.201 1248.58 305.633 1250.85 304.033C1248.24 303.184 1246.58 302.4 1245.83 301.682C1245.09 300.98 1244.71 300.065 1244.71 298.955C1244.71 297.632 1245.07 296.31 1245.81 295.02C1246.22 294.22 1247.28 293.256 1248.96 292.129L1253.58 288.847C1249.76 287.884 1247 286.528 1245.32 284.781C1243.08 282.413 1241.97 279.392 1241.97 275.718C1241.97 272.485 1242.8 269.546 1244.45 266.901C1246.12 264.239 1248.55 262.149 1251.77 260.614C1255.88 258.671 1259.85 257.691 1263.67 257.691C1266.11 257.691 1268.23 258.001 1270.06 258.622C1271.9 259.242 1273.76 260.304 1275.67 261.806H1279.69C1283.84 261.806 1287.06 261.675 1289.36 261.414L1289.88 262.41C1288.92 263.782 1288.07 265.219 1287.33 266.705H1278.5V266.705ZM1271.27 274.428C1271.27 270.428 1270.24 267.211 1268.2 264.778C1266.16 262.345 1263.59 261.12 1260.49 261.12C1257.44 261.12 1254.97 262.116 1253.11 264.092C1251.23 266.084 1250.3 268.844 1250.3 272.355C1250.3 276.616 1251.31 279.964 1253.34 282.381C1255.36 284.798 1257.91 286.006 1260.98 286.006C1264.03 286.006 1266.51 284.993 1268.42 282.952C1270.32 280.927 1271.27 278.086 1271.27 274.428V274.428ZM1258.22 304.817C1255.95 304.817 1254.4 305.079 1253.58 305.585C1250.9 307.299 1249.27 308.687 1248.7 309.749C1247.74 311.414 1247.26 313.504 1247.26 316.019C1247.26 319.497 1248.55 322.371 1251.13 324.641C1253.71 326.911 1257.3 328.037 1261.89 328.037C1265.44 328.037 1268.54 327.384 1271.23 326.078C1273.91 324.771 1275.99 322.975 1277.47 320.689C1278.96 318.403 1279.69 316.052 1279.69 313.618C1279.69 311.545 1279.17 309.732 1278.14 308.165C1277.1 306.597 1275.87 305.601 1274.43 305.16C1273.7 304.932 1272.02 304.817 1269.4 304.817H1258.22V304.817Z" fill="#FEFEFE"/>
<path d="M813.174 299.477C816.309 299.641 819.363 299.723 822.335 299.723C828.36 299.723 833.063 299.559 836.46 299.249C838.827 298.987 841.277 298.531 843.808 297.861L846.682 286.594H849.719C848.919 292.636 848.299 298.286 847.858 303.543C844.984 304.001 841.065 304.213 836.084 304.213L813.288 303.837C810.219 303.837 805.45 304.001 798.968 304.327V301.78C801.515 300.669 803.018 299.477 803.475 298.204C803.932 296.93 804.16 291.884 804.16 283.067V256.793C804.16 247.24 803.932 241.917 803.475 240.823C803.001 239.729 801.711 239.174 799.572 239.174H794.363V236.137C801.956 236.332 806.986 236.431 809.484 236.431C812.799 236.431 817.289 236.332 822.972 236.137V239.174H817.044C815.362 239.174 814.285 239.664 813.844 240.627C813.403 241.607 813.174 245.64 813.174 252.743V283.181L813.321 296.669L813.174 299.477V299.477Z" stroke="#FEFEFE" stroke-width="1.33342" stroke-miterlimit="22.9256"/>
<path d="M878.868 281.009C879.031 287.296 880.631 292.064 883.702 295.33C886.755 298.579 890.772 300.212 895.736 300.212C897.957 300.212 900.178 299.837 902.366 299.102C904.57 298.367 906.758 297.257 908.914 295.771L909.73 296.489L908.195 300.506C905.55 302.041 902.823 303.184 900.031 303.952C897.222 304.719 894.332 305.111 891.376 305.111C884.894 305.111 879.685 303.054 875.716 298.955C871.748 294.856 869.756 289.304 869.756 282.283C869.756 276.927 870.867 272.289 873.104 268.37C874.574 265.774 877.284 263.39 881.236 261.185C885.171 258.981 889.025 257.887 892.748 257.887C898.382 257.887 902.856 259.553 906.154 262.867C909.453 266.199 911.102 270.836 911.102 276.813L911.004 279.637C908.897 280.144 906.905 280.47 904.995 280.634C901.582 280.879 896.846 281.009 890.805 281.009H878.868V281.009ZM878.966 277.482C883.914 277.678 889.368 277.776 895.344 277.776C897.728 277.776 900.047 277.662 902.284 277.433V274.755C902.284 271.947 901.729 269.285 900.602 266.77C899.9 265.203 898.675 263.912 896.928 262.867C895.164 261.839 893.14 261.316 890.837 261.316C887.261 261.316 884.404 262.622 882.264 265.251C880.125 267.864 879.031 271.946 878.966 277.482V277.482Z" stroke="#FEFEFE" stroke-width="1.33342" stroke-miterlimit="22.9256"/>
<path d="M936.054 270.885L936.103 267.668L936.054 264.353L941.279 261.398C943.631 260.075 945.705 259.161 947.468 258.655C949.248 258.148 951.126 257.887 953.134 257.887C957.543 257.887 961.087 258.867 963.797 260.843C966.492 262.819 968.108 265.349 968.647 268.403C969.022 270.689 969.267 276.388 969.366 285.467C969.431 294.04 969.627 298.759 969.937 299.657C970.247 300.555 971.048 300.996 972.321 300.996H976.028V304.131C972.386 303.935 969.855 303.837 968.418 303.837C966.622 303.837 964.238 303.935 961.234 304.131L961.283 299.886C961.283 298.531 961.266 297.142 961.234 295.738L951.322 303.298C950.44 303.968 949.558 304.442 948.693 304.703C947.843 304.98 946.635 305.111 945.117 305.111C941.002 305.111 937.85 304.099 935.678 302.074C933.507 300.049 932.429 297.322 932.429 293.909C932.429 290.693 933.196 287.867 934.747 285.451C936.299 283.05 938.503 281.271 941.361 280.127C944.202 278.968 950.832 277.466 961.234 275.621C961.168 271.587 960.27 268.566 958.555 266.558C956.384 264.043 953.298 262.786 949.28 262.786C947.746 262.786 946.309 262.966 944.97 263.341C943.631 263.717 942.39 264.288 941.23 265.039C940.316 267.325 939.467 269.513 938.699 271.604L936.054 270.885V270.885ZM961.234 278.462C952.367 280.372 946.733 282.169 944.349 283.85C941.949 285.516 940.757 288.112 940.757 291.623C940.757 293.991 941.442 295.885 942.814 297.306C944.186 298.726 945.95 299.429 948.121 299.429C950.522 299.429 952.808 298.759 954.996 297.42C957.168 296.081 959.258 294.089 961.234 291.427L961.136 280.813L961.234 278.462V278.462Z" stroke="#FEFEFE" stroke-width="1.33342" stroke-miterlimit="22.9256"/>
<path d="M1011.56 268.746C1012.84 267.538 1014.22 265.937 1015.73 263.961C1017.51 261.643 1019.17 260.042 1020.71 259.177C1022.24 258.311 1023.84 257.887 1025.54 257.887C1027.29 257.887 1028.63 258.099 1029.56 258.508C1030 258.703 1030.23 258.997 1030.23 259.406L1030.18 259.895C1029.65 262.475 1029.36 266.084 1029.29 270.722H1027.14C1026.4 269.105 1025.56 267.978 1024.56 267.309C1023.56 266.64 1022.35 266.313 1020.97 266.313C1019.11 266.313 1017.37 266.95 1015.77 268.223C1014.17 269.497 1013.1 271.277 1012.56 273.579C1012.02 275.865 1011.76 280.372 1011.76 287.1C1011.76 291.525 1011.94 295.248 1012.28 298.286C1012.41 299.396 1012.74 300.098 1013.24 300.376C1014.45 301.045 1016.23 301.388 1018.58 301.388H1021.46V304.131C1016.57 303.935 1011.95 303.837 1007.58 303.837C1003.35 303.837 999.151 303.935 995.004 304.131V301.388L999.576 301.013C1001.19 300.882 1002.22 300.571 1002.66 300.098C1003.09 299.624 1003.36 298.073 1003.49 295.46C1003.71 290.856 1003.82 285.402 1003.82 279.082C1003.82 271.407 1003.53 266.885 1002.92 265.545C1002.5 264.68 1001.19 264.255 999.004 264.255H995.004V261.512C998.106 261.169 1000.87 260.712 1003.28 260.157C1005.72 259.601 1007.87 258.883 1009.75 258.018C1010.19 257.805 1010.57 257.691 1010.84 257.691C1011.2 257.691 1011.43 257.789 1011.56 257.985C1011.69 258.164 1011.76 258.606 1011.76 259.275L1011.56 268.746V268.746Z" stroke="#FEFEFE" stroke-width="1.33342" stroke-miterlimit="22.9256"/>
<path d="M1064.73 267.064L1071.95 260.63C1072.8 259.863 1073.71 259.291 1074.66 258.948C1076.77 258.246 1078.87 257.887 1080.96 257.887C1084.37 257.887 1087.31 258.573 1089.8 259.961C1092.28 261.349 1094.06 263.161 1095.15 265.382C1096.23 267.586 1096.77 271.065 1096.77 275.784L1096.57 290.856C1096.57 296.065 1096.8 299.053 1097.24 299.853C1097.85 300.882 1099.02 301.388 1100.77 301.388H1104.21V304.131C1100.8 303.935 1097.85 303.837 1095.36 303.837C1092.93 303.837 1090.33 303.935 1087.56 304.131C1088.15 297.926 1088.44 289.533 1088.44 278.952C1088.44 274.69 1088.06 271.669 1087.33 269.889C1086.58 268.109 1085.32 266.672 1083.56 265.578C1081.79 264.5 1079.69 263.961 1077.21 263.961C1074.14 263.961 1071.52 264.745 1069.38 266.296C1067.23 267.864 1065.91 269.579 1065.4 271.473C1065.09 272.714 1064.93 275.963 1064.93 281.221C1064.93 287.051 1064.98 292.472 1065.07 297.469C1065.11 298.971 1065.33 299.902 1065.74 300.294C1066.56 301.029 1067.88 301.388 1069.73 301.388H1073.16V304.131C1067.72 303.935 1063.41 303.837 1060.19 303.837C1056.78 303.837 1052.91 303.935 1048.56 304.131V301.388H1052.03C1054.41 301.388 1055.8 300.833 1056.19 299.739C1056.6 298.645 1056.79 292.031 1056.79 279.915C1056.79 274.478 1056.73 270.215 1056.6 267.129C1056.53 266.101 1056.29 265.398 1055.83 265.023C1055.39 264.647 1054.12 264.451 1052.03 264.451H1048.56V261.708C1051.31 261.382 1053.77 260.957 1055.95 260.401C1058.13 259.847 1060.57 259.014 1063.29 257.887C1063.59 257.756 1063.85 257.691 1064.11 257.691C1064.62 257.691 1064.88 258.05 1064.88 258.785L1064.83 260.614L1064.73 267.064V267.064Z" stroke="#FEFEFE" stroke-width="1.33342" stroke-miterlimit="22.9256"/>
<path d="M1134 236.626C1135.45 236.626 1136.73 237.149 1137.77 238.21C1138.83 239.272 1139.36 240.545 1139.36 242.031C1139.36 243.533 1138.83 244.791 1137.77 245.836C1136.73 246.881 1135.45 247.404 1134 247.404C1132.5 247.404 1131.21 246.881 1130.16 245.836C1129.1 244.791 1128.58 243.533 1128.58 242.031C1128.58 240.545 1129.1 239.272 1130.16 238.21C1131.21 237.149 1132.5 236.626 1134 236.626ZM1137.72 257.691L1138.87 258.41C1138.67 260.81 1138.54 263.439 1138.47 266.313C1138.28 275.621 1138.18 282.495 1138.18 286.937C1138.18 291.084 1138.33 294.628 1138.6 297.567C1138.74 298.71 1139.05 299.51 1139.52 299.951C1139.99 300.392 1141.15 300.735 1142.97 300.963L1146.21 301.388V304.131C1141.54 303.935 1137.28 303.837 1133.44 303.837C1129.67 303.837 1125.85 303.935 1122.01 304.131V301.388L1126.15 300.963C1127.76 300.833 1128.74 300.539 1129.12 300.065C1129.48 299.608 1129.71 298.057 1129.8 295.444C1129.97 291.378 1130.05 285.777 1130.05 278.658C1130.05 273.694 1129.97 269.873 1129.8 267.178C1129.74 266.199 1129.46 265.496 1128.97 265.072C1128.46 264.664 1127.35 264.451 1125.62 264.451H1122.01V261.708C1125.9 261.137 1128.77 260.614 1130.6 260.124C1132.45 259.651 1134.82 258.834 1137.72 257.691V257.691Z" stroke="#FEFEFE" stroke-width="1.33342" stroke-miterlimit="22.9256"/>
<path d="M1180.77 267.064L1187.99 260.63C1188.83 259.863 1189.75 259.291 1190.7 258.948C1192.8 258.246 1194.91 257.887 1197 257.887C1200.41 257.887 1203.35 258.573 1205.83 259.961C1208.32 261.349 1210.1 263.161 1211.19 265.382C1212.27 267.586 1212.81 271.065 1212.81 275.784L1212.61 290.856C1212.61 296.065 1212.84 299.053 1213.28 299.853C1213.88 300.882 1215.06 301.388 1216.81 301.388H1220.25V304.131C1216.84 303.935 1213.88 303.837 1211.4 303.837C1208.97 303.837 1206.37 303.935 1203.6 304.131C1204.18 297.926 1204.48 289.533 1204.48 278.952C1204.48 274.69 1204.1 271.669 1203.37 269.889C1202.62 268.109 1201.36 266.672 1199.6 265.578C1197.83 264.5 1195.73 263.961 1193.24 263.961C1190.17 263.961 1187.56 264.745 1185.42 266.296C1183.27 267.864 1181.94 269.579 1181.44 271.473C1181.13 272.714 1180.96 275.963 1180.96 281.221C1180.96 287.051 1181.01 292.472 1181.11 297.469C1181.14 298.971 1181.37 299.902 1181.78 300.294C1182.6 301.029 1183.92 301.388 1185.77 301.388H1189.19V304.131C1183.76 303.935 1179.45 303.837 1176.23 303.837C1172.82 303.837 1168.95 303.935 1164.6 304.131V301.388H1168.06C1170.45 301.388 1171.84 300.833 1172.23 299.739C1172.64 298.645 1172.83 292.031 1172.83 279.915C1172.83 274.478 1172.77 270.215 1172.64 267.129C1172.57 266.101 1172.33 265.398 1171.87 265.023C1171.43 264.647 1170.15 264.451 1168.06 264.451H1164.6V261.708C1167.35 261.382 1169.81 260.957 1171.98 260.401C1174.17 259.847 1176.6 259.014 1179.33 257.887C1179.63 257.756 1179.89 257.691 1180.15 257.691C1180.65 257.691 1180.92 258.05 1180.92 258.785L1180.87 260.614L1180.77 267.064V267.064Z" stroke="#FEFEFE" stroke-width="1.33342" stroke-miterlimit="22.9256"/>
<path d="M1278.5 266.705C1279.23 268.762 1279.59 270.444 1279.59 271.767C1279.59 274.608 1278.73 277.368 1277.01 280.013C1275.28 282.658 1272.83 284.798 1269.65 286.414C1266.45 288.031 1263.02 288.847 1259.31 288.847H1257.06C1254.97 290.399 1253.65 291.558 1253.09 292.309C1252.54 293.076 1252.26 293.828 1252.26 294.546C1252.26 295.754 1252.88 296.702 1254.12 297.403C1255.36 298.106 1257.91 298.449 1261.73 298.449C1263.2 298.449 1265.31 298.4 1268.05 298.302C1271.97 298.139 1274.81 298.057 1276.57 298.057C1279.09 298.057 1281.01 298.465 1282.35 299.282C1283.69 300.082 1284.85 301.502 1285.8 303.527C1286.76 305.552 1287.24 307.838 1287.24 310.385C1287.24 313.962 1286.16 317.374 1283.99 320.64C1281.81 323.906 1278.65 326.535 1274.52 328.511C1270.37 330.486 1265.58 331.466 1260.19 331.466C1253.63 331.466 1248.57 330.046 1245.03 327.188C1241.48 324.33 1239.72 320.803 1239.72 316.623C1239.72 314.043 1240.65 311.414 1242.49 308.769C1245.81 307.201 1248.58 305.633 1250.85 304.033C1248.24 303.184 1246.58 302.4 1245.83 301.682C1245.09 300.98 1244.71 300.065 1244.71 298.955C1244.71 297.632 1245.07 296.31 1245.81 295.02C1246.22 294.22 1247.28 293.256 1248.96 292.129L1253.58 288.847C1249.76 287.884 1247 286.528 1245.32 284.781C1243.08 282.413 1241.97 279.392 1241.97 275.718C1241.97 272.485 1242.8 269.546 1244.45 266.901C1246.12 264.239 1248.55 262.149 1251.77 260.614C1255.88 258.671 1259.85 257.691 1263.67 257.691C1266.11 257.691 1268.23 258.001 1270.06 258.622C1271.9 259.242 1273.76 260.304 1275.67 261.806H1279.69C1283.84 261.806 1287.06 261.675 1289.36 261.414L1289.88 262.41C1288.92 263.782 1288.07 265.219 1287.33 266.705H1278.5V266.705ZM1271.27 274.428C1271.27 270.428 1270.24 267.211 1268.2 264.778C1266.16 262.345 1263.59 261.12 1260.49 261.12C1257.44 261.12 1254.97 262.116 1253.11 264.092C1251.23 266.084 1250.3 268.844 1250.3 272.355C1250.3 276.616 1251.31 279.964 1253.34 282.381C1255.36 284.798 1257.91 286.006 1260.98 286.006C1264.03 286.006 1266.51 284.993 1268.42 282.952C1270.32 280.927 1271.27 278.086 1271.27 274.428V274.428ZM1258.22 304.817C1255.95 304.817 1254.4 305.079 1253.58 305.585C1250.9 307.299 1249.27 308.687 1248.7 309.749C1247.74 311.414 1247.26 313.504 1247.26 316.019C1247.26 319.497 1248.55 322.371 1251.13 324.641C1253.71 326.911 1257.3 328.037 1261.89 328.037C1265.44 328.037 1268.54 327.384 1271.23 326.078C1273.91 324.771 1275.99 322.975 1277.47 320.689C1278.96 318.403 1279.69 316.052 1279.69 313.618C1279.69 311.545 1279.17 309.732 1278.14 308.165C1277.1 306.597 1275.87 305.601 1274.43 305.16C1273.7 304.932 1272.02 304.817 1269.4 304.817H1258.22V304.817Z" stroke="#FEFEFE" stroke-width="1.33342" stroke-miterlimit="22.9256"/>
<path d="M509.565 310.695V302.563H518.383C518.857 293.974 520.849 284.976 524.36 275.587C527.854 266.198 531.675 258.572 535.774 252.694H512.995V261.609H504.666V244.17H546.208V250.93C541.881 256.139 537.782 264.026 533.896 274.624C530.026 285.205 528.083 294.513 528.083 302.563H535.823V310.695H509.565V310.695Z" fill="#FEFEFE"/>
<path d="M612.629 302.563V310.695H595.19V303.918C590.667 308.964 585.147 311.479 578.632 311.479C572.607 311.479 567.3 309.421 562.744 305.307C558.188 301.191 555.902 295.329 555.902 287.736C555.902 280.11 558.253 274.085 562.94 269.692C567.626 265.284 572.917 263.079 578.828 263.079C585.082 263.079 590.536 265.561 595.19 270.542V252.302H586.274V244.17H604.302V302.563H612.629V302.563ZM565.601 287.475C565.601 292.569 567.038 296.488 569.928 299.232C572.819 301.975 576.281 303.347 580.297 303.347C584.2 303.347 587.646 301.91 590.667 299.02C593.688 296.129 595.19 292.145 595.19 287.05C595.19 281.907 593.655 278.036 590.569 275.424C587.482 272.811 584.037 271.505 580.2 271.505C576.084 271.505 572.623 273.04 569.814 276.126C567.006 279.196 565.601 282.984 565.601 287.475Z" fill="#FEFEFE"/>
<path d="M663.277 302.563V310.695H647.307V305.045C642.914 309.34 637.999 311.479 632.578 311.479C628.365 311.479 624.707 310.107 621.605 307.364C618.486 304.621 616.934 301.126 616.934 296.848C616.934 292.553 618.584 288.977 621.882 286.152C625.197 283.311 629.182 281.89 633.835 281.89C638.179 281.89 642.375 283.197 646.425 285.809V281.204C646.425 278.82 646.197 277.008 645.756 275.718C645.298 274.444 644.253 273.285 642.604 272.256C640.971 271.227 638.816 270.721 636.154 270.721C631.582 270.721 628.283 272.55 626.226 276.208L617.522 273.905C621.392 266.688 628.071 263.079 637.558 263.079C641.036 263.079 644.057 263.552 646.588 264.483C649.136 265.431 651.03 266.639 652.271 268.125C653.528 269.611 654.361 271.211 654.786 272.925C655.227 274.64 655.439 277.383 655.439 281.155V302.563H663.277V302.563ZM646.425 293.533C642.506 290.479 638.522 288.945 634.505 288.945C631.99 288.945 629.883 289.679 628.185 291.132C626.503 292.602 625.654 294.48 625.654 296.799C625.654 298.97 626.389 300.767 627.875 302.236C629.361 303.69 631.386 304.425 633.933 304.425C638.342 304.425 642.506 302.579 646.425 298.905V293.533V293.533Z" fill="#FEFEFE"/>
<path d="M685.789 309.895L670.57 272.485H662.863V264.353H685.789V272.485H680.237L690.23 298.122L700.044 272.485H693.921V264.353H716.357V272.485H709.466L686.556 331.466H671.191V323.53H680.237L685.789 309.895V309.895Z" fill="#FEFEFE"/>
<path d="M720.858 310.695V294.823H728.99V296.358C729.284 298.53 730.443 300.326 732.501 301.73C734.559 303.134 736.992 303.837 739.8 303.837C742.739 303.837 745.074 303.331 746.838 302.302C748.585 301.273 749.467 299.852 749.467 298.04C749.467 296.276 748.732 294.986 747.279 294.154C745.826 293.321 742.952 292.553 738.641 291.851C732.24 290.774 727.684 289.026 724.957 286.626C722.23 284.209 720.858 281.09 720.858 277.253C720.858 273.399 722.344 270.166 725.3 267.569C728.272 264.973 732.174 263.667 737.008 263.667C741.384 263.667 745.14 264.565 748.292 266.361V264.353H756.423V279.735H748.292V276.91C745.842 273.105 742.282 271.211 737.596 271.211C735.212 271.211 733.236 271.733 731.701 272.762C730.15 273.807 729.382 275.179 729.382 276.91C729.382 278.673 730.084 279.865 731.505 280.518C732.925 281.188 735.996 281.874 740.682 282.625C745.173 283.344 748.569 284.176 750.871 285.107C753.174 286.054 755.084 287.622 756.603 289.793C758.122 291.982 758.873 294.529 758.873 297.419C758.873 301.73 757.223 305.143 753.925 307.674C750.627 310.205 746.348 311.479 741.09 311.479C736.143 311.479 732.109 310.336 728.99 308.066V310.695H720.858V310.695Z" fill="#FEFEFE"/>
<path d="M509.565 310.695V302.563H518.383C518.857 293.974 520.849 284.976 524.36 275.587C527.854 266.198 531.675 258.572 535.774 252.694H512.995V261.609H504.666V244.17H546.208V250.93C541.881 256.139 537.782 264.026 533.896 274.624C530.026 285.205 528.083 294.513 528.083 302.563H535.823V310.695H509.565V310.695Z" stroke="#FEFEFE" stroke-width="1.33342" stroke-miterlimit="22.9256"/>
<path d="M612.629 302.563V310.695H595.19V303.918C590.667 308.964 585.147 311.479 578.632 311.479C572.607 311.479 567.3 309.421 562.744 305.307C558.188 301.191 555.902 295.329 555.902 287.736C555.902 280.11 558.253 274.085 562.94 269.692C567.626 265.284 572.917 263.079 578.828 263.079C585.082 263.079 590.536 265.561 595.19 270.542V252.302H586.274V244.17H604.302V302.563H612.629V302.563ZM565.601 287.475C565.601 292.569 567.038 296.488 569.928 299.232C572.819 301.975 576.281 303.347 580.297 303.347C584.2 303.347 587.646 301.91 590.667 299.02C593.688 296.129 595.19 292.145 595.19 287.05C595.19 281.907 593.655 278.036 590.569 275.424C587.482 272.811 584.037 271.505 580.2 271.505C576.084 271.505 572.623 273.04 569.814 276.126C567.006 279.196 565.601 282.984 565.601 287.475Z" stroke="#FEFEFE" stroke-width="1.33342" stroke-miterlimit="22.9256"/>
<path d="M663.277 302.563V310.695H647.307V305.045C642.914 309.34 637.999 311.479 632.578 311.479C628.365 311.479 624.707 310.107 621.605 307.364C618.486 304.621 616.934 301.126 616.934 296.848C616.934 292.553 618.584 288.977 621.882 286.152C625.197 283.311 629.182 281.89 633.835 281.89C638.179 281.89 642.375 283.197 646.425 285.809V281.204C646.425 278.82 646.197 277.008 645.756 275.718C645.298 274.444 644.253 273.285 642.604 272.256C640.971 271.227 638.816 270.721 636.154 270.721C631.582 270.721 628.283 272.55 626.226 276.208L617.522 273.905C621.392 266.688 628.071 263.079 637.558 263.079C641.036 263.079 644.057 263.552 646.588 264.483C649.136 265.431 651.03 266.639 652.271 268.125C653.528 269.611 654.361 271.211 654.786 272.925C655.227 274.64 655.439 277.383 655.439 281.155V302.563H663.277V302.563ZM646.425 293.533C642.506 290.479 638.522 288.945 634.505 288.945C631.99 288.945 629.883 289.679 628.185 291.132C626.503 292.602 625.654 294.48 625.654 296.799C625.654 298.97 626.389 300.767 627.875 302.236C629.361 303.69 631.386 304.425 633.933 304.425C638.342 304.425 642.506 302.579 646.425 298.905V293.533V293.533Z" stroke="#FEFEFE" stroke-width="1.33342" stroke-miterlimit="22.9256"/>
<path d="M685.789 309.895L670.57 272.485H662.863V264.353H685.789V272.485H680.237L690.23 298.122L700.044 272.485H693.921V264.353H716.357V272.485H709.466L686.556 331.466H671.191V323.53H680.237L685.789 309.895V309.895Z" stroke="#FEFEFE" stroke-width="1.33342" stroke-miterlimit="22.9256"/>
<path d="M720.858 310.695V294.823H728.99V296.358C729.284 298.53 730.443 300.326 732.501 301.73C734.559 303.134 736.992 303.837 739.8 303.837C742.739 303.837 745.074 303.331 746.838 302.302C748.585 301.273 749.467 299.852 749.467 298.04C749.467 296.276 748.732 294.986 747.279 294.154C745.826 293.321 742.952 292.553 738.641 291.851C732.24 290.774 727.684 289.026 724.957 286.626C722.23 284.209 720.858 281.09 720.858 277.253C720.858 273.399 722.344 270.166 725.3 267.569C728.272 264.973 732.174 263.667 737.008 263.667C741.384 263.667 745.14 264.565 748.292 266.361V264.353H756.423V279.735H748.292V276.91C745.842 273.105 742.282 271.211 737.596 271.211C735.212 271.211 733.236 271.733 731.701 272.762C730.15 273.807 729.382 275.179 729.382 276.91C729.382 278.673 730.084 279.865 731.505 280.518C732.925 281.188 735.996 281.874 740.682 282.625C745.173 283.344 748.569 284.176 750.871 285.107C753.174 286.054 755.084 287.622 756.603 289.793C758.122 291.982 758.873 294.529 758.873 297.419C758.873 301.73 757.223 305.143 753.925 307.674C750.627 310.205 746.348 311.479 741.09 311.479C736.143 311.479 732.109 310.336 728.99 308.066V310.695H720.858V310.695Z" stroke="#FEFEFE" stroke-width="1.33342" stroke-miterlimit="22.9256"/>
</svg>
