<?xml version="1.0" encoding="UTF-8"?>
<!DOCTYPE svg PUBLIC "-//W3C//DTD SVG 1.1//EN" "http://www.w3.org/Graphics/SVG/1.1/DTD/svg11.dtd">
<!-- Creator: CorelDRAW 2021.5 -->
<svg xmlns="http://www.w3.org/2000/svg" xml:space="preserve" width="297mm" height="210mm" version="1.1" style="shape-rendering:geometricPrecision; text-rendering:geometricPrecision; image-rendering:optimizeQuality; fill-rule:evenodd; clip-rule:evenodd"
viewBox="0 0 29700 21000"
 xmlns:xlink="http://www.w3.org/1999/xlink"
 xmlns:xodm="http://www.corel.com/coreldraw/odm/2003">
 <defs>
  <style type="text/css">
   <![CDATA[
    .fil0 {fill:#FEFEFE}
   ]]>
  </style>
 </defs>
 <g id="Layer_x0020_1">
  <metadata id="CorelCorpID_0Corel-Layer"/>
  <path class="fil0" d="M2946.73 14272.69l0 352.04 -1058.17 0 0 -352.04 278.09 0c9.35,-215.54 69.7,-472.22 181.04,-771.23 111.51,-298.16 234.58,-542.43 370.57,-731.97l-564.35 0 0 308.02 -350.35 0 0 -651.05 1370.44 0 0 270.11c-110.32,131.91 -221.83,363.26 -334.71,694.57 -113.04,331.64 -169.64,625.21 -169.64,881.55l277.08 0zm2304.34 0l0 352.04 -738.25 0 0 -181.71c-135.99,135.82 -282.52,203.81 -441.46,203.81 -189.71,0 -347.79,-77.68 -473.24,-232.54 -124.6,-154.69 -187.16,-341.85 -187.16,-562.32 0,-223.53 63.92,-412.05 192.09,-565.04 128.17,-153.15 284.89,-229.82 470.01,-229.82 177.64,0 324.34,68.85 439.76,207.05l0 -485.49 -237.99 0 0 -352.21 725.51 0 0 1846.23 250.73 0zm-733.66 -416.13c0,-146.19 -31.11,-250.9 -93.67,-312.95 -62.21,-61.87 -133.78,-93.32 -213.5,-93.32 -96.04,0 -169.65,37.57 -221.83,111.85 -51.68,73.95 -78.03,172.03 -78.03,292.89 0,114.74 25.67,211.47 77.69,290.17 51.5,78.19 125.79,117.8 223.87,117.8 80.57,0 152.31,-31.79 213.5,-95.7 61.54,-63.75 91.97,-167.1 91.97,-310.74zm2549.97 416.13l0 352.04 -733.32 0 0 -120.18c-131.06,94.68 -269.94,142.28 -416.3,142.28 -151.29,0 -282.18,-43.18 -391.82,-129.53 -109.81,-86.35 -164.72,-202.11 -164.72,-347.79 0,-146.19 58.31,-269.43 173.05,-367.68 115.76,-99.45 265.69,-149.08 448.08,-149.08 102.17,0 219.63,25.83 351.71,77.68l0 -93.32c0,-78.37 -26.01,-141.94 -78.88,-192.09 -52.18,-50.31 -122.9,-74.96 -210.95,-74.96 -109.3,0 -203.13,39.78 -280.99,119.84l-392.33 -70.72c113.38,-241.55 360.2,-362.07 739.61,-362.07 146.7,0 269.09,16.66 365.14,49.47 97.06,33.49 169.13,76.32 216.56,128.85 47.6,52.52 80.74,110.49 100.12,173.39 19.38,62.55 29.07,164.37 29.07,305.29l0 558.58 245.97 0zm-733.32 -213.84c-117.8,-74.12 -211.81,-110.5 -282.35,-110.5 -55.25,0 -106.07,15.98 -151.63,48.79 -45.9,32.47 -69.01,80.06 -69.01,142.62 0,55.59 18.18,103.69 55.58,143.64 36.55,39.78 83.64,60.17 141.26,60.17 90.43,0 192.77,-53.2 306.15,-159.61l0 -125.11zm971.3 1256.37l0 -352.04 293.57 0 100.97 -273.85 -555.51 -1240.4 -220.48 0 0 -354.08 914.36 0 0 354.08 -179.84 0 254.13 687.43 271.3 -687.43 -198.72 0 0 -354.08 802.51 0 0 354.08 -217.41 0 -731.97 1866.29 -532.91 0zm1630.52 -690.49l0 -526.45 356.12 0c3.4,71.57 36.21,128.85 99.1,171.69 63.58,42.5 141.26,63.91 233.57,63.91 79.72,0 142.28,-13.76 186.81,-42.15 44.88,-27.54 67.66,-62.9 67.66,-106.07 0,-40.46 -20.74,-71.4 -62.22,-93.5 -40.96,-21.93 -120.86,-43 -241.04,-63.57 -246.99,-39.78 -424.97,-100.63 -534.44,-182.4 -109.13,-81.25 -164.38,-189.7 -164.38,-324.5 0,-126.3 51.85,-233.06 154.69,-320.09 103.35,-87.03 239.85,-130.55 409.84,-130.55 138.03,0 266.88,25.5 386.72,75.99l0 -52.19 348.31 0 0 443.84 -348.31 0c-31.96,-106.08 -143.3,-159.28 -334.02,-159.28 -141.26,0 -211.64,39.09 -211.64,116.78 0,29.75 14.45,51.84 43.52,67.65 28.56,14.96 102.84,33.49 221.32,54.23 188.35,32.47 329.27,65.27 422.93,97.74 93.15,32.98 168.12,86.87 224.21,162.17 56.27,74.96 84.83,165.74 84.83,270.79 0,149.59 -53.21,272.49 -160.47,367.51 -106.41,95.36 -258.04,142.96 -453.02,142.96 -182.05,0 -306.65,-36.55 -373.97,-110.49l0 75.98 -356.12 0zm2666.93 -1611.81l626.06 1369.24c49.98,112.02 128.17,187.67 235.94,226.42l0 16.15c-97.06,-13.09 -192.76,-19.38 -287.45,-19.38 -103.35,0 -204.49,6.29 -303.59,19.38l0 -13.09c0,-21.41 13.42,-44.19 40.28,-67.82 27.03,-23.8 40.46,-50.66 40.46,-81.09 0,-32.12 -7.48,-61.19 -22.44,-87.37l-200.41 -485.31c-55.93,-4.25 -112.87,-8.33 -171.18,-11.39 -58.14,-3.23 -116.1,-4.93 -174.24,-4.93 -60.34,0 -120.52,1.7 -181.2,4.93 -60.18,3.06 -119.33,7.14 -177.3,11.39l-232.54 527.47c-8.84,19.38 -16.15,37.57 -22.44,53.2 -6.8,16.49 -10.03,33.15 -10.03,50.32 0,28.39 16.32,58.14 48.45,90.6l0 13.09c-36.38,-4.42 -71.91,-7.65 -106.42,-9.69 -34.5,-2.04 -69.86,-3.4 -106.75,-3.4 -38.41,0 -77.34,1.36 -116.1,3.4 -38.93,2.04 -76.32,5.27 -113.21,9.69l16.49 -13.09c60.17,-17 114.4,-46.23 163.02,-87.37 48.44,-40.8 87.54,-91.62 117.8,-151.97l632.86 -1326.92c4.25,-17.51 6.63,-30.08 6.63,-38.92 2.04,-43.18 -16.66,-87.89 -56.61,-134.46 -39.77,-46.24 -86.69,-85.68 -140.58,-118.14l-6.29 -16.15c40.8,2.38 91.46,4.42 151.63,6.46 60.18,2.38 113.04,3.4 158.26,3.4l71.06 0 119.84 265.35zm73.94 770.38l0 -13.09 -274.53 -637.45 -6.29 0 -303.59 637.45 0 13.09c47.25,2.04 95.36,3.74 143.63,4.76 48.45,1.02 97.41,1.7 146.87,1.7 47.6,0 95.71,-0.68 145.17,-1.7 49.64,-1.02 99.1,-2.72 148.74,-4.76zm1867.82 -1045.59c152.99,0 296.8,20.22 431.09,60 134.8,39.78 252.6,97.06 353.74,171.69 101.14,74.28 181.38,164.38 240.7,270.11 59.16,105.73 88.56,224.21 88.56,356.12 0,148.91 -29.4,286.09 -88.56,412.56 -59.32,126.3 -143.3,235.26 -252.09,326.71 -108.79,91.63 -240.02,164.38 -393.86,217.25 -154.01,52.52 -325.7,78.87 -515.06,78.87 -88.39,0 -184.1,-3.57 -287.62,-11.05 -103.01,-7.65 -200.07,-11.39 -290.51,-11.39 -45.21,0 -97.74,1.02 -156.55,3.06 -59.33,2.38 -111.52,5.44 -156.73,9.69l0 -22.44c43.17,-17.33 86.69,-48.44 130.89,-94 44.19,-45.21 67.31,-91.62 69.35,-139.22l0 -219.79 0 -430.75c0,-114.23 -1.7,-233.05 -4.76,-355.78 -3.23,-123.24 -6.97,-240.7 -11.39,-352.89 -4.25,-43.18 -25.33,-86.02 -62.89,-127.83 -37.74,-42.16 -87.72,-81.6 -150.27,-118.49l0 -12.57c43.18,4.25 98.42,7.3 166.42,9.68 67.48,1.87 125.11,2.89 172.7,2.89 68.85,0 129.87,-1.02 182.4,-2.89 52.87,-2.38 105.73,-4.75 158.26,-8.15 52.86,-3.23 108.79,-5.95 167.94,-8.33 59.33,-2.04 128.51,-3.06 208.24,-3.06zm0 110.15c-60.18,0 -120.52,0.68 -180.7,1.7 -60.34,1.02 -116.1,3.06 -168.11,6.29 -51.51,3.06 -96.73,8.16 -135.48,14.45 -38.76,6.63 -68,15.13 -87.38,26.17 -6.29,19.38 -10.03,39.78 -11.05,61.54 -1.02,21.42 -1.7,40.8 -1.7,58.31 -4.25,60.17 -6.97,122.73 -7.99,187.66 -1.36,64.6 -1.7,130.55 -1.7,197.19l0 304.44c0,112.19 1.7,225.24 4.76,339.81 3.23,114.4 9.01,227.61 17.68,339.97 0,19.38 1.36,32.13 3.4,38.59 51.85,34.68 124.43,57.79 217.93,69.86 93.66,11.73 210.44,17.68 350.34,17.68 116.1,0 226.25,-21.59 329.6,-64.76 103.19,-43.18 193.11,-102.51 269.43,-178.15 76.33,-75.3 137.01,-164.04 181.04,-265.35 44.2,-101.48 65.95,-209.25 65.95,-323.66 0,-116.44 -21.41,-232.03 -64.59,-346.43 -42.84,-114.06 -104.03,-209.08 -184.1,-284.73 -75.3,-73.43 -164.88,-125.28 -269.43,-155.37 -104.37,-30.08 -213.84,-45.21 -327.9,-45.21zm1738.63 883.59c-51.51,-112.19 -109.14,-231.86 -172.71,-359.18 -63.58,-127.49 -124.09,-247.33 -182.4,-359.35 -21.41,-45.56 -46.74,-89.08 -75.98,-131.23 -29.07,-41.82 -84.31,-81.26 -166.25,-118.15l-3.06 -19.37c45.22,2.38 92.14,5.27 140.24,9.69 48.62,4.41 96.38,6.28 143.98,6.28 43.18,0 87.71,-1.02 133.78,-2.89 46.58,-2.38 93.49,-4.41 140.58,-6.45l9.69 19.37c-21.76,10.71 -37.06,26.86 -46.75,48.62 -9.69,21.42 -14.45,44.2 -14.45,67.99 0,47.43 9.69,93.67 28.73,139.22 45.22,112.03 96.38,228.47 153.67,349.33 56.95,120.86 109.13,235.26 156.56,343.03 42.83,92.81 87.71,185.12 133.95,276.91 46.57,91.62 91.96,183.93 137.52,276.74l25.84 0c36.37,-80.06 73.6,-159.62 111.34,-239.68 37.56,-79.73 74.62,-160.64 111.17,-242.57 53.88,-112.2 108.11,-237.31 163.36,-375.51 54.9,-138.02 106.07,-263.14 153.32,-375.67 10.71,-21.42 20.06,-45.04 27.37,-71.22 7.31,-25.84 11.39,-51.51 11.39,-77.69 0,-30.08 -8.67,-57.11 -25.84,-80.57 -17.34,-23.8 -51.84,-39.78 -103.35,-48.96l9.69 -15.97c40.8,2.38 84.31,4.93 130.89,8.33 46.24,3.05 92.98,4.75 140.58,4.75 42.84,0 88.05,-1.7 135.48,-4.75 47.26,-3.4 95.7,-5.95 145.34,-8.33l-6.46 15.97c-64.6,24.14 -118.48,62.39 -161.66,115.26 -43.18,52.86 -78.53,103.01 -106.41,150.6 -58.14,107.78 -115.42,223.2 -171.35,346.27 -55.92,122.9 -108.79,237.3 -158.26,342.86 -25.83,56.1 -53.2,114.06 -82.27,173.22 -28.9,59.32 -61.36,124.6 -96.72,195.82 -35.53,71.4 -74.29,150.95 -116.27,239.35 -42.16,88.73 -88.91,191.06 -140.58,307.5 -6.63,17.51 -17.34,26.18 -32.3,26.18 -12.75,0 -25.84,-12.07 -38.93,-35.87 -25.67,-55.92 -57.96,-123.41 -96.72,-202.11 -38.76,-78.71 -79.04,-159.62 -121.2,-242.91 -41.82,-83.13 -82.61,-163.7 -122.39,-242.74 -40.29,-78.54 -73.95,-145.85 -102.16,-202.12zm1916.43 873.9c-47.26,0 -100.12,2.38 -157.92,6.29 -58.3,4.42 -108.79,8.67 -151.97,13.09l0 -35.52c21.42,-8.67 43.52,-23.46 66.3,-43.86 22.44,-20.4 43.18,-43.18 61.19,-67.83 18.36,-24.81 33.83,-51.33 46.92,-79.38 12.92,-28.05 19.38,-53.89 19.38,-77.68 2.38,-112.03 3.4,-213.17 3.4,-302.58 0,-89.58 0,-191.41 0,-305.81 0,-112.53 -1.7,-229.99 -5.1,-352.72 -3.4,-123.24 -9.01,-240.7 -17.68,-352.89 -2.38,-45.39 -18.53,-89.59 -48.62,-132.76 -30.08,-43.18 -80.57,-80.07 -151.62,-110.16l-3.23 -25.83c21.41,2.38 50.48,4.42 87.2,6.46 36.55,2.38 74.45,4.93 112.87,8.33 38.76,3.05 76.67,5.77 113.04,7.64 36.55,2.38 65.62,3.4 87.38,3.4 23.45,0 63.23,-1.02 119.16,-3.4 56.26,-1.87 114.57,-3.91 174.74,-6.28 60.18,-4.42 120.52,-7.99 180.7,-11.39 60.35,-3.06 116.1,-4.76 168.12,-4.76 25.67,0 53.2,0.68 82.27,1.7 29.07,1.02 55.93,3.06 80.57,6.46 24.82,3.23 45.9,7.99 63.07,14.27 17.34,6.8 26.01,15.47 26.01,26.18 0,47.6 3.74,85.34 11.05,113.38 7.65,27.88 11.39,60.35 11.39,97.07 0,12.75 -4.42,19.55 -12.75,19.55 -13.09,0 -22.44,-7.14 -27.71,-21.08 -5.44,-14.11 -13.43,-28.9 -24.14,-43.86 -21.42,-25.84 -64.59,-51.68 -129.19,-77.68 -64.59,-25.84 -169.99,-38.93 -316.51,-38.93 -43.01,0 -87.04,2.04 -132.25,6.46 -45.22,4.25 -107.78,8.67 -187.5,13.09 -8.67,23.63 -13.43,49.12 -14.28,75.98 -1.36,27.03 -3.74,54.4 -8.5,82.62 -6.29,92.64 -10.03,189.36 -11.05,289.82 -1.36,100.13 -1.53,197.87 -1.53,292.89 60.18,0 118.48,1.02 174.24,2.89 55.92,2.38 112.19,3.4 168.12,3.4 19.37,0 38.07,-0.34 56.43,-1.7 18.53,-1.02 37.23,-1.7 56.61,-1.7 49.63,-1.87 100.12,-10.71 151.63,-25.67 51.84,-15.13 99.1,-50.82 141.94,-106.75l16.31 0c-2.21,36.38 -5.27,67.83 -9.69,93.66 -4.25,26.18 -6.62,59.5 -6.62,100.47 0,38.75 0,66.8 0,84.31 0,17 1.35,46.24 3.39,87.37l-19.54 0c-27.71,-47.59 -71.91,-79.38 -132.08,-95.7 -60.35,-16.15 -117.46,-26.52 -171.35,-30.6 -66.64,-4.25 -136.67,-6.63 -209.93,-6.63 -72.93,0 -146.53,0 -219.46,0l0 6.63c0,112.19 2.55,214.53 7.99,307.34 5.27,92.64 10.37,195.48 14.62,307.51 2.04,43.17 19.21,77.34 51.68,102.16 32.46,24.65 70.88,44.87 116.1,59.49 45.21,15.47 94.34,25.16 146.87,29.41 52.86,4.08 100.8,6.46 143.98,6.46 62.21,0 125.11,-3.74 188.68,-11.39 63.58,-7.31 121.2,-29.75 173.05,-66.29 62.21,-43.18 111.85,-88.06 148.23,-134.46 36.88,-46.24 63.57,-69.7 80.74,-69.7 15.3,0 22.78,7.65 22.78,22.78 0,15.13 -5.78,32.47 -17.85,51.85 -11.73,19.38 -25.33,40.45 -40.12,62.89 -14.96,22.78 -31.1,46.58 -46.91,71.4 -16.32,24.64 -27.37,49.12 -34,72.92 -4.42,21.42 -14.45,42.16 -30.6,61.2 -16.32,19.71 -57.79,29.4 -124.43,29.4l-390.97 0c-64.25,0 -118.14,0 -161.32,0 -43.17,0 -82.95,-0.51 -119.33,-1.53 -36.55,-1.02 -73.43,-1.7 -109.81,-1.7 -36.55,0 -80.74,0 -132.59,0zm2788.3 -1877.33c32.47,4.42 62.55,8.84 90.6,12.75 27.88,4.76 56.95,6.8 87.03,6.8 45.22,0 91.12,-1.02 137.18,-3.4 46.58,-2.04 92.14,-5.44 137.35,-9.69l0 16.32c-53.54,23.79 -89.75,61.36 -108.11,113.21 -18.19,51.84 -28.56,102.33 -30.77,152.31 -6.45,60.17 -10.02,122.73 -11.04,187.66 -1.36,64.6 -1.7,130.55 -1.7,197.19l0 304.44c0,75.31 -1.02,162.34 -3.4,260.42 -2.04,98.43 -3.4,194.81 -3.4,289.83 0,47.26 0.68,93.15 1.7,137.35 1.36,44.37 2.72,84.99 5.1,121.37 2.04,60.69 3.06,101.14 3.06,121.54 0,20.4 -7.48,30.77 -22.44,30.77 -10.71,0 -36.55,-22.78 -77.69,-68l-1433.84 -1443.36 -15.98 0c-4.42,30.09 -6.46,60.86 -6.46,91.97 0,31.11 0,62.21 0,92.3 0,62.73 1.02,124.94 3.06,187.84 2.38,62.55 3.4,121.88 3.4,177.97 0,112.19 1.7,225.24 4.59,339.81 3.4,114.4 7.14,227.61 11.39,339.97 4.42,47.26 18.36,90.09 41.82,127.49 23.8,37.91 62.55,67.66 116.44,89.41l0 19.04c-49.47,-4.25 -98.59,-7.31 -146.87,-9.69 -48.45,-2.04 -97.74,-3.06 -146.87,-3.06 -45.21,0 -75.3,0.34 -90.43,1.36 -14.96,1.36 -44.54,4.08 -87.37,8.16l0 -19.21c40.96,-17.33 75.98,-43.17 104.88,-77.85 29.07,-34.51 43.68,-75.3 43.68,-122.9 4.42,-114.4 6.46,-228.63 6.46,-343.03 0,-114.41 0,-228.64 0,-343.04 0,-75.64 0.68,-153.67 1.7,-234.58 1.02,-81.08 1.7,-161.32 1.7,-241.38 0,-40.8 0,-81.26 0,-121.54 0,-39.78 -1.02,-77.86 -3.4,-114.74l0 -15.98c-4.42,-40.97 -17.16,-82.11 -38.75,-122.9 -21.59,-41.14 -62.39,-80.07 -122.56,-116.78l-6.63 -19.38c36.37,2.21 79.21,5.27 127.49,9.69 48.44,4.25 92.98,6.29 134.12,6.29l1433.84 1476.33 16.32 0c2.04,-84.31 3.06,-168.28 3.06,-252.77 0,-83.97 0,-169.3 0,-255.66 0,-114.4 -1.7,-231.86 -4.76,-352.72 -3.23,-120.86 -7.99,-238.32 -14.62,-352.72 -2.04,-43.18 -9.69,-87.38 -22.44,-132.93 -13.09,-45.22 -51.85,-86.02 -116.44,-122.73l0 -19.55zm2349.05 -19.38c-8.33,40.8 -31.79,89.41 -69.19,145.68 -37.9,56.09 -61.87,107.77 -72.58,155.2 -4.42,11.04 -9.86,18.01 -16.15,21.07 -6.63,3.4 -12.07,5.1 -16.32,5.1 -8.84,0 -12.75,-11.39 -12.75,-34.16 0,-22.78 -2.38,-44.88 -6.8,-66.3 -6.29,-21.76 -23.96,-38.42 -53.2,-50.14 -29.07,-11.73 -54.23,-18.87 -75.99,-21.08 -73.26,-2.04 -149.92,-3.06 -230.84,-3.06 -80.74,0 -157.75,0 -231.01,0l-15.98 161.65c-4.42,62.56 -7.14,126.13 -7.99,191.07 -1.02,64.6 -1.7,130.21 -1.7,197.53l0 303.93c0,114.4 1.7,227.78 4.93,339.98 3.06,112.19 9.01,225.57 17.85,339.63 1.87,47.6 15.3,89.75 40.12,126.3 24.81,36.72 63.23,65.79 114.74,87.54l0 19.55c-49.47,-2.38 -98.42,-5.1 -146.87,-8.16 -48.62,-3.23 -97.4,-4.93 -147.04,-4.93 -45.05,0 -90.26,1.7 -135.82,4.93 -45.22,3.06 -88.05,5.78 -128.85,8.16l0 -19.55c40.8,-17.33 75.64,-43.17 104.71,-77.51 29.24,-34.85 43.52,-75.64 43.52,-123.24 2.38,-114.06 4.08,-228.63 5.1,-343.03 1.02,-114.41 1.7,-228.98 1.7,-343.04 0,-114.4 -0.68,-237.3 -1.7,-369.21 -1.02,-131.4 -2.72,-253.28 -5.1,-365.47l0 -126.13c-87.88,0 -175.94,1.36 -262.97,4.76 -87.03,3.23 -172.71,13.26 -256.68,30.76 -28.22,4.25 -60.01,13.26 -95.36,27.37 -35.53,14.11 -67.32,30.77 -95.54,50.15 -19.38,15.13 -36.71,29.92 -53.2,43.51 -15.98,14.11 -31.79,21.08 -46.75,21.08 -12.75,0 -19.38,-3.91 -19.38,-12.58 2.21,-19.54 16.66,-43.85 43.69,-73.09 26.86,-29.07 46.92,-56.44 59.66,-82.61 13.09,-23.46 27.37,-48.79 43.52,-75.99 16.32,-27.03 26.35,-52.18 30.77,-75.98l35.53 0c12.92,13.09 30.76,22.44 53.54,29.24 22.44,6.29 55.25,10.7 98.42,12.57 107.78,2.38 215.21,3.4 322.98,3.4 107.43,0 215.2,0 322.81,0 103.18,0 212.65,-1.7 327.73,-4.76 115.08,-3.23 227.61,-6.96 337.76,-11.21 38.76,0 71.57,-5.1 98.26,-14.79 26.86,-9.69 52.35,-17.68 75.98,-24.14l22.44 0zm931.53 1941.93c-79.73,0 -163.02,-4.76 -250.39,-14.45 -87.38,-9.69 -167.27,-33.83 -240.7,-72.92 -73.27,-38.93 -133.78,-95.71 -182.4,-171.35 -48.45,-75.64 -74.96,-178.15 -79.21,-307.68 -2.04,-105.73 -3.4,-182.39 -4.76,-229.82 -1.02,-47.26 -1.7,-88.39 -1.7,-122.9 0,-81.93 1.02,-168.29 3.4,-259.06 2.04,-90.6 3.06,-179 3.06,-265.35 0,-32.13 0,-64.59 0,-97.06 0,-32.47 -1.02,-63.58 -3.06,-93.66 -2.38,-43.18 -12.41,-87.72 -30.77,-132.93 -18.02,-45.56 -58.65,-86.36 -121.2,-123.25l0 -15.97c43.17,2.38 89.07,4.93 137.52,8.33 48.27,3.05 95.02,4.75 140.24,4.75 45.21,0 91.11,-1.7 137.35,-4.75 46.4,-3.4 91.96,-5.95 137.52,-8.33l0 15.97c-53.89,24.14 -89.76,62.39 -106.76,115.26 -17.16,52.86 -28.21,103.01 -32.12,150.6 -6.8,60.18 -10.37,122.73 -11.39,187.67 -1.02,64.6 -1.7,130.21 -1.7,197.53l0 303.93c0,36.72 0.68,77.18 1.7,121.37 1.02,44.2 3.57,113.89 7.99,208.92 2.04,110.15 19.38,197.35 51.5,261.95 32.47,64.93 72.59,114.57 121.2,149.08 48.45,34.33 103.36,56.43 164.72,66.12 61.54,10.2 123.07,14.79 185.63,14.79 92.81,0 175.08,-5.95 246.99,-17.68 72.41,-12.07 133.27,-37.57 182.39,-76.32 49.98,-38.59 88.4,-93.67 116.62,-165.06 27.7,-71.23 44.02,-167.27 48.1,-288.13 2.38,-66.63 3.4,-119.5 3.4,-158.26 0,-38.92 0,-75.64 0,-110.15 0,-64.93 0.68,-131.23 1.7,-199.22 1.02,-67.83 1.53,-135.14 1.53,-202.12 0,-51.84 -0.51,-103.01 -1.53,-153.84 -1.02,-50.65 -2.72,-100.8 -5.1,-150.26 -2.04,-62.73 -12.75,-112.54 -32.13,-149.08 -19.37,-36.72 -65.61,-72.25 -138.88,-107.1l0 -15.97c34.51,2.38 68,4.25 100.13,6.63 32.46,2.04 65.61,3.06 100.29,3.06 42.84,0 87.71,-1.02 133.95,-3.06 46.24,-2.38 92.98,-5.27 140.24,-10.03l0 16.48c-53.55,23.63 -90.09,53.89 -109.47,90.61 -19.38,36.55 -31.45,95.02 -35.87,174.74 -4.25,107.78 -6.29,223.88 -6.29,347.8 0,124.09 0,239.17 0,344.73 0,34.68 -0.68,67.49 -1.7,98.93 -1.02,31.11 -1.7,63.92 -1.7,98.43 0,172.7 -19.04,308.69 -57.8,407.97 -38.92,99.44 -92.13,173.38 -159.95,221.66 -68,48.45 -149.08,78.87 -243.76,90.6 -95.03,12.07 -197.19,17.85 -306.83,17.85zm1244.64 -1880.4c86.02,0 168.97,-3.91 248.7,-11.39 79.55,-7.64 157.91,-11.21 235.6,-11.21 53.88,0 119.5,7.3 197.18,22.6 77.18,15.13 144.15,36.55 200.08,64.6 88.39,47.6 152.31,110.49 192.08,189.53 39.78,78.54 60.01,155.88 60.01,231.19 0,88.39 -23.12,171.68 -69.7,249.37 -46.23,77.68 -107.09,140.24 -182.39,187.83 -19.38,8.67 -38.76,17.68 -58.31,27.37 -19.38,9.69 -40.8,16.83 -64.59,21.08 58.3,80.06 122.22,169.99 192.25,270.11 70.21,100.46 144.15,194.8 222.85,283.54 78.54,88.22 159.96,162.34 243.94,221.49 83.97,59.67 169.98,89.07 258.38,89.07 19.37,0 38.75,-1.02 57.96,-3.06 19.38,-2.38 39.78,-3.4 61.54,-3.4 10.71,0 15.98,4.42 15.98,12.75 0,11.05 -9.01,21.76 -27.37,32.47 -18.36,10.71 -40.12,20.06 -66.3,27.54 -25.66,7.65 -52.18,13.6 -78.87,17.68 -26.86,4.42 -49.3,6.63 -66.3,6.63 -142.27,0 -263.14,-31.79 -363.43,-95.71 -100.12,-63.57 -191.57,-142.27 -274.53,-235.94 -82.61,-94 -161.31,-193.78 -235.6,-299.51 -74.28,-105.74 -156.56,-201.78 -247.33,-288.13l-135.48 0c-21.42,-2.04 -51,-1.36 -88.73,1.7 -37.91,3.23 -72.59,5.95 -105.06,7.99 0,101.48 0.85,202.79 3.23,304.61 2.38,100.98 7.48,202.8 16.15,303.77 4.25,62.73 18.36,108.45 42.16,138.03 23.46,28.73 61.2,54.06 112.7,75.81l0 19.55c-49.46,-2.38 -98.25,-5.1 -146.87,-8.16 -48.27,-3.23 -97.4,-4.93 -146.87,-4.93 -43.17,0 -93.15,1.7 -149.92,4.93 -57.29,3.06 -107.1,5.78 -150.27,8.16l0 -22.78c40.79,-17.16 81.25,-42.49 121.03,-75.98 39.94,-33.49 62.04,-73.94 66.29,-121.54 2.04,-114.06 3.06,-228.63 3.06,-343.03 0,-114.41 0,-228.98 0,-343.04 0,-114.4 -2.04,-232.88 -6.46,-356.12 -4.25,-122.9 -8.67,-240.7 -12.92,-352.72 -2.04,-43.18 -12.75,-85.68 -32.12,-127.83 -19.55,-42.16 -63.58,-78.37 -132.59,-108.46l0 -22.77c43.17,4.41 90.43,7.98 142.28,11.38 51.5,3.4 100.97,4.93 148.56,4.93zm135.48 252.43c-6.29,58.31 -10.03,117.47 -11.39,177.98 -0.85,60.35 -1.53,121.88 -1.53,184.44l0 291.18c36.72,0 79.56,-0.34 129.19,-1.36 49.47,-1.01 87.21,-1.69 113.05,-1.69 198.2,0 333.34,-36.72 405.25,-109.99 72.41,-73.26 106.07,-181.37 101.82,-323.65 4.25,-58.31 -10.71,-119.16 -45.22,-183.08 -34.51,-63.57 -84.99,-113.55 -151.97,-150.27 -45.21,-26.17 -98.42,-42.15 -159.62,-48.61 -61.19,-6.63 -118.82,-9.69 -172.7,-9.69 -32.47,0 -63.58,1.7 -93.66,4.76 -30.09,3.23 -61.54,5.95 -93.67,8.33 -13.09,23.46 -19.21,49.46 -17.85,77.68 1.02,27.71 0.34,55.93 -1.7,83.97zm2039 1582.75c-47.26,0 -100.12,2.38 -158.09,6.29 -58.14,4.42 -108.62,8.67 -151.8,13.09l0 -35.52c21.42,-8.67 43.52,-23.46 66.13,-43.86 22.44,-20.4 43.17,-43.18 61.36,-67.83 18.36,-24.81 34.17,-51.33 46.75,-79.38 13.09,-28.05 19.55,-53.89 19.55,-77.68 1.87,-112.03 2.89,-213.17 2.89,-302.58 0,-89.58 0,-191.41 0,-305.81 0,-112.53 -1.36,-229.99 -4.59,-352.72 -3.06,-123.24 -9.01,-240.7 -17.85,-352.89 -1.87,-45.39 -18.36,-89.59 -48.45,-132.76 -29.75,-43.18 -80.74,-80.07 -151.63,-110.16l-3.4 -25.83c21.42,2.38 50.66,4.42 87.38,6.46 36.54,2.38 74.28,4.93 112.87,8.33 38.76,3.05 76.66,5.77 113.04,7.64 36.55,2.38 65.62,3.4 87.37,3.4 23.46,0 63.58,-1.02 119.5,-3.4 55.93,-1.87 114.07,-3.91 174.41,-6.28 60.18,-4.42 120.35,-7.99 180.7,-11.39 60.17,-3.06 116.44,-4.76 167.94,-4.76 25.84,0 53.21,0.68 82.45,1.7 29.07,1.02 55.75,3.06 80.57,6.46 24.82,3.23 45.9,7.99 63.24,14.27 17.17,6.8 25.84,15.47 25.84,26.18 0,47.6 3.57,85.34 11.04,113.38 7.65,27.88 11.39,60.35 11.39,97.07 0,12.75 -4.08,19.55 -12.74,19.55 -13.09,0 -22.1,-7.14 -27.71,-21.08 -5.44,-14.11 -13.43,-28.9 -24.14,-43.86 -21.42,-25.84 -64.6,-51.68 -129.19,-77.68 -64.6,-25.84 -169.99,-38.93 -316.35,-38.93 -43.17,0 -87.37,2.04 -132.42,6.46 -45.21,4.25 -107.77,8.67 -187.49,13.09 -8.33,23.63 -13.43,49.12 -14.45,75.98 -1.02,27.03 -3.57,54.4 -7.99,82.62 -6.29,92.64 -10.37,189.36 -11.39,289.82 -1.02,100.13 -1.7,197.87 -1.7,292.89 60.35,0 118.48,1.02 174.41,2.89 56.26,2.38 111.85,3.4 167.94,3.4 19.55,0 38.25,-0.34 56.61,-1.7 18.02,-1.02 37.23,-1.7 56.61,-1.7 49.46,-1.87 100.12,-10.71 151.62,-25.67 51.85,-15.13 99.11,-50.82 142.28,-106.75l15.98 0c-2.04,36.38 -5.27,67.83 -9.69,93.66 -4.42,26.18 -6.29,59.5 -6.29,100.47 0,38.75 0,66.8 0,84.31 0,17 0.85,46.24 2.89,87.37l-19.38 0c-27.7,-47.59 -71.9,-79.38 -132.25,-95.7 -60.17,-16.15 -117.46,-26.52 -171,-30.6 -66.98,-4.25 -136.84,-6.63 -210.11,-6.63 -72.92,0 -146.36,0 -219.62,0l0 6.63c0,112.19 2.72,214.53 7.99,307.34 5.44,92.64 10.54,195.48 14.79,307.51 2.04,43.17 19.38,77.34 51.5,102.16 32.47,24.65 71.06,44.87 116.45,59.49 45.21,15.47 94.17,25.16 147.03,29.41 52.53,4.08 100.3,6.46 143.47,6.46 62.39,0 125.62,-3.74 188.86,-11.39 63.57,-7.31 121.2,-29.75 173.05,-66.29 62.21,-43.18 111.68,-88.06 148.22,-134.46 36.89,-46.24 63.58,-69.7 81.09,-69.7 14.96,0 22.27,7.65 22.27,22.78 0,15.13 -5.61,32.47 -17.68,51.85 -11.73,19.38 -25.16,40.45 -40.12,62.89 -15.13,22.78 -30.77,46.58 -46.92,71.4 -15.97,24.64 -27.36,49.12 -34.16,72.92 -4.25,21.42 -14.28,42.16 -30.43,61.2 -15.98,19.71 -57.46,29.4 -124.43,29.4l-390.63 0c-64.6,0 -118.48,0 -161.66,0 -42.84,0 -82.61,-0.51 -119.5,-1.53 -36.38,-1.02 -73.26,-1.7 -109.81,-1.7 -36.38,0 -80.58,0 -132.42,0zm-10062.9 -8300.46c2842.02,-336.07 5928.13,-547.53 9331.95,-596.49l0 0 12.07 0c323.32,-4.59 649.52,-7.65 978.96,-9.35 -6084.69,4379.72 -14819.47,6539.06 -22267.63,6099.65 7920.72,-135.99 14151.77,-1866.29 19559.9,-5339.98 -2153.22,-249.03 -5785.67,-94.34 -7615.25,-153.83z"/>
 </g>
</svg>
